VelekaWorld-SemiBold.ufo
<glyph name="quotedbl" format="2">
  <advance width="372"/>
  <unicode hex="0022"/>
  <outline>
    <contour>
      <point x="41" y="655.667" type="line"/>
      <point x="41" y="690"/>
      <point x="57" y="714"/>
      <point x="93.3333" y="714" type="curve" smooth="yes"/>
      <point x="129.667" y="714"/>
      <point x="146" y="690"/>
      <point x="146" y="655.667" type="curve"/>
      <point x="108.667" y="418.333" type="line"/>
      <point x="78.6667" y="418.333" type="line"/>
    </contour>
    <contour>
      <point x="225.667" y="655.667" type="line"/>
      <point x="225.667" y="690"/>
      <point x="241.667" y="714"/>
      <point x="277.667" y="714" type="curve" smooth="yes"/>
      <point x="314.667" y="714"/>
      <point x="331.333" y="690"/>
      <point x="331.333" y="655.667" type="curve"/>
      <point x="293" y="418.333" type="line"/>
      <point x="263" y="418.333" type="line"/>
    </contour>
  </outline>
</glyph>
<glyph name="dollar" format="2">
  <advance width="578"/>
  <unicode hex="0024"/>
  <outline>
    <contour>
      <point x="55" y="30" type="curve"/>
      <point x="55" y="202" type="line"/>
      <point x="119" y="202" type="line"/>
      <point x="139" y="86.6667" type="line"/>
      <point x="164.333" y="67"/>
      <point x="214" y="57"/>
      <point x="259" y="57" type="curve"/>
      <point x="259" y="288" type="line"/>
      <point x="177.547" y="309.467"/>
      <point x="64.3333" y="351.323"/>
      <point x="64.3333" y="479.333" type="curve" smooth="yes"/>
      <point x="64.3333" y="639.349"/>
      <point x="226.82" y="662.452"/>
      <point x="259" y="668" type="curve"/>
      <point x="259" y="742.333" type="line"/>
      <point x="313.667" y="742.333" type="line"/>
      <point x="313.667" y="669" type="line"/>
      <point x="389" y="669"/>
      <point x="474.333" y="646"/>
      <point x="491.333" y="642" type="curve"/>
      <point x="491.333" y="478" type="line"/>
      <point x="428" y="478" type="line"/>
      <point x="410.333" y="587.333" type="line"/>
      <point x="398.618" y="597.667"/>
      <point x="343.84" y="612"/>
      <point x="314" y="612" type="curve"/>
      <point x="314" y="395" type="line"/>
      <point x="391.333" y="373.333"/>
      <point x="524" y="334"/>
      <point x="524" y="199.333" type="curve" smooth="yes"/>
      <point x="524" y="86.8944"/>
      <point x="431.532" y="14.2895"/>
      <point x="313.667" y="0" type="curve"/>
      <point x="313.667" y="-103" type="line"/>
      <point x="259" y="-103" type="line"/>
      <point x="259" y="-0.666667" type="line"/>
      <point x="235.333" y="0.666667"/>
      <point x="132" y="6"/>
    </contour>
    <contour>
      <point x="180.333" y="510" type="curve" smooth="yes"/>
      <point x="180.333" y="459"/>
      <point x="219" y="419.667"/>
      <point x="259.667" y="409" type="curve"/>
      <point x="259.667" y="608.667" type="line"/>
      <point x="215" y="600.333"/>
      <point x="180.333" y="560.333"/>
    </contour>
    <contour>
      <point x="314" y="61" type="line"/>
      <point x="363.667" y="64"/>
      <point x="409.333" y="112.667"/>
      <point x="409.333" y="169.667" type="curve" smooth="yes"/>
      <point x="409.333" y="238.333"/>
      <point x="355.333" y="262.333"/>
      <point x="314" y="274.667" type="curve"/>
    </contour>
  </outline>
</glyph>
<glyph name="parenleft" format="2">
  <advance width="386"/>
  <unicode hex="0028"/>
  <outline>
    <contour>
      <point x="353" y="-142" type="line"/>
      <point x="159.749" y="-131.488"/>
      <point x="59" y="27.4308"/>
      <point x="59" y="288" type="curve" smooth="yes"/>
      <point x="59" y="547.822"/>
      <point x="160.249" y="706.047"/>
      <point x="353" y="717" type="curve"/>
      <point x="353" y="666.333" type="line"/>
      <point x="215.435" y="646.269"/>
      <point x="174.667" y="505.083"/>
      <point x="174.667" y="288" type="curve" smooth="yes"/>
      <point x="174.667" y="70.7784"/>
      <point x="215.483" y="-71.2771"/>
      <point x="353" y="-91.3333" type="curve"/>
    </contour>
  </outline>
</glyph>
<glyph name="hyphen" format="2">
  <advance width="325"/>
  <unicode hex="002D"/>
  <outline>
    <contour>
      <point x="36.6667" y="193" type="line"/>
      <point x="36.6667" y="288.667" type="line"/>
      <point x="288.667" y="288.667" type="line"/>
      <point x="288.667" y="193" type="line"/>
    </contour>
  </outline>
</glyph>
<glyph name="one" format="2">
  <advance width="578"/>
  <unicode hex="0031"/>
  <outline>
    <contour>
      <point x="74.6667" y="562.333" type="line"/>
      <point x="74.6667" y="612.667" type="line"/>
      <point x="290.667" y="687" type="line"/>
      <point x="352.667" y="687" type="line"/>
      <point x="352.667" y="75" type="line" smooth="yes"/>
      <point x="352.667" y="63"/>
      <point x="362.667" y="53.6667"/>
      <point x="374.667" y="53" type="curve" smooth="yes"/>
      <point x="458.667" y="49.6667" type="line"/>
      <point x="458.667" y="0" type="line"/>
      <point x="112.667" y="0" type="line"/>
      <point x="112.667" y="49.6667" type="line"/>
      <point x="203.667" y="53" type="line" smooth="yes"/>
      <point x="215.667" y="53.6667"/>
      <point x="225.667" y="63"/>
      <point x="225.667" y="75" type="curve" smooth="yes"/>
      <point x="225.667" y="585.333" type="line"/>
    </contour>
  </outline>
</glyph>
<glyph name="eight" format="2">
  <advance width="578"/>
  <unicode hex="0038"/>
  <outline>
    <contour>
      <point x="37.3333" y="179.667" type="curve" smooth="yes"/>
      <point x="37.3333" y="254.206"/>
      <point x="83.8017" y="306.654"/>
      <point x="177.667" y="338.333" type="curve"/>
      <point x="111.44" y="363.612"/>
      <point x="64.3333" y="425.867"/>
      <point x="64.3333" y="489" type="curve" smooth="yes"/>
      <point x="64.3333" y="610.257"/>
      <point x="155.305" y="686.667"/>
      <point x="299" y="686.667" type="curve" smooth="yes"/>
      <point x="424.365" y="686.667"/>
      <point x="515" y="613.247"/>
      <point x="515" y="512" type="curve" smooth="yes"/>
      <point x="515" y="445.071"/>
      <point x="474.709" y="393.045"/>
      <point x="392" y="355.333" type="curve"/>
      <point x="483.495" y="328.081"/>
      <point x="541.333" y="261.115"/>
      <point x="541.333" y="182.667" type="curve" smooth="yes"/>
      <point x="541.333" y="64.0684"/>
      <point x="437.219" y="-17"/>
      <point x="285" y="-17" type="curve" smooth="yes"/>
      <point x="139.95" y="-17"/>
      <point x="37.3333" y="64.4418"/>
    </contour>
    <contour>
      <point x="153.667" y="190" type="curve" smooth="yes"/>
      <point x="153.667" y="106.791"/>
      <point x="211.54" y="44.6667"/>
      <point x="290.333" y="44.6667" type="curve" smooth="yes"/>
      <point x="364.048" y="44.6667"/>
      <point x="417" y="90.0434"/>
      <point x="417" y="153.333" type="curve" smooth="yes"/>
      <point x="417" y="217.936"/>
      <point x="352.276" y="271.664"/>
      <point x="222.333" y="315" type="curve"/>
      <point x="177.062" y="283.4"/>
      <point x="153.667" y="240.431"/>
    </contour>
    <contour>
      <point x="189" y="525.667" type="curve" smooth="yes"/>
      <point x="189" y="463.883"/>
      <point x="232.335" y="423.247"/>
      <point x="345.667" y="377.667" type="curve"/>
      <point x="382.011" y="411.043"/>
      <point x="402.667" y="456.374"/>
      <point x="402.667" y="503.667" type="curve" smooth="yes"/>
      <point x="402.667" y="574.986"/>
      <point x="355.054" y="627.667"/>
      <point x="291.333" y="627.667" type="curve" smooth="yes"/>
      <point x="234.209" y="627.667"/>
      <point x="189" y="582.602"/>
    </contour>
  </outline>
</glyph>
<glyph name="colon" format="2">
  <advance width="304"/>
  <unicode hex="003A"/>
  <outline>
    <contour>
      <point x="62.3333" y="65.6667" type="curve" smooth="yes"/>
      <point x="62.3333" y="109.115"/>
      <point x="97.5917" y="144"/>
      <point x="140.667" y="144" type="curve" smooth="yes"/>
      <point x="184.667" y="144"/>
      <point x="218.667" y="109"/>
      <point x="218.667" y="65.6667" type="curve" smooth="yes"/>
      <point x="218.667" y="22.3333"/>
      <point x="184.667" y="-12"/>
      <point x="140.667" y="-12" type="curve" smooth="yes"/>
      <point x="97.3333" y="-12"/>
      <point x="62.3333" y="22.3333"/>
    </contour>
    <contour>
      <point x="62.3333" y="419.667" type="curve" smooth="yes"/>
      <point x="62.3333" y="463.115"/>
      <point x="97.5917" y="498"/>
      <point x="140.667" y="498" type="curve" smooth="yes"/>
      <point x="184.667" y="498"/>
      <point x="218.667" y="463"/>
      <point x="218.667" y="419.667" type="curve" smooth="yes"/>
      <point x="218.667" y="375.667"/>
      <point x="184.667" y="342"/>
      <point x="140.667" y="342" type="curve" smooth="yes"/>
      <point x="97.3333" y="342"/>
      <point x="62.3333" y="375.667"/>
    </contour>
  </outline>
</glyph>
<glyph name="question" format="2">
  <advance width="509"/>
  <unicode hex="003F"/>
  <outline>
    <contour>
      <point x="46.3333" y="574.667" type="curve" smooth="yes"/>
      <point x="46.3333" y="640.598"/>
      <point x="119.322" y="687"/>
      <point x="224" y="687" type="curve" smooth="yes"/>
      <point x="354.781" y="687"/>
      <point x="444.333" y="611.175"/>
      <point x="444.333" y="500.667" type="curve" smooth="yes"/>
      <point x="444.333" y="355.749"/>
      <point x="280.1" y="304.069"/>
      <point x="236.333" y="285.667" type="curve"/>
      <point x="236.333" y="192" type="line"/>
      <point x="172.333" y="192" type="line"/>
      <point x="172.333" y="329" type="line"/>
      <point x="203.14" y="339.809"/>
      <point x="317.333" y="381.629"/>
      <point x="317.333" y="499.333" type="curve" smooth="yes"/>
      <point x="317.333" y="582.964"/>
      <point x="269.062" y="630"/>
      <point x="182.333" y="630" type="curve"/>
      <point x="138.667" y="516" type="line"/>
      <point x="137.129" y="515.616"/>
      <point x="133.538" y="514"/>
      <point x="125.333" y="514" type="curve" smooth="yes"/>
      <point x="74.7099" y="514"/>
      <point x="46.3333" y="535.738"/>
    </contour>
    <contour>
      <point x="134" y="62.3333" type="curve" smooth="yes"/>
      <point x="134" y="103.667"/>
      <point x="165" y="136"/>
      <point x="205.667" y="136" type="curve" smooth="yes"/>
      <point x="248" y="136"/>
      <point x="280.333" y="102.333"/>
      <point x="280.333" y="59.3333" type="curve" smooth="yes"/>
      <point x="280.333" y="19.0941"/>
      <point x="246.762" y="-12.3333"/>
      <point x="205" y="-12.3333" type="curve" smooth="yes"/>
      <point x="165.427" y="-12.3333"/>
      <point x="134" y="21.2377"/>
    </contour>
  </outline>
</glyph>
<glyph name="P" format="2">
  <advance width="600"/>
  <unicode hex="0050"/>
  <outline>
    <contour>
      <point x="23.6667" y="622.667" type="line"/>
      <point x="23.6667" y="671" type="line"/>
      <point x="290" y="671" type="line" smooth="yes"/>
      <point x="435" y="671"/>
      <point x="563.333" y="640"/>
      <point x="563.333" y="468.333" type="curve" smooth="yes"/>
      <point x="563.333" y="306.015"/>
      <point x="438.738" y="247.667"/>
      <point x="305.667" y="247.667" type="curve" smooth="yes"/>
      <point x="284.102" y="247.667"/>
      <point x="258.794" y="248.342"/>
      <point x="234" y="250.333" type="curve"/>
      <point x="234" y="75" type="line" smooth="yes"/>
      <point x="234" y="62.3333"/>
      <point x="243.661" y="53.9094"/>
      <point x="255.667" y="53" type="curve" smooth="yes"/>
      <point x="319.667" y="48.3333" type="line"/>
      <point x="319.667" y="0" type="line"/>
      <point x="28" y="0" type="line"/>
      <point x="28" y="48.3333" type="line"/>
      <point x="82.3333" y="53" type="line" smooth="yes"/>
      <point x="94.3357" y="53.9687"/>
      <point x="105" y="62.3333"/>
      <point x="105" y="75" type="curve" smooth="yes"/>
      <point x="105" y="596" type="line" smooth="yes"/>
      <point x="105" y="608.667"/>
      <point x="94.3378" y="617.066"/>
      <point x="82.3333" y="618" type="curve" smooth="yes"/>
    </contour>
    <contour>
      <point x="234" y="307.333" type="line"/>
      <point x="244.333" y="305.667"/>
      <point x="258" y="305"/>
      <point x="270.667" y="305" type="curve" smooth="yes"/>
      <point x="369.333" y="305"/>
      <point x="429.333" y="351.333"/>
      <point x="429.333" y="464.667" type="curve" smooth="yes"/>
      <point x="429.333" y="563.667"/>
      <point x="375.667" y="614"/>
      <point x="288.333" y="614" type="curve" smooth="yes"/>
      <point x="272.697" y="614"/>
      <point x="248.296" y="613.108"/>
      <point x="234" y="612" type="curve"/>
    </contour>
  </outline>
</glyph>
<glyph name="Q" format="2">
  <advance width="749"/>
  <unicode hex="0051"/>
  <outline>
    <contour>
      <point x="37.6667" y="337.333" type="curve" smooth="yes"/>
      <point x="37.6667" y="546.828"/>
      <point x="171.987" y="686.333"/>
      <point x="372.667" y="686.333" type="curve" smooth="yes"/>
      <point x="571.093" y="686.333"/>
      <point x="713.333" y="538.761"/>
      <point x="713.333" y="332.333" type="curve" smooth="yes"/>
      <point x="713.333" y="156.394"/>
      <point x="608.059" y="21.0097"/>
      <point x="446.667" y="-9.66667" type="curve"/>
      <point x="446.992" y="-79.7069"/>
      <point x="500.627" y="-124.667"/>
      <point x="583.333" y="-124.667" type="curve" smooth="yes"/>
      <point x="614.838" y="-124.667"/>
      <point x="648.242" y="-120.556"/>
      <point x="677.667" y="-113" type="curve"/>
      <point x="677.667" y="-162.667" type="line"/>
      <point x="613.553" y="-177.571"/>
      <point x="561.225" y="-184.333"/>
      <point x="510.333" y="-184.333" type="curve" smooth="yes"/>
      <point x="378.832" y="-184.333"/>
      <point x="312.667" y="-126.866"/>
      <point x="312" y="-12.3333" type="curve"/>
      <point x="140.817" y="17.0984"/>
      <point x="37.6667" y="148.402"/>
    </contour>
    <contour>
      <point x="183.667" y="336.333" type="curve" smooth="yes"/>
      <point x="183.667" y="160.714"/>
      <point x="258.953" y="44"/>
      <point x="372.667" y="44" type="curve" smooth="yes"/>
      <point x="489.318" y="44"/>
      <point x="567" y="158.083"/>
      <point x="567" y="329.667" type="curve" smooth="yes"/>
      <point x="567" y="507.939"/>
      <point x="493.54" y="623"/>
      <point x="379" y="623" type="curve" smooth="yes"/>
      <point x="258.75" y="623"/>
      <point x="183.667" y="512.365"/>
    </contour>
  </outline>
</glyph>
<glyph name="bracketright" format="2">
  <advance width="533"/>
  <unicode hex="005D"/>
  <outline>
    <contour>
      <point x="38.6667" y="-78" type="line"/>
      <point x="193" y="-78" type="line"/>
      <point x="193" y="653" type="line"/>
      <point x="38.6667" y="653" type="line"/>
      <point x="38.6667" y="708" type="line"/>
      <point x="304.667" y="708" type="line"/>
      <point x="304.667" y="-132" type="line"/>
      <point x="38.6667" y="-132" type="line"/>
    </contour>
  </outline>
</glyph>
<glyph name="grave" format="2">
  <advance width="366"/>
  <unicode hex="0060"/>
  <outline>
    <contour>
      <point x="-0.333333" y="683.667" type="curve" smooth="yes"/>
      <point x="-0.333333" y="709"/>
      <point x="15" y="734"/>
      <point x="53" y="734" type="curve" smooth="yes"/>
      <point x="81" y="734"/>
      <point x="93" y="725.667"/>
      <point x="113" y="703.667" type="curve" smooth="yes"/>
      <point x="248.667" y="551.333" type="line"/>
      <point x="183" y="551.333" type="line"/>
      <point x="24.3333" y="642.333" type="line" smooth="yes"/>
      <point x="10.3333" y="650.667"/>
      <point x="-0.333333" y="669"/>
    </contour>
  </outline>
</glyph>
<glyph name="b" format="2">
  <advance width="584"/>
  <unicode hex="0062"/>
  <outline>
    <contour>
      <point x="18" y="654.333" type="line"/>
      <point x="18" y="692.667" type="line"/>
      <point x="163" y="739" type="line"/>
      <point x="210.333" y="739" type="line"/>
      <point x="210.333" y="455.333" type="line"/>
      <point x="248.953" y="480.613"/>
      <point x="299.515" y="498.333"/>
      <point x="352.667" y="498.333" type="curve" smooth="yes"/>
      <point x="468" y="498.333"/>
      <point x="550.667" y="410"/>
      <point x="550.667" y="270.667" type="curve" smooth="yes"/>
      <point x="550.667" y="109.667"/>
      <point x="443.667" y="0"/>
      <point x="260" y="0" type="curve" smooth="yes"/>
      <point x="90" y="0" type="line"/>
      <point x="90" y="654.333" type="line"/>
    </contour>
    <contour>
      <point x="210.333" y="56.3333" type="line"/>
      <point x="218.333" y="54.3333"/>
      <point x="231" y="52.3333"/>
      <point x="240.333" y="52.3333" type="curve" smooth="yes"/>
      <point x="358" y="52.3333"/>
      <point x="420" y="105.333"/>
      <point x="420" y="244" type="curve" smooth="yes"/>
      <point x="420" y="354"/>
      <point x="371" y="423.333"/>
      <point x="273" y="423.333" type="curve" smooth="yes"/>
      <point x="247" y="423.333"/>
      <point x="225.667" y="418.667"/>
      <point x="210.333" y="414" type="curve"/>
    </contour>
  </outline>
</glyph>
<glyph name="f" format="2">
  <advance width="340"/>
  <unicode hex="0066"/>
  <outline>
    <contour>
      <point x="23.6667" y="0" type="line"/>
      <point x="23.6667" y="44.3333" type="line"/>
      <point x="74" y="47.6667" type="line" smooth="yes"/>
      <point x="85.6667" y="48.6667"/>
      <point x="95.6667" y="58"/>
      <point x="95.6667" y="69.6667" type="curve" smooth="yes"/>
      <point x="95.6667" y="415" type="line"/>
      <point x="31" y="415" type="line"/>
      <point x="31" y="453.333" type="line"/>
      <point x="95" y="481.333" type="line"/>
      <point x="95" y="545.667"/>
      <point x="113.667" y="598"/>
      <point x="146.333" y="643" type="curve"/>
      <point x="183.333" y="697.667"/>
      <point x="242" y="738.333"/>
      <point x="317" y="738.333" type="curve" smooth="yes"/>
      <point x="358" y="738.333"/>
      <point x="410" y="717"/>
      <point x="410" y="665.333" type="curve" smooth="yes"/>
      <point x="410" y="638.536"/>
      <point x="388.99" y="615.43"/>
      <point x="353.333" y="603.667" type="curve"/>
      <point x="256.333" y="687.333" type="line"/>
      <point x="228.333" y="659.333"/>
      <point x="215.333" y="619"/>
      <point x="215.333" y="534.667" type="curve" smooth="yes"/>
      <point x="215.333" y="474.667" type="line"/>
      <point x="329.333" y="474.667" type="line"/>
      <point x="329.333" y="415" type="line"/>
      <point x="216" y="415" type="line"/>
      <point x="216" y="69.6667" type="line" smooth="yes"/>
      <point x="216" y="58"/>
      <point x="225.333" y="48"/>
      <point x="237.667" y="47.6667" type="curve"/>
      <point x="298" y="44.3333" type="line"/>
      <point x="298" y="0" type="line"/>
    </contour>
  </outline>
</glyph>
<glyph name="j" format="2">
  <advance width="313"/>
  <unicode hex="006A"/>
  <outline>
    <contour>
      <point x="88.6667" y="657.667" type="curve" smooth="yes"/>
      <point x="88.6667" y="697.741"/>
      <point x="121.259" y="729.667"/>
      <point x="161.333" y="729.667" type="curve" smooth="yes"/>
      <point x="201.408" y="729.667"/>
      <point x="233.333" y="697.741"/>
      <point x="233.333" y="657.667" type="curve" smooth="yes"/>
      <point x="233.333" y="617.592"/>
      <point x="201.408" y="585"/>
      <point x="161.333" y="585" type="curve" smooth="yes"/>
      <point x="121.259" y="585"/>
      <point x="88.6667" y="617.592"/>
    </contour>
    <contour>
      <point x="-86.3333" y="-161.333" type="curve" smooth="yes"/>
      <point x="-86.3333" y="-126.333"/>
      <point x="-59.6667" y="-102.667"/>
      <point x="-29.3333" y="-97.3333" type="curve"/>
      <point x="68.3333" y="-185.667" type="line"/>
      <point x="101" y="-143"/>
      <point x="103" y="-44.3333"/>
      <point x="103" y="-10.3333" type="curve" smooth="yes"/>
      <point x="103" y="413.667" type="line"/>
      <point x="32" y="413.667" type="line"/>
      <point x="32" y="452" type="line"/>
      <point x="175" y="498" type="line"/>
      <point x="222.667" y="498" type="line"/>
      <point x="222.667" y="52.6667" type="line" smooth="yes"/>
      <point x="222.667" y="-100.455"/>
      <point x="160.086" y="-230.333"/>
      <point x="5.66667" y="-230.333" type="curve" smooth="yes"/>
      <point x="-44" y="-230.333"/>
      <point x="-86.3333" y="-207.333"/>
    </contour>
  </outline>
</glyph>
<glyph name="l" format="2">
  <advance width="321"/>
  <unicode hex="006C"/>
  <outline>
    <contour>
      <point x="28" y="654.333" type="line"/>
      <point x="28" y="692.667" type="line"/>
      <point x="172.667" y="739" type="line"/>
      <point x="220.333" y="739" type="line"/>
      <point x="220.333" y="69.6667" type="line" smooth="yes"/>
      <point x="220.333" y="58"/>
      <point x="230.333" y="48"/>
      <point x="242" y="47.3333" type="curve" smooth="yes"/>
      <point x="293.333" y="44.3333" type="line"/>
      <point x="293.333" y="0" type="line"/>
      <point x="28.3333" y="0" type="line"/>
      <point x="28.3333" y="44.3333" type="line"/>
      <point x="78.6667" y="47.3333" type="line" smooth="yes"/>
      <point x="90.3333" y="48"/>
      <point x="100.667" y="58"/>
      <point x="100.667" y="69.6667" type="curve" smooth="yes"/>
      <point x="100.667" y="654.333" type="line"/>
    </contour>
  </outline>
</glyph>
<glyph name="t" format="2">
  <advance width="363"/>
  <unicode hex="0074"/>
  <outline>
    <contour>
      <point x="25" y="426.667" type="line"/>
      <point x="25" y="464.333" type="line"/>
      <point x="99" y="505.667" type="line"/>
      <point x="150" y="611.667" type="line"/>
      <point x="210.667" y="611.667" type="line"/>
      <point x="210.667" y="486" type="line"/>
      <point x="350.333" y="486" type="line"/>
      <point x="350.333" y="426.667" type="line"/>
      <point x="210.667" y="426.667" type="line"/>
      <point x="210.667" y="152.333" type="line" smooth="yes"/>
      <point x="210.667" y="88"/>
      <point x="235.667" y="58"/>
      <point x="292" y="58" type="curve" smooth="yes"/>
      <point x="322.641" y="58"/>
      <point x="352.052" y="64.879"/>
      <point x="358" y="68.3333" type="curve"/>
      <point x="358" y="21.6667" type="line"/>
      <point x="346" y="16"/>
      <point x="278.667" y="-12"/>
      <point x="206.667" y="-12" type="curve" smooth="yes"/>
      <point x="121.667" y="-12"/>
      <point x="90.3333" y="25.3333"/>
      <point x="90.3333" y="107.333" type="curve" smooth="yes"/>
      <point x="90.3333" y="426.667" type="line"/>
    </contour>
  </outline>
</glyph>
<glyph name="v" format="2">
  <advance width="553"/>
  <unicode hex="0076"/>
  <outline>
    <contour>
      <point x="10" y="441.667" type="line"/>
      <point x="10" y="486" type="line"/>
      <point x="259" y="486" type="line"/>
      <point x="259" y="441.667" type="line"/>
      <point x="212.333" y="438.667" type="line"/>
      <point x="203.471" y="437.858"/>
      <point x="196.875" y="431.392"/>
      <point x="196.875" y="422.914" type="curve"/>
      <point x="196.875" y="420.921"/>
      <point x="197.236" y="418.821"/>
      <point x="198" y="416.667" type="curve" smooth="yes"/>
      <point x="300.667" y="127.667" type="line"/>
      <point x="414.333" y="416.667" type="line"/>
      <point x="415.034" y="418.529"/>
      <point x="415.356" y="420.385"/>
      <point x="415.356" y="422.184" type="curve"/>
      <point x="415.356" y="430.673"/>
      <point x="408.186" y="437.842"/>
      <point x="399.667" y="438.667" type="curve"/>
      <point x="356.667" y="441.667" type="line"/>
      <point x="356.667" y="486" type="line"/>
      <point x="544.333" y="486" type="line"/>
      <point x="544.333" y="441.667" type="line"/>
      <point x="488.667" y="435" type="line"/>
      <point x="315.667" y="0" type="line"/>
      <point x="228" y="0" type="line"/>
      <point x="67.6667" y="435.667" type="line"/>
    </contour>
  </outline>
</glyph>
<glyph name="braceright" format="2">
  <advance width="492"/>
  <unicode hex="007D"/>
  <outline>
    <contour>
      <point x="71.6667" y="-122.333" type="line"/>
      <point x="71.6667" y="-72" type="line"/>
      <point x="90.3333" y="-72" type="line" smooth="yes"/>
      <point x="163.793" y="-72"/>
      <point x="194.667" y="-31.2046"/>
      <point x="194.667" y="67" type="curve" smooth="yes"/>
      <point x="194.667" y="97.3333" type="line" smooth="yes"/>
      <point x="194.667" y="209.278"/>
      <point x="245.708" y="285.03"/>
      <point x="346.333" y="293.667" type="curve"/>
      <point x="346.333" y="289.667" type="line"/>
      <point x="254.701" y="297.249"/>
      <point x="194.667" y="360.721"/>
      <point x="194.667" y="479.667" type="curve" smooth="yes"/>
      <point x="194.667" y="508" type="line"/>
      <point x="194.187" y="609.658"/>
      <point x="163.395" y="653.487"/>
      <point x="90.3333" y="655" type="curve"/>
      <point x="71.6667" y="655" type="line"/>
      <point x="71.6667" y="705.333" type="line"/>
      <point x="90.3333" y="705.333" type="line"/>
      <point x="243.742" y="704.244"/>
      <point x="307.333" y="646.292"/>
      <point x="307.333" y="507.667" type="curve" smooth="yes"/>
      <point x="307.333" y="456.333" type="line" smooth="yes"/>
      <point x="307.333" y="358.328"/>
      <point x="339.807" y="320.276"/>
      <point x="424.667" y="319.333" type="curve"/>
      <point x="445.667" y="319.333" type="line"/>
      <point x="445.667" y="264.333" type="line"/>
      <point x="424.667" y="264.333" type="line"/>
      <point x="340.742" y="263.313"/>
      <point x="307.667" y="225.161"/>
      <point x="307.667" y="129.667" type="curve" smooth="yes"/>
      <point x="307.667" y="77" type="line" smooth="yes"/>
      <point x="307.667" y="-62.0906"/>
      <point x="243.974" y="-120.811"/>
      <point x="90.3333" y="-122.333" type="curve"/>
    </contour>
  </outline>
</glyph>
<glyph name="asciitilde" format="2">
  <advance width="833"/>
  <unicode hex="007E"/>
  <outline>
    <contour>
      <point x="85.6667" y="209" type="curve"/>
      <point x="85.6667" y="294" type="line"/>
      <point x="154.074" y="344.783"/>
      <point x="217.845" y="369"/>
      <point x="279.333" y="369" type="curve" smooth="yes"/>
      <point x="332" y="369"/>
      <point x="380.265" y="352.467"/>
      <point x="426" y="334.333" type="curve" smooth="yes"/>
      <point x="464.463" y="319.096"/>
      <point x="513.333" y="302"/>
      <point x="557" y="302" type="curve" smooth="yes"/>
      <point x="610.999" y="302"/>
      <point x="664.18" y="325.539"/>
      <point x="747" y="387" type="curve"/>
      <point x="747" y="302" type="line"/>
      <point x="675.239" y="251.505"/>
      <point x="621.482" y="228.333"/>
      <point x="555.333" y="228.333" type="curve" smooth="yes"/>
      <point x="505.667" y="228.333"/>
      <point x="459.534" y="243.976"/>
      <point x="415.667" y="261.667" type="curve" smooth="yes"/>
      <point x="371.121" y="279.636"/>
      <point x="324.333" y="295.333"/>
      <point x="273" y="295.333" type="curve" smooth="yes"/>
      <point x="219.11" y="295.333"/>
      <point x="157.138" y="263.226"/>
    </contour>
  </outline>
</glyph>
<glyph name="sterling" format="2">
  <advance width="578"/>
  <unicode hex="00A3"/>
  <outline>
    <contour>
      <point x="42.3333" y="0.333333" type="line"/>
      <point x="42.3333" y="71.3333" type="line"/>
      <point x="91.708" y="78.5968"/>
      <point x="147.333" y="119.92"/>
      <point x="147.333" y="256.667" type="curve" smooth="yes"/>
      <point x="147.333" y="307.667" type="line"/>
      <point x="77.3333" y="307.667" type="line"/>
      <point x="77.3333" y="366.667" type="line"/>
      <point x="146.667" y="366.667" type="line"/>
      <point x="146.074" y="379.272"/>
      <point x="143" y="419.256"/>
      <point x="143" y="450" type="curve" smooth="yes"/>
      <point x="143" y="595.581"/>
      <point x="212.404" y="703.667"/>
      <point x="369.333" y="703.667" type="curve" smooth="yes"/>
      <point x="440.924" y="703.667"/>
      <point x="536.667" y="669.554"/>
      <point x="536.667" y="588.667" type="curve" smooth="yes"/>
      <point x="536.667" y="546.667"/>
      <point x="500.667" y="523"/>
      <point x="462" y="523" type="curve" smooth="yes"/>
      <point x="446.667" y="523"/>
      <point x="425.333" y="529.667"/>
      <point x="421.333" y="530.667" type="curve"/>
      <point x="421.333" y="645.333" type="line"/>
      <point x="417" y="646.667"/>
      <point x="406.667" y="650.667"/>
      <point x="386" y="650.667" type="curve" smooth="yes"/>
      <point x="273.463" y="650.667"/>
      <point x="260.667" y="528"/>
      <point x="260.667" y="453.333" type="curve" smooth="yes"/>
      <point x="260.667" y="411.677"/>
      <point x="264.538" y="378.627"/>
      <point x="265.333" y="367" type="curve"/>
      <point x="448" y="367" type="line"/>
      <point x="448" y="308" type="line"/>
      <point x="266.667" y="308" type="line"/>
      <point x="266.667" y="238.333"/>
      <point x="257.333" y="180.381"/>
      <point x="206.333" y="129.333" type="curve" smooth="yes"/>
      <point x="193.667" y="116"/>
      <point x="177.667" y="103.667"/>
      <point x="159" y="91" type="curve"/>
      <point x="167.912" y="92.076"/>
      <point x="217.517" y="98.3333"/>
      <point x="230.667" y="98.3333" type="curve" smooth="yes"/>
      <point x="535.333" y="98.3333" type="line"/>
      <point x="535.333" y="0.333333" type="line"/>
    </contour>
  </outline>
</glyph>
<glyph name="yen" format="2">
  <advance width="621"/>
  <unicode hex="00A5"/>
  <outline>
    <contour>
      <point x="7.66667" y="622.667" type="line"/>
      <point x="7.66667" y="670.667" type="line"/>
      <point x="265.667" y="670.667" type="line"/>
      <point x="265.667" y="622.667" type="line"/>
      <point x="220.667" y="617.667" type="line" smooth="yes"/>
      <point x="213.251" y="616.74"/>
      <point x="206.057" y="610.649"/>
      <point x="206.057" y="602.667" type="curve" smooth="yes"/>
      <point x="206.057" y="600.59"/>
      <point x="206.895" y="597.803"/>
      <point x="208" y="595.667" type="curve" smooth="yes"/>
      <point x="335.333" y="349.667" type="line"/>
      <point x="469" y="592" type="line"/>
      <point x="470.208" y="594.415"/>
      <point x="471.064" y="597.424"/>
      <point x="471.064" y="600.333" type="curve" smooth="yes"/>
      <point x="471.064" y="606.119"/>
      <point x="467.008" y="611.847"/>
      <point x="456.333" y="614.333" type="curve"/>
      <point x="407.667" y="623.667" type="line"/>
      <point x="407.667" y="671" type="line"/>
      <point x="614" y="671" type="line"/>
      <point x="614" y="623" type="line"/>
      <point x="557.333" y="611.333" type="line"/>
      <point x="455.333" y="429.333" type="line"/>
      <point x="589" y="429.333" type="line"/>
      <point x="589" y="380" type="line"/>
      <point x="426.333" y="380" type="line"/>
      <point x="372.333" y="283.333" type="line"/>
      <point x="589" y="283.333" type="line"/>
      <point x="589" y="234.667" type="line"/>
      <point x="374.667" y="234.667" type="line"/>
      <point x="374.667" y="75.3333" type="line" smooth="yes"/>
      <point x="374.667" y="67"/>
      <point x="384.667" y="55"/>
      <point x="400.667" y="53.3333" type="curve" smooth="yes"/>
      <point x="459.333" y="48.3333" type="line"/>
      <point x="459.333" y="-0.333333" type="line"/>
      <point x="165.667" y="-0.333333" type="line"/>
      <point x="165.667" y="48.3333" type="line"/>
      <point x="225.333" y="53.3333" type="line" smooth="yes"/>
      <point x="242" y="55"/>
      <point x="250.333" y="66.6667"/>
      <point x="250.333" y="75.3333" type="curve" smooth="yes"/>
      <point x="250.333" y="234.667" type="line"/>
      <point x="35.6667" y="234.667" type="line"/>
      <point x="35.6667" y="283.333" type="line"/>
      <point x="241.667" y="283.333" type="line"/>
      <point x="191.667" y="380" type="line"/>
      <point x="35.6667" y="380" type="line"/>
      <point x="35.6667" y="429.333" type="line"/>
      <point x="162.333" y="429.333" type="line"/>
      <point x="68" y="612" type="line"/>
    </contour>
  </outline>
</glyph>
<glyph name="dieresis" format="2">
  <advance width="337"/>
  <unicode hex="00A8"/>
  <outline>
    <contour>
      <point x="0" y="649.333" type="curve" smooth="yes"/>
      <point x="0" y="685"/>
      <point x="28.6667" y="714"/>
      <point x="64.3333" y="714" type="curve" smooth="yes"/>
      <point x="100" y="714"/>
      <point x="128.333" y="685"/>
      <point x="128.333" y="649.667" type="curve" smooth="yes"/>
      <point x="128.333" y="614"/>
      <point x="100" y="585"/>
      <point x="64.3333" y="585" type="curve" smooth="yes"/>
      <point x="28.6667" y="585"/>
      <point x="0" y="613.667"/>
    </contour>
    <contour>
      <point x="209" y="649.667" type="curve" smooth="yes"/>
      <point x="209" y="685"/>
      <point x="238.333" y="714"/>
      <point x="273.667" y="714" type="curve" smooth="yes"/>
      <point x="309" y="714"/>
      <point x="337.333" y="685.333"/>
      <point x="337.333" y="649.667" type="curve" smooth="yes"/>
      <point x="337.333" y="614"/>
      <point x="309.333" y="585"/>
      <point x="273.667" y="585" type="curve" smooth="yes"/>
      <point x="237.667" y="585"/>
      <point x="209" y="613.667"/>
    </contour>
  </outline>
</glyph>
<glyph name="copyright" format="2">
  <advance width="836"/>
  <unicode hex="00A9"/>
  <outline>
    <contour>
      <point x="33" y="349.667" type="curve" smooth="yes"/>
      <point x="33" y="566.667"/>
      <point x="202.333" y="738"/>
      <point x="419.333" y="738" type="curve" smooth="yes"/>
      <point x="634.667" y="738"/>
      <point x="805.333" y="566.667"/>
      <point x="805.333" y="350" type="curve" smooth="yes"/>
      <point x="805.333" y="132.667"/>
      <point x="635" y="-38.3333"/>
      <point x="417.667" y="-38.3333" type="curve" smooth="yes"/>
      <point x="203.333" y="-38.3333"/>
      <point x="33" y="132.667"/>
    </contour>
    <contour>
      <point x="79.3333" y="348.667" type="curve" smooth="yes"/>
      <point x="79.3333" y="159"/>
      <point x="228.333" y="7"/>
      <point x="418.333" y="7" type="curve" smooth="yes"/>
      <point x="609" y="7"/>
      <point x="759" y="160"/>
      <point x="759" y="350" type="curve" smooth="yes"/>
      <point x="759" y="541.333"/>
      <point x="609.333" y="692.667"/>
      <point x="419.333" y="692.667" type="curve" smooth="yes"/>
      <point x="230.667" y="692.667"/>
      <point x="79.3333" y="543"/>
    </contour>
    <contour>
      <point x="196.333" y="350" type="curve" smooth="yes"/>
      <point x="196.333" y="485"/>
      <point x="292" y="585"/>
      <point x="443.333" y="585" type="curve" smooth="yes"/>
      <point x="521.333" y="585"/>
      <point x="570" y="563"/>
      <point x="584.333" y="558.667" type="curve"/>
      <point x="584.333" y="438.333" type="line"/>
      <point x="532" y="438.333" type="line"/>
      <point x="517.667" y="517" type="line"/>
      <point x="507.333" y="525"/>
      <point x="482" y="536"/>
      <point x="456" y="536" type="curve" smooth="yes"/>
      <point x="351" y="536"/>
      <point x="303.333" y="442.333"/>
      <point x="303.333" y="349.667" type="curve" smooth="yes"/>
      <point x="303.333" y="245.333"/>
      <point x="357.333" y="162.667"/>
      <point x="450.667" y="162.667" type="curve" smooth="yes"/>
      <point x="485.333" y="162.667"/>
      <point x="506" y="171.333"/>
      <point x="518.333" y="178.333" type="curve"/>
      <point x="532.333" y="264" type="line"/>
      <point x="584.333" y="264" type="line"/>
      <point x="584.333" y="138.667" type="line"/>
      <point x="571.05" y="134.579"/>
      <point x="515.599" y="114"/>
      <point x="440" y="114" type="curve" smooth="yes"/>
      <point x="297" y="114"/>
      <point x="196.333" y="202.667"/>
    </contour>
  </outline>
</glyph>
<glyph name="uni00AD" format="2">
  <advance width="325"/>
  <unicode hex="00AD"/>
  <outline>
    <contour>
      <point x="36.6667" y="193" type="line"/>
      <point x="36.6667" y="288.667" type="line"/>
      <point x="288.667" y="288.667" type="line"/>
      <point x="288.667" y="193" type="line"/>
    </contour>
  </outline>
</glyph>
<glyph name="registered" format="2">
  <advance width="836"/>
  <unicode hex="00AE"/>
  <outline>
    <contour>
      <point x="32.3333" y="350.333" type="curve" smooth="yes"/>
      <point x="32.3333" y="567.242"/>
      <point x="201.802" y="738.667"/>
      <point x="418.667" y="738.667" type="curve" smooth="yes"/>
      <point x="633.691" y="738.667"/>
      <point x="804.667" y="567.597"/>
      <point x="804.667" y="350.333" type="curve" smooth="yes"/>
      <point x="804.667" y="132.956"/>
      <point x="634.025" y="-37.3333"/>
      <point x="416.667" y="-37.3333" type="curve" smooth="yes"/>
      <point x="202.49" y="-37.3333"/>
      <point x="32.3333" y="133.65"/>
    </contour>
    <contour>
      <point x="79" y="348.667" type="curve" smooth="yes"/>
      <point x="79" y="159.415"/>
      <point x="228.026" y="8"/>
      <point x="418" y="8" type="curve" smooth="yes"/>
      <point x="608.81" y="8"/>
      <point x="758.333" y="160.059"/>
      <point x="758.333" y="350.333" type="curve" smooth="yes"/>
      <point x="758.333" y="542.206"/>
      <point x="608.982" y="693.667"/>
      <point x="418.667" y="693.667" type="curve" smooth="yes"/>
      <point x="228.369" y="693.667"/>
      <point x="79" y="544.406"/>
    </contour>
    <contour>
      <point x="210" y="142" type="line"/>
      <point x="210" y="173.333" type="line"/>
      <point x="246" y="176.333" type="line"/>
      <point x="253.343" y="177.211"/>
      <point x="261" y="182.333"/>
      <point x="261" y="191" type="curve" smooth="yes"/>
      <point x="261" y="531" type="line" smooth="yes"/>
      <point x="261" y="539"/>
      <point x="253.343" y="544.122"/>
      <point x="246" y="545" type="curve" smooth="yes"/>
      <point x="210" y="548.667" type="line"/>
      <point x="210" y="580" type="line"/>
      <point x="420" y="580" type="line" smooth="yes"/>
      <point x="483.817" y="580"/>
      <point x="574" y="562.394"/>
      <point x="574" y="469" type="curve" smooth="yes"/>
      <point x="574" y="386.667"/>
      <point x="500.667" y="364.333"/>
      <point x="457.667" y="356.667" type="curve"/>
      <point x="525.526" y="342.077"/>
      <point x="544.066" y="300.641"/>
      <point x="556.219" y="253.333" type="curve" smooth="yes"/>
      <point x="568.739" y="203.044"/>
      <point x="584.519" y="173.333"/>
      <point x="657.333" y="173.333" type="curve"/>
      <point x="657.333" y="142.333" type="line"/>
      <point x="631.667" y="138.667"/>
      <point x="613.667" y="138"/>
      <point x="596.667" y="138" type="curve" smooth="yes"/>
      <point x="509.144" y="138"/>
      <point x="488.917" y="187.557"/>
      <point x="470.235" y="241.333" type="curve" smooth="yes"/>
      <point x="453.115" y="291.833"/>
      <point x="436.326" y="335"/>
      <point x="368.333" y="335" type="curve" smooth="yes"/>
      <point x="348.667" y="335" type="line"/>
      <point x="348.667" y="191" type="line" smooth="yes"/>
      <point x="348.667" y="182.667"/>
      <point x="355.988" y="177.185"/>
      <point x="363.667" y="176.333" type="curve"/>
      <point x="401" y="173.333" type="line"/>
      <point x="401" y="142" type="line"/>
    </contour>
    <contour>
      <point x="348.667" y="364" type="line"/>
      <point x="359.091" y="363.333"/>
      <point x="371.881" y="363.333"/>
      <point x="375.667" y="363.333" type="curve" smooth="yes"/>
      <point x="427" y="363.333"/>
      <point x="481.667" y="378.667"/>
      <point x="481.667" y="452.333" type="curve" smooth="yes"/>
      <point x="481.667" y="511.667"/>
      <point x="440.333" y="536.333"/>
      <point x="374" y="536.333" type="curve" smooth="yes"/>
      <point x="348.667" y="536.333" type="line"/>
    </contour>
  </outline>
</glyph>
<glyph name="macron" format="2">
  <advance width="337"/>
  <unicode hex="00AF"/>
  <outline>
    <contour>
      <point x="0" y="586" type="line"/>
      <point x="0" y="661" type="line"/>
      <point x="338.333" y="661" type="line"/>
      <point x="338.333" y="586" type="line"/>
    </contour>
  </outline>
</glyph>
<glyph name="degree" format="2">
  <advance width="319"/>
  <unicode hex="00B0"/>
  <outline>
    <contour>
      <point x="50" y="609.333" type="curve" smooth="yes"/>
      <point x="50" y="670.836"/>
      <point x="98.1" y="719.667"/>
      <point x="159.667" y="719.667" type="curve" smooth="yes"/>
      <point x="221.169" y="719.667"/>
      <point x="270" y="671.567"/>
      <point x="270" y="610" type="curve" smooth="yes"/>
      <point x="270" y="548.497"/>
      <point x="221.9" y="499.667"/>
      <point x="160.333" y="499.667" type="curve" smooth="yes"/>
      <point x="98.8307" y="499.667"/>
      <point x="50" y="547.767"/>
    </contour>
    <contour>
      <point x="90" y="610" type="curve" smooth="yes"/>
      <point x="90" y="570.667"/>
      <point x="120.667" y="540"/>
      <point x="160" y="540" type="curve" smooth="yes"/>
      <point x="199.333" y="540"/>
      <point x="230" y="570.667"/>
      <point x="230" y="610" type="curve" smooth="yes"/>
      <point x="230" y="649.333"/>
      <point x="199.333" y="680"/>
      <point x="160" y="680" type="curve" smooth="yes"/>
      <point x="120.667" y="680"/>
      <point x="90" y="649.333"/>
    </contour>
  </outline>
</glyph>
<glyph name="acute" format="2">
  <advance width="367"/>
  <unicode hex="00B4"/>
  <outline>
    <contour>
      <point x="118" y="551" type="line"/>
      <point x="253.333" y="703.333" type="line" smooth="yes"/>
      <point x="273" y="725.333"/>
      <point x="285.333" y="733.667"/>
      <point x="313" y="733.667" type="curve" smooth="yes"/>
      <point x="351.553" y="733.667"/>
      <point x="367.333" y="708.863"/>
      <point x="367.333" y="683.333" type="curve" smooth="yes"/>
      <point x="367.333" y="668.333"/>
      <point x="355.333" y="649.667"/>
      <point x="342.333" y="642" type="curve" smooth="yes"/>
      <point x="183.333" y="551" type="line"/>
    </contour>
  </outline>
</glyph>
<glyph name="mu" format="2">
  <advance width="570"/>
  <unicode hex="00B5"/>
  <outline>
    <contour>
      <point x="58" y="-163.667" type="curve" smooth="yes"/>
      <point x="58" y="-134.496"/>
      <point x="63.2694" y="-116.488"/>
      <point x="69.2685" y="-95.6236" type="curve" smooth="yes"/>
      <point x="78.4885" y="-65.6944"/>
      <point x="90" y="-27.6923"/>
      <point x="90" y="77.6667" type="curve" smooth="yes"/>
      <point x="90" y="486" type="line"/>
      <point x="205" y="486" type="line"/>
      <point x="205" y="174.333" type="line" smooth="yes"/>
      <point x="205" y="114.996"/>
      <point x="216.468" y="57.6667"/>
      <point x="265.667" y="57.6667" type="curve" smooth="yes"/>
      <point x="306.409" y="57.6667"/>
      <point x="338.27" y="85.1444"/>
      <point x="364" y="123.667" type="curve"/>
      <point x="364" y="486.333" type="line"/>
      <point x="480.333" y="486.333" type="line"/>
      <point x="480.333" y="94.6667" type="line" smooth="yes"/>
      <point x="480.333" y="76.2803"/>
      <point x="486.715" y="51.6667"/>
      <point x="507" y="51.6667" type="curve" smooth="yes"/>
      <point x="529.508" y="51.6667"/>
      <point x="539.095" y="72.1852"/>
      <point x="547" y="115" type="curve"/>
      <point x="575" y="115" type="line"/>
      <point x="569.667" y="34.6667"/>
      <point x="535.667" y="-11.6667"/>
      <point x="460.333" y="-11.6667" type="curve" smooth="yes"/>
      <point x="417.667" y="-11.6667"/>
      <point x="384.333" y="23"/>
      <point x="369.667" y="74" type="curve"/>
      <point x="332.277" y="19.8346"/>
      <point x="292.916" y="-12"/>
      <point x="228.667" y="-12" type="curve" smooth="yes"/>
      <point x="202.333" y="-12"/>
      <point x="163.333" y="1.66667"/>
      <point x="148" y="28.6667" type="curve"/>
      <point x="148" y="6" type="line" smooth="yes"/>
      <point x="148" y="-34.2151"/>
      <point x="157.722" y="-70.3247"/>
      <point x="166.749" y="-100.305" type="curve" smooth="yes"/>
      <point x="173.027" y="-122.629"/>
      <point x="178" y="-143.642"/>
      <point x="178" y="-161.667" type="curve" smooth="yes"/>
      <point x="178" y="-195.667"/>
      <point x="144.667" y="-222"/>
      <point x="116" y="-222" type="curve" smooth="yes"/>
      <point x="90" y="-222"/>
      <point x="58" y="-196.333"/>
    </contour>
  </outline>
</glyph>
<glyph name="paragraph" format="2">
  <advance width="508"/>
  <unicode hex="00B6"/>
  <outline>
    <contour>
      <point x="27" y="471" type="curve" smooth="yes"/>
      <point x="27" y="621.333"/>
      <point x="118.667" y="671"/>
      <point x="269" y="671" type="curve" smooth="yes"/>
      <point x="481.667" y="671" type="line"/>
      <point x="481.667" y="621" type="line"/>
      <point x="419.667" y="611.667" type="line"/>
      <point x="419.667" y="-79" type="line"/>
      <point x="354.667" y="-79" type="line"/>
      <point x="354.667" y="615.333" type="line"/>
      <point x="288" y="615.333" type="line"/>
      <point x="288" y="273" type="line"/>
      <point x="133" y="273"/>
      <point x="27" y="314.333"/>
    </contour>
  </outline>
</glyph>
<glyph name="onequarter" format="2">
  <advance width="896"/>
  <unicode hex="00BC"/>
  <outline>
    <contour>
      <point x="44.6667" y="630.333" type="line"/>
      <point x="44.6667" y="660" type="line"/>
      <point x="185.667" y="703.333" type="line"/>
      <point x="225.667" y="703.333" type="line"/>
      <point x="225.667" y="341.333" type="line" smooth="yes"/>
      <point x="225.667" y="333.667"/>
      <point x="232.333" y="329"/>
      <point x="240" y="328.667" type="curve"/>
      <point x="294.333" y="324.667" type="line"/>
      <point x="294.333" y="295" type="line"/>
      <point x="69.6667" y="295" type="line"/>
      <point x="69.6667" y="324.667" type="line"/>
      <point x="129" y="328.667" type="line" smooth="yes"/>
      <point x="136.667" y="329"/>
      <point x="143" y="333.667"/>
      <point x="143" y="341.333" type="curve" smooth="yes"/>
      <point x="143" y="643.667" type="line"/>
    </contour>
    <contour>
      <point x="197" y="0" type="line"/>
      <point x="639.667" y="696" type="line"/>
      <point x="709.333" y="696" type="line"/>
      <point x="267" y="0" type="line"/>
    </contour>
    <contour>
      <point x="501" y="109.333" type="line"/>
      <point x="501" y="157.333" type="line"/>
      <point x="717" y="406" type="line"/>
      <point x="778.333" y="406" type="line"/>
      <point x="778.333" y="155.667" type="line"/>
      <point x="851.667" y="155.667" type="line"/>
      <point x="851.667" y="109.333" type="line"/>
      <point x="778.333" y="109.333" type="line"/>
      <point x="778.333" y="-19" type="line"/>
      <point x="704.333" y="-19" type="line"/>
      <point x="704.333" y="109.333" type="line"/>
    </contour>
    <contour>
      <point x="560.333" y="155.667" type="line"/>
      <point x="704.333" y="155.667" type="line"/>
      <point x="704.333" y="324.667" type="line"/>
    </contour>
  </outline>
</glyph>
<glyph name="Aacute" format="2">
  <advance width="682"/>
  <unicode hex="00C1"/>
  <outline>
    <contour>
      <point x="5" y="0" type="line"/>
      <point x="5" y="48.3333" type="line"/>
      <point x="61.6667" y="58" type="line"/>
      <point x="288.667" y="687.333" type="line"/>
      <point x="389.667" y="687.333" type="line"/>
      <point x="615" y="75" type="line"/>
      <point x="620.077" y="62.3623"/>
      <point x="623.018" y="58.4339"/>
      <point x="636.667" y="55.6667" type="curve" smooth="yes"/>
      <point x="677" y="48.3333" type="line"/>
      <point x="677" y="0" type="line"/>
      <point x="413.667" y="0" type="line"/>
      <point x="413.667" y="48.3333" type="line"/>
      <point x="472.333" y="55" type="line"/>
      <point x="478.237" y="55.9326"/>
      <point x="482.667" y="61.3809"/>
      <point x="482.667" y="67.6667" type="curve"/>
      <point x="482.667" y="68.889"/>
      <point x="482.465" y="70.9831"/>
      <point x="481.667" y="72" type="curve"/>
      <point x="422.667" y="239" type="line"/>
      <point x="203" y="239" type="line"/>
      <point x="144.333" y="75.6667" type="line"/>
      <point x="143.544" y="74.6641"/>
      <point x="143.333" y="72.3333"/>
      <point x="143.333" y="71" type="curve"/>
      <point x="143.333" y="62.6471"/>
      <point x="151.336" y="55.9714"/>
      <point x="158.333" y="55" type="curve" smooth="yes"/>
      <point x="215.333" y="48.3333" type="line"/>
      <point x="215.333" y="0" type="line"/>
    </contour>
    <contour>
      <point x="221.667" y="294" type="line"/>
      <point x="400" y="294" type="line"/>
      <point x="310" y="541.333" type="line"/>
    </contour>
    <contour>
      <point x="306.333" y="747.333" type="line"/>
      <point x="441.667" y="899.667" type="line" smooth="yes"/>
      <point x="461" y="921.333"/>
      <point x="474" y="930"/>
      <point x="501.333" y="930" type="curve" smooth="yes"/>
      <point x="539.886" y="930"/>
      <point x="555.667" y="905.196"/>
      <point x="555.667" y="879.667" type="curve" smooth="yes"/>
      <point x="555.667" y="864.667"/>
      <point x="543.671" y="845.994"/>
      <point x="530.667" y="838.333" type="curve" smooth="yes"/>
      <point x="371.667" y="747.333" type="line"/>
    </contour>
  </outline>
</glyph>
<glyph name="Aring" format="2">
  <advance width="682"/>
  <unicode hex="00C5"/>
  <outline>
    <contour>
      <point x="5" y="0" type="line"/>
      <point x="5" y="48.3333" type="line"/>
      <point x="61.6667" y="58" type="line"/>
      <point x="288.667" y="687.333" type="line"/>
      <point x="389.667" y="687.333" type="line"/>
      <point x="615" y="75" type="line"/>
      <point x="620.077" y="62.3623"/>
      <point x="623.018" y="58.4339"/>
      <point x="636.667" y="55.6667" type="curve" smooth="yes"/>
      <point x="677" y="48.3333" type="line"/>
      <point x="677" y="0" type="line"/>
      <point x="413.667" y="0" type="line"/>
      <point x="413.667" y="48.3333" type="line"/>
      <point x="472.333" y="55" type="line"/>
      <point x="478.237" y="55.9326"/>
      <point x="482.667" y="61.3809"/>
      <point x="482.667" y="67.6667" type="curve"/>
      <point x="482.667" y="68.889"/>
      <point x="482.002" y="71.052"/>
      <point x="481.667" y="72" type="curve"/>
      <point x="422.667" y="239" type="line"/>
      <point x="203" y="239" type="line"/>
      <point x="144.333" y="75.6667" type="line"/>
      <point x="144" y="74.7386"/>
      <point x="143.333" y="72.3333"/>
      <point x="143.333" y="71" type="curve"/>
      <point x="143.333" y="62.6471"/>
      <point x="151.336" y="55.9714"/>
      <point x="158.333" y="55" type="curve" smooth="yes"/>
      <point x="215.333" y="48.3333" type="line"/>
      <point x="215.333" y="0" type="line"/>
    </contour>
    <contour>
      <point x="215.333" y="798.667" type="curve" smooth="yes"/>
      <point x="215.333" y="822"/>
      <point x="270.333" y="843.333"/>
      <point x="339.667" y="843.333" type="curve" smooth="yes"/>
      <point x="409.667" y="843.333"/>
      <point x="464" y="822"/>
      <point x="464" y="798.667" type="curve" smooth="yes"/>
      <point x="464" y="775.333"/>
      <point x="410" y="754.333"/>
      <point x="340" y="754.333" type="curve" smooth="yes"/>
      <point x="270.667" y="754.333"/>
      <point x="215.333" y="775.333"/>
    </contour>
    <contour>
      <point x="221.667" y="294" type="line"/>
      <point x="400" y="294" type="line"/>
      <point x="310" y="541.333" type="line"/>
    </contour>
    <contour>
      <point x="274.333" y="798.667" type="curve" smooth="yes"/>
      <point x="274.333" y="788.667"/>
      <point x="303.667" y="780.333"/>
      <point x="339.667" y="780.333" type="curve" smooth="yes"/>
      <point x="376.333" y="780.333"/>
      <point x="403.667" y="788.667"/>
      <point x="403.667" y="798.667" type="curve" smooth="yes"/>
      <point x="403.667" y="808.667"/>
      <point x="376.333" y="817.667"/>
      <point x="339.667" y="817.667" type="curve" smooth="yes"/>
      <point x="303.667" y="817.667"/>
      <point x="274.333" y="808.667"/>
    </contour>
  </outline>
</glyph>
<glyph name="Ccedilla" format="2">
  <advance width="633"/>
  <unicode hex="00C7"/>
  <outline>
    <contour>
      <point x="37.6667" y="336" type="curve" smooth="yes"/>
      <point x="37.6667" y="542.101"/>
      <point x="183.101" y="687"/>
      <point x="389" y="687" type="curve" smooth="yes"/>
      <point x="454.108" y="687"/>
      <point x="497.878" y="678.438"/>
      <point x="597.333" y="645.667" type="curve"/>
      <point x="597.333" y="480" type="line"/>
      <point x="525.333" y="480" type="line"/>
      <point x="505.667" y="585" type="line" smooth="yes"/>
      <point x="502.2" y="605.57"/>
      <point x="457.967" y="623"/>
      <point x="409.667" y="623" type="curve" smooth="yes"/>
      <point x="268.988" y="623"/>
      <point x="181.333" y="512.011"/>
      <point x="181.333" y="335" type="curve" smooth="yes"/>
      <point x="181.333" y="156.351"/>
      <point x="272.532" y="45.3333"/>
      <point x="418.667" y="45.3333" type="curve" smooth="yes"/>
      <point x="466.432" y="45.3333"/>
      <point x="498.122" y="58.2005"/>
      <point x="501.667" y="79" type="curve" smooth="yes"/>
      <point x="524" y="194" type="line"/>
      <point x="596" y="194" type="line"/>
      <point x="596" y="23.3333" type="line"/>
      <point x="542.748" y="0.241536"/>
      <point x="457.201" y="-16.3333"/>
      <point x="388" y="-16.3333" type="curve" smooth="yes"/>
      <point x="179.09" y="-16.3333"/>
      <point x="37.6667" y="125.595"/>
    </contour>
    <contour>
      <point x="282.333" y="-241.222" type="curve"/>
      <point x="282.333" y="-194.889" type="line"/>
      <point x="301.333" y="-198.889"/>
      <point x="329.667" y="-202.889"/>
      <point x="344.667" y="-202.889" type="curve" smooth="yes"/>
      <point x="372.667" y="-202.889"/>
      <point x="405.333" y="-195.889"/>
      <point x="405.333" y="-166.556" type="curve" smooth="yes"/>
      <point x="405.333" y="-141.889"/>
      <point x="386" y="-131.556"/>
      <point x="363.667" y="-131.556" type="curve" smooth="yes"/>
      <point x="358" y="-131.556"/>
      <point x="346.333" y="-132.889"/>
      <point x="338" y="-134.889" type="curve"/>
      <point x="338" y="-7.889" type="line"/>
      <point x="384.667" y="-7.889" type="line"/>
      <point x="384.667" y="-81.889" type="line"/>
      <point x="389.333" y="-80.2223"/>
      <point x="393.333" y="-79.2223"/>
      <point x="401.667" y="-79.2223" type="curve" smooth="yes"/>
      <point x="447.667" y="-79.2223"/>
      <point x="481.667" y="-102.889"/>
      <point x="481.667" y="-153.556" type="curve" smooth="yes"/>
      <point x="481.667" y="-218.556"/>
      <point x="430.333" y="-251.889"/>
      <point x="361" y="-251.889" type="curve" smooth="yes"/>
      <point x="338.333" y="-251.889"/>
      <point x="302.667" y="-246.889"/>
    </contour>
  </outline>
</glyph>
<glyph name="Egrave" format="2">
  <advance width="593"/>
  <unicode hex="00C8"/>
  <outline>
    <contour>
      <point x="28" y="0" type="line"/>
      <point x="28" y="48.3333" type="line"/>
      <point x="82" y="53" type="line" smooth="yes"/>
      <point x="94" y="54"/>
      <point x="104.667" y="62.3333"/>
      <point x="104.667" y="75" type="curve" smooth="yes"/>
      <point x="104.667" y="596" type="line" smooth="yes"/>
      <point x="104.667" y="608.667"/>
      <point x="94" y="617"/>
      <point x="82" y="618" type="curve" smooth="yes"/>
      <point x="28" y="622.667" type="line"/>
      <point x="28" y="671" type="line"/>
      <point x="530" y="671" type="line"/>
      <point x="530" y="514.667" type="line"/>
      <point x="462" y="514.667" type="line"/>
      <point x="446.333" y="597.333" type="line" smooth="yes"/>
      <point x="444.333" y="607"/>
      <point x="437.667" y="616.333"/>
      <point x="428.333" y="616.333" type="curve" smooth="yes"/>
      <point x="232" y="616.333" type="line"/>
      <point x="232" y="376.667" type="line"/>
      <point x="361.333" y="376.667" type="line" smooth="yes"/>
      <point x="370.667" y="376.667"/>
      <point x="377.333" y="386"/>
      <point x="378.667" y="394.333" type="curve" smooth="yes"/>
      <point x="388" y="462.667" type="line"/>
      <point x="446.333" y="462.667" type="line"/>
      <point x="446.333" y="231.667" type="line"/>
      <point x="388" y="231.667" type="line"/>
      <point x="379" y="300" type="line" smooth="yes"/>
      <point x="378" y="308"/>
      <point x="371.333" y="318"/>
      <point x="361.667" y="318" type="curve" smooth="yes"/>
      <point x="232.333" y="318" type="line"/>
      <point x="232.333" y="56.3333" type="line"/>
      <point x="462" y="56.3333" type="line" smooth="yes"/>
      <point x="470" y="56.3333"/>
      <point x="478.667" y="68.3333"/>
      <point x="479.667" y="75.3333" type="curve" smooth="yes"/>
      <point x="495.667" y="177.667" type="line"/>
      <point x="562.333" y="177.667" type="line"/>
      <point x="562.333" y="0" type="line"/>
    </contour>
    <contour>
      <point x="63" y="879" type="curve" smooth="yes"/>
      <point x="63" y="904.333"/>
      <point x="78.3333" y="929.333"/>
      <point x="116.333" y="929.333" type="curve" smooth="yes"/>
      <point x="144.333" y="929.333"/>
      <point x="156.333" y="921"/>
      <point x="176.333" y="899" type="curve" smooth="yes"/>
      <point x="312" y="746.667" type="line"/>
      <point x="246.333" y="746.667" type="line"/>
      <point x="87.6667" y="837.667" type="line"/>
      <point x="74" y="846"/>
      <point x="63" y="863.333"/>
    </contour>
  </outline>
</glyph>
<glyph name="Iacute" format="2">
  <advance width="349"/>
  <unicode hex="00CD"/>
  <outline>
    <contour>
      <point x="26.3333" y="0" type="line"/>
      <point x="26.3333" y="48.3333" type="line"/>
      <point x="87.6667" y="53" type="line" smooth="yes"/>
      <point x="99.6667" y="54"/>
      <point x="109.333" y="62.3333"/>
      <point x="109.333" y="75" type="curve" smooth="yes"/>
      <point x="109.333" y="596" type="line" smooth="yes"/>
      <point x="109.333" y="608.667"/>
      <point x="99.6667" y="616.667"/>
      <point x="87.6667" y="617.667" type="curve" smooth="yes"/>
      <point x="26.3333" y="622.333" type="line"/>
      <point x="26.3333" y="671" type="line"/>
      <point x="322.333" y="671" type="line"/>
      <point x="322.333" y="622.333" type="line"/>
      <point x="260.667" y="617.667" type="line" smooth="yes"/>
      <point x="249.667" y="616.667"/>
      <point x="238.333" y="608.333"/>
      <point x="238.333" y="596" type="curve" smooth="yes"/>
      <point x="238.333" y="75" type="line" smooth="yes"/>
      <point x="238.333" y="62.6667"/>
      <point x="249.667" y="54"/>
      <point x="260.667" y="53" type="curve" smooth="yes"/>
      <point x="322.333" y="48.3333" type="line"/>
      <point x="322.333" y="0" type="line"/>
    </contour>
    <contour>
      <point x="141.667" y="746.667" type="line"/>
      <point x="277" y="899" type="line" smooth="yes"/>
      <point x="296.333" y="920.667"/>
      <point x="309.333" y="929.333"/>
      <point x="336.667" y="929.333" type="curve" smooth="yes"/>
      <point x="375.219" y="929.333"/>
      <point x="391" y="904.529"/>
      <point x="391" y="879" type="curve" smooth="yes"/>
      <point x="391" y="864"/>
      <point x="379.004" y="845.327"/>
      <point x="366" y="837.667" type="curve" smooth="yes"/>
      <point x="207" y="746.667" type="line"/>
    </contour>
  </outline>
</glyph>
<glyph name="Oacute" format="2">
  <advance width="747"/>
  <unicode hex="00D3"/>
  <outline>
    <contour>
      <point x="37.6667" y="339" type="curve" smooth="yes"/>
      <point x="37.6667" y="533.333"/>
      <point x="166.667" y="686.667"/>
      <point x="372" y="686.667" type="curve" smooth="yes"/>
      <point x="574" y="686.667"/>
      <point x="711" y="526"/>
      <point x="711" y="333.667" type="curve" smooth="yes"/>
      <point x="711" y="143"/>
      <point x="575.333" y="-15.6667"/>
      <point x="378" y="-15.6667" type="curve" smooth="yes"/>
      <point x="181.333" y="-15.6667"/>
      <point x="37.6667" y="124.333"/>
    </contour>
    <contour>
      <point x="183" y="337" type="curve" smooth="yes"/>
      <point x="183" y="199"/>
      <point x="238.667" y="44.3333"/>
      <point x="370.667" y="44.3333" type="curve" smooth="yes"/>
      <point x="510" y="44.3333"/>
      <point x="564.667" y="201.667"/>
      <point x="564.667" y="331" type="curve" smooth="yes"/>
      <point x="564.667" y="479"/>
      <point x="506" y="622.667"/>
      <point x="378.667" y="622.667" type="curve" smooth="yes"/>
      <point x="236" y="622.667"/>
      <point x="183" y="469.667"/>
    </contour>
    <contour>
      <point x="339.333" y="746.667" type="line"/>
      <point x="474.667" y="899" type="line" smooth="yes"/>
      <point x="494" y="920.667"/>
      <point x="507" y="929.333"/>
      <point x="534.333" y="929.333" type="curve" smooth="yes"/>
      <point x="572.886" y="929.333"/>
      <point x="588.667" y="904.529"/>
      <point x="588.667" y="879" type="curve" smooth="yes"/>
      <point x="588.667" y="864"/>
      <point x="576.671" y="845.327"/>
      <point x="563.667" y="837.667" type="curve" smooth="yes"/>
      <point x="404.667" y="746.667" type="line"/>
    </contour>
  </outline>
</glyph>
<glyph name="Otilde" format="2">
  <advance width="747"/>
  <unicode hex="00D5"/>
  <outline>
    <contour>
      <point x="37.6667" y="339" type="curve" smooth="yes"/>
      <point x="37.6667" y="533.333"/>
      <point x="166.667" y="686.667"/>
      <point x="372" y="686.667" type="curve" smooth="yes"/>
      <point x="574" y="686.667"/>
      <point x="711" y="526"/>
      <point x="711" y="333.667" type="curve" smooth="yes"/>
      <point x="711" y="143"/>
      <point x="575.333" y="-15.6667"/>
      <point x="378" y="-15.6667" type="curve" smooth="yes"/>
      <point x="181.333" y="-15.6667"/>
      <point x="37.6667" y="124.333"/>
    </contour>
    <contour>
      <point x="183" y="337" type="curve" smooth="yes"/>
      <point x="183" y="199"/>
      <point x="238.667" y="44.3333"/>
      <point x="370.667" y="44.3333" type="curve" smooth="yes"/>
      <point x="510" y="44.3333"/>
      <point x="564.667" y="201.667"/>
      <point x="564.667" y="331" type="curve" smooth="yes"/>
      <point x="564.667" y="479"/>
      <point x="506" y="622.667"/>
      <point x="378.667" y="622.667" type="curve" smooth="yes"/>
      <point x="236" y="622.667"/>
      <point x="183" y="469.667"/>
    </contour>
    <contour>
      <point x="184.333" y="746.667" type="line"/>
      <point x="200.667" y="811"/>
      <point x="234.667" y="866"/>
      <point x="302.667" y="866" type="curve" smooth="yes"/>
      <point x="329" y="866"/>
      <point x="346.333" y="855.667"/>
      <point x="365" y="843.333" type="curve" smooth="yes"/>
      <point x="384.667" y="830.333"/>
      <point x="405.667" y="818.667"/>
      <point x="436.667" y="818.667" type="curve" smooth="yes"/>
      <point x="460" y="818.667"/>
      <point x="480.667" y="840"/>
      <point x="483.667" y="866" type="curve"/>
      <point x="533" y="866" type="line"/>
      <point x="516.667" y="801.667"/>
      <point x="483.333" y="746.667"/>
      <point x="414.667" y="746.667" type="curve" smooth="yes"/>
      <point x="389" y="746.667"/>
      <point x="370" y="757.667"/>
      <point x="351.667" y="769.667" type="curve" smooth="yes"/>
      <point x="331.667" y="782.333"/>
      <point x="310.667" y="794.667"/>
      <point x="280.333" y="794.667" type="curve" smooth="yes"/>
      <point x="256.333" y="794.667"/>
      <point x="236.667" y="773"/>
      <point x="233.667" y="746.667" type="curve"/>
    </contour>
  </outline>
</glyph>
<glyph name="Ugrave" format="2">
  <advance width="723"/>
  <unicode hex="00D9"/>
  <outline>
    <contour>
      <point x="25" y="622.667" type="line"/>
      <point x="25" y="671" type="line"/>
      <point x="307" y="671" type="line"/>
      <point x="307" y="622.667" type="line"/>
      <point x="252" y="618" type="line" smooth="yes"/>
      <point x="240.667" y="617"/>
      <point x="230.333" y="608.667"/>
      <point x="230.333" y="596" type="curve" smooth="yes"/>
      <point x="230.333" y="247" type="line" smooth="yes"/>
      <point x="230.333" y="121.333"/>
      <point x="278.667" y="62"/>
      <point x="394.667" y="62" type="curve" smooth="yes"/>
      <point x="506.667" y="62"/>
      <point x="550.333" y="133.333"/>
      <point x="550.333" y="247" type="curve" smooth="yes"/>
      <point x="550.333" y="596" type="line" smooth="yes"/>
      <point x="550.333" y="608.667"/>
      <point x="540.333" y="617"/>
      <point x="528.333" y="618" type="curve" smooth="yes"/>
      <point x="471.333" y="622.667" type="line"/>
      <point x="471.333" y="671" type="line"/>
      <point x="697" y="671" type="line"/>
      <point x="697" y="622.667" type="line"/>
      <point x="642.333" y="618" type="line" smooth="yes"/>
      <point x="631" y="617"/>
      <point x="620.667" y="608.667"/>
      <point x="620.667" y="596" type="curve" smooth="yes"/>
      <point x="620.667" y="243.667" type="line" smooth="yes"/>
      <point x="620.667" y="57"/>
      <point x="532.333" y="-15.6667"/>
      <point x="352.333" y="-15.6667" type="curve" smooth="yes"/>
      <point x="183.667" y="-15.6667"/>
      <point x="101" y="73"/>
      <point x="101" y="243.667" type="curve" smooth="yes"/>
      <point x="101" y="596" type="line" smooth="yes"/>
      <point x="101" y="608.667"/>
      <point x="90.6667" y="617"/>
      <point x="78.6667" y="618" type="curve" smooth="yes"/>
    </contour>
    <contour>
      <point x="144.5" y="879" type="curve" smooth="yes"/>
      <point x="144.5" y="904.333"/>
      <point x="160.5" y="929.333"/>
      <point x="198.5" y="929.333" type="curve" smooth="yes"/>
      <point x="226.5" y="929.333"/>
      <point x="237.833" y="921"/>
      <point x="257.833" y="899" type="curve" smooth="yes"/>
      <point x="394.167" y="746.667" type="line"/>
      <point x="328.5" y="746.667" type="line"/>
      <point x="169.833" y="837.667" type="line"/>
      <point x="156.167" y="846"/>
      <point x="144.5" y="863.333"/>
    </contour>
  </outline>
</glyph>
<glyph name="germandbls" format="2">
  <advance width="660"/>
  <unicode hex="00DF"/>
  <outline>
    <contour>
      <point x="25.3333" y="0" type="line"/>
      <point x="25.3333" y="44" type="line"/>
      <point x="68" y="47.6667" type="line" smooth="yes"/>
      <point x="79.3319" y="48.6804"/>
      <point x="90" y="57"/>
      <point x="90" y="70" type="curve" smooth="yes"/>
      <point x="90" y="446" type="line" smooth="yes"/>
      <point x="90" y="564.039"/>
      <point x="146.943" y="743.667"/>
      <point x="362" y="743.667" type="curve" smooth="yes"/>
      <point x="465.667" y="743.667"/>
      <point x="555.667" y="684.667"/>
      <point x="555.667" y="563.667" type="curve" smooth="yes"/>
      <point x="555.667" y="529.212"/>
      <point x="551.333" y="497.333"/>
      <point x="543.333" y="470.333" type="curve"/>
      <point x="536.848" y="471.667"/>
      <point x="525.854" y="473"/>
      <point x="518.667" y="473" type="curve" smooth="yes"/>
      <point x="515.333" y="473" type="line" smooth="yes"/>
      <point x="470.258" y="473"/>
      <point x="425.333" y="451.333"/>
      <point x="425.333" y="400.333" type="curve" smooth="yes"/>
      <point x="425.333" y="360.341"/>
      <point x="470.659" y="331.791"/>
      <point x="511.744" y="306.305" type="curve" smooth="yes"/>
      <point x="566.476" y="272.875"/>
      <point x="629" y="232.797"/>
      <point x="629" y="155" type="curve" smooth="yes"/>
      <point x="629" y="52.64"/>
      <point x="541.733" y="-11.3333"/>
      <point x="439.667" y="-11.3333" type="curve" smooth="yes"/>
      <point x="378.037" y="-11.3333"/>
      <point x="324.272" y="5.97441"/>
      <point x="313" y="10" type="curve"/>
      <point x="313" y="151.333" type="line"/>
      <point x="375" y="151.333" type="line"/>
      <point x="383.333" y="59.6667" type="line"/>
      <point x="387.333" y="55.6667"/>
      <point x="404.667" y="42"/>
      <point x="438" y="42" type="curve" smooth="yes"/>
      <point x="486.333" y="42"/>
      <point x="517.333" y="80.6667"/>
      <point x="517.333" y="121" type="curve" smooth="yes"/>
      <point x="517.333" y="173.998"/>
      <point x="466.052" y="203.003"/>
      <point x="420.446" y="227.837" type="curve" smooth="yes"/>
      <point x="368.76" y="256.485"/>
      <point x="308.333" y="289.393"/>
      <point x="308.333" y="360" type="curve" smooth="yes"/>
      <point x="308.333" y="436.333"/>
      <point x="359.667" y="479.333"/>
      <point x="424" y="495" type="curve"/>
      <point x="429.804" y="517.06"/>
      <point x="433" y="547.474"/>
      <point x="433" y="570.333" type="curve" smooth="yes"/>
      <point x="433" y="624.749"/>
      <point x="403.055" y="686"/>
      <point x="339.333" y="686" type="curve" smooth="yes"/>
      <point x="222.333" y="686"/>
      <point x="210.333" y="546"/>
      <point x="210.333" y="486" type="curve" smooth="yes"/>
      <point x="210.333" y="70" type="line" smooth="yes"/>
      <point x="210.333" y="56.6667"/>
      <point x="219.659" y="48.2359"/>
      <point x="230.667" y="47.3333" type="curve" smooth="yes"/>
      <point x="274.333" y="44" type="line"/>
      <point x="274.333" y="0" type="line"/>
    </contour>
  </outline>
</glyph>
<glyph name="igrave" format="2">
  <advance width="323"/>
  <unicode hex="00EC"/>
  <outline>
    <contour>
      <point x="7.83333" y="690.667" type="curve" smooth="yes"/>
      <point x="7.83333" y="716"/>
      <point x="23.1667" y="741"/>
      <point x="61.1667" y="741" type="curve" smooth="yes"/>
      <point x="89.1667" y="741"/>
      <point x="101.167" y="732.667"/>
      <point x="121.167" y="710.667" type="curve" smooth="yes"/>
      <point x="256.833" y="558.333" type="line"/>
      <point x="191.167" y="558.333" type="line"/>
      <point x="32.5" y="649.333" type="line"/>
      <point x="18.8333" y="657.667"/>
      <point x="7.83333" y="675"/>
    </contour>
    <contour>
      <point x="32.6667" y="0" type="line"/>
      <point x="32.6667" y="44.3333" type="line"/>
      <point x="79.6667" y="47.3333" type="line" smooth="yes"/>
      <point x="91.3333" y="48.3333"/>
      <point x="101.333" y="57.6667"/>
      <point x="101.333" y="69.6667" type="curve" smooth="yes"/>
      <point x="101.333" y="409.667" type="line"/>
      <point x="35.6667" y="409.667" type="line"/>
      <point x="35.6667" y="448" type="line"/>
      <point x="173.667" y="494" type="line"/>
      <point x="221" y="494" type="line"/>
      <point x="221" y="69.6667" type="line" smooth="yes"/>
      <point x="221" y="57.6667"/>
      <point x="231.667" y="48.3333"/>
      <point x="243.333" y="47.3333" type="curve" smooth="yes"/>
      <point x="292.333" y="44.3333" type="line"/>
      <point x="292.333" y="0" type="line"/>
    </contour>
  </outline>
</glyph>
<glyph name="iacute" format="2">
  <advance width="323"/>
  <unicode hex="00ED"/>
  <outline>
    <contour>
      <point x="32.6667" y="0" type="line"/>
      <point x="32.6667" y="44.3333" type="line"/>
      <point x="79.6667" y="47.3333" type="line" smooth="yes"/>
      <point x="91.3333" y="48.3333"/>
      <point x="101.333" y="57.6667"/>
      <point x="101.333" y="69.6667" type="curve" smooth="yes"/>
      <point x="101.333" y="409.667" type="line"/>
      <point x="35.6667" y="409.667" type="line"/>
      <point x="35.6667" y="448" type="line"/>
      <point x="173.667" y="494" type="line"/>
      <point x="221" y="494" type="line"/>
      <point x="221" y="69.6667" type="line" smooth="yes"/>
      <point x="221" y="57.6667"/>
      <point x="231.667" y="48.3333"/>
      <point x="243.333" y="47.3333" type="curve" smooth="yes"/>
      <point x="292.333" y="44.3333" type="line"/>
      <point x="292.333" y="0" type="line"/>
    </contour>
    <contour>
      <point x="48" y="558.333" type="line"/>
      <point x="183.333" y="710.667" type="line" smooth="yes"/>
      <point x="202.667" y="732.333"/>
      <point x="215.667" y="741"/>
      <point x="243" y="741" type="curve" smooth="yes"/>
      <point x="281.553" y="741"/>
      <point x="297.333" y="716.196"/>
      <point x="297.333" y="690.667" type="curve" smooth="yes"/>
      <point x="297.333" y="675.667"/>
      <point x="285.337" y="656.994"/>
      <point x="272.333" y="649.333" type="curve" smooth="yes"/>
      <point x="113.333" y="558.333" type="line"/>
    </contour>
  </outline>
</glyph>
<glyph name="idieresis" format="2">
  <advance width="323"/>
  <unicode hex="00EF"/>
  <outline>
    <contour>
      <point x="-7.66667" y="622.667" type="curve" smooth="yes"/>
      <point x="-7.66667" y="658.333"/>
      <point x="21" y="687.333"/>
      <point x="56.6667" y="687.333" type="curve" smooth="yes"/>
      <point x="92.3333" y="687.333"/>
      <point x="120.667" y="658.333"/>
      <point x="120.667" y="623" type="curve" smooth="yes"/>
      <point x="120.667" y="587.333"/>
      <point x="92.3333" y="558.333"/>
      <point x="56.6667" y="558.333" type="curve" smooth="yes"/>
      <point x="21" y="558.333"/>
      <point x="-7.66667" y="587"/>
    </contour>
    <contour>
      <point x="201.333" y="623" type="curve" smooth="yes"/>
      <point x="201.333" y="658.333"/>
      <point x="230.667" y="687.333"/>
      <point x="266" y="687.333" type="curve" smooth="yes"/>
      <point x="301.333" y="687.333"/>
      <point x="329.667" y="658.667"/>
      <point x="329.667" y="623" type="curve" smooth="yes"/>
      <point x="329.667" y="587.333"/>
      <point x="301.667" y="558.333"/>
      <point x="266" y="558.333" type="curve" smooth="yes"/>
      <point x="230" y="558.333"/>
      <point x="201.333" y="587"/>
    </contour>
    <contour>
      <point x="32.6667" y="0" type="line"/>
      <point x="32.6667" y="44.3333" type="line"/>
      <point x="79.6667" y="47.3333" type="line" smooth="yes"/>
      <point x="91.34" y="48.2249"/>
      <point x="101.333" y="57.6667"/>
      <point x="101.333" y="69.6667" type="curve" smooth="yes"/>
      <point x="101.333" y="409.667" type="line"/>
      <point x="35.6667" y="409.667" type="line"/>
      <point x="35.6667" y="448" type="line"/>
      <point x="173.667" y="494" type="line"/>
      <point x="221" y="494" type="line"/>
      <point x="221" y="69.6667" type="line" smooth="yes"/>
      <point x="221" y="57.6667"/>
      <point x="231.66" y="48.2161"/>
      <point x="243.333" y="47.3333" type="curve" smooth="yes"/>
      <point x="292.333" y="44.3333" type="line"/>
      <point x="292.333" y="0" type="line"/>
    </contour>
  </outline>
</glyph>
<glyph name="ograve" format="2">
  <advance width="569"/>
  <unicode hex="00F2"/>
  <outline>
    <contour>
      <point x="31.3333" y="241.333" type="curve" smooth="yes"/>
      <point x="31.3333" y="397.667"/>
      <point x="137" y="498.333"/>
      <point x="287" y="498.333" type="curve" smooth="yes"/>
      <point x="443.667" y="498.333"/>
      <point x="537.667" y="389"/>
      <point x="537.667" y="240.667" type="curve" smooth="yes"/>
      <point x="537.667" y="94.6667"/>
      <point x="438.667" y="-12.3333"/>
      <point x="281.333" y="-12.3333" type="curve" smooth="yes"/>
      <point x="133.333" y="-12.3333"/>
      <point x="31.3333" y="89.3333"/>
    </contour>
    <contour>
      <point x="134.167" y="690.667" type="curve" smooth="yes"/>
      <point x="134.167" y="716"/>
      <point x="149.5" y="741"/>
      <point x="187.5" y="741" type="curve" smooth="yes"/>
      <point x="215.5" y="741"/>
      <point x="227.5" y="732.667"/>
      <point x="247.5" y="710.667" type="curve" smooth="yes"/>
      <point x="383.167" y="558.333" type="line"/>
      <point x="317.5" y="558.333" type="line"/>
      <point x="158.833" y="649.333" type="line"/>
      <point x="145.167" y="657.667"/>
      <point x="134.167" y="675"/>
    </contour>
    <contour>
      <point x="166" y="244" type="curve" smooth="yes"/>
      <point x="166" y="156.667"/>
      <point x="189.333" y="41.3333"/>
      <point x="284.667" y="41.3333" type="curve" smooth="yes"/>
      <point x="378.667" y="41.3333"/>
      <point x="403.333" y="152"/>
      <point x="403.333" y="241.333" type="curve" smooth="yes"/>
      <point x="403.333" y="328"/>
      <point x="379" y="445.333"/>
      <point x="284.333" y="445.333" type="curve" smooth="yes"/>
      <point x="191" y="445.333"/>
      <point x="166" y="331.333"/>
    </contour>
  </outline>
</glyph>
<glyph name="odieresis" format="2">
  <advance width="569"/>
  <unicode hex="00F6"/>
  <outline>
    <contour>
      <point x="31.3333" y="241.333" type="curve" smooth="yes"/>
      <point x="31.3333" y="397.667"/>
      <point x="137" y="498.333"/>
      <point x="287" y="498.333" type="curve" smooth="yes"/>
      <point x="443.667" y="498.333"/>
      <point x="537.667" y="389"/>
      <point x="537.667" y="240.667" type="curve" smooth="yes"/>
      <point x="537.667" y="94.6667"/>
      <point x="438.667" y="-12.3333"/>
      <point x="281.333" y="-12.3333" type="curve" smooth="yes"/>
      <point x="133.333" y="-12.3333"/>
      <point x="31.3333" y="89.3333"/>
    </contour>
    <contour>
      <point x="166" y="244" type="curve" smooth="yes"/>
      <point x="166" y="156.667"/>
      <point x="189.333" y="41.3333"/>
      <point x="284.667" y="41.3333" type="curve" smooth="yes"/>
      <point x="378.667" y="41.3333"/>
      <point x="403.333" y="152"/>
      <point x="403.333" y="241.333" type="curve" smooth="yes"/>
      <point x="403.333" y="328"/>
      <point x="379" y="445.333"/>
      <point x="284.333" y="445.333" type="curve" smooth="yes"/>
      <point x="191" y="445.333"/>
      <point x="166" y="331.333"/>
    </contour>
    <contour>
      <point x="118.333" y="622.667" type="curve" smooth="yes"/>
      <point x="118.333" y="658.333"/>
      <point x="147" y="687.333"/>
      <point x="182.667" y="687.333" type="curve" smooth="yes"/>
      <point x="218.333" y="687.333"/>
      <point x="246.667" y="658.333"/>
      <point x="246.667" y="623" type="curve" smooth="yes"/>
      <point x="246.667" y="587.333"/>
      <point x="218.333" y="558.333"/>
      <point x="182.667" y="558.333" type="curve" smooth="yes"/>
      <point x="147" y="558.333"/>
      <point x="118.333" y="587"/>
    </contour>
    <contour>
      <point x="327.333" y="623" type="curve" smooth="yes"/>
      <point x="327.333" y="658.333"/>
      <point x="356.667" y="687.333"/>
      <point x="392" y="687.333" type="curve" smooth="yes"/>
      <point x="427.333" y="687.333"/>
      <point x="455.667" y="658.667"/>
      <point x="455.667" y="623" type="curve" smooth="yes"/>
      <point x="455.667" y="587.333"/>
      <point x="427.667" y="558.333"/>
      <point x="392" y="558.333" type="curve" smooth="yes"/>
      <point x="356" y="558.333"/>
      <point x="327.333" y="587"/>
    </contour>
  </outline>
</glyph>
<glyph name="ugrave" format="2">
  <advance width="603"/>
  <unicode hex="00F9"/>
  <outline>
    <contour>
      <point x="23.3333" y="400.333" type="line"/>
      <point x="23.3333" y="439" type="line"/>
      <point x="162.333" y="486" type="line"/>
      <point x="210.333" y="486" type="line"/>
      <point x="210.333" y="183" type="line" smooth="yes"/>
      <point x="210.333" y="126.667"/>
      <point x="223.667" y="71.3333"/>
      <point x="304" y="71.3333" type="curve" smooth="yes"/>
      <point x="346.667" y="71.3333"/>
      <point x="383.333" y="87"/>
      <point x="393.667" y="92" type="curve"/>
      <point x="393.667" y="400.333" type="line"/>
      <point x="328.333" y="400.333" type="line"/>
      <point x="328.333" y="439" type="line"/>
      <point x="466.333" y="486" type="line"/>
      <point x="514" y="486" type="line"/>
      <point x="514" y="70" type="line" smooth="yes"/>
      <point x="514" y="58"/>
      <point x="525" y="48.6667"/>
      <point x="536.667" y="47.6667" type="curve" smooth="yes"/>
      <point x="580.667" y="44.3333" type="line"/>
      <point x="580.667" y="0" type="line"/>
      <point x="393.667" y="0" type="line"/>
      <point x="393.667" y="55.3333" type="line"/>
      <point x="381" y="45.6667"/>
      <point x="305.333" y="-12"/>
      <point x="234.667" y="-12" type="curve" smooth="yes"/>
      <point x="126" y="-12"/>
      <point x="90" y="49.3333"/>
      <point x="90" y="150.667" type="curve" smooth="yes"/>
      <point x="90" y="400.333" type="line"/>
    </contour>
    <contour>
      <point x="135.5" y="690.667" type="curve" smooth="yes"/>
      <point x="135.5" y="716"/>
      <point x="150.833" y="741"/>
      <point x="188.833" y="741" type="curve" smooth="yes"/>
      <point x="216.833" y="741"/>
      <point x="228.833" y="732.667"/>
      <point x="248.833" y="710.667" type="curve" smooth="yes"/>
      <point x="384.5" y="558.333" type="line"/>
      <point x="318.833" y="558.333" type="line"/>
      <point x="160.167" y="649.333" type="line"/>
      <point x="146.5" y="657.667"/>
      <point x="135.5" y="675"/>
    </contour>
  </outline>
</glyph>
<glyph name="uacute" format="2">
  <advance width="603"/>
  <unicode hex="00FA"/>
  <outline>
    <contour>
      <point x="23.3333" y="400.333" type="line"/>
      <point x="23.3333" y="439" type="line"/>
      <point x="162.333" y="486" type="line"/>
      <point x="210.333" y="486" type="line"/>
      <point x="210.333" y="183" type="line" smooth="yes"/>
      <point x="210.333" y="126.667"/>
      <point x="223.667" y="71.3333"/>
      <point x="304" y="71.3333" type="curve" smooth="yes"/>
      <point x="346.667" y="71.3333"/>
      <point x="383.333" y="87"/>
      <point x="393.667" y="92" type="curve"/>
      <point x="393.667" y="400.333" type="line"/>
      <point x="328.333" y="400.333" type="line"/>
      <point x="328.333" y="439" type="line"/>
      <point x="466.333" y="486" type="line"/>
      <point x="514" y="486" type="line"/>
      <point x="514" y="70" type="line" smooth="yes"/>
      <point x="514" y="58"/>
      <point x="525" y="48.6667"/>
      <point x="536.667" y="47.6667" type="curve" smooth="yes"/>
      <point x="580.667" y="44.3333" type="line"/>
      <point x="580.667" y="0" type="line"/>
      <point x="393.667" y="0" type="line"/>
      <point x="393.667" y="55.3333" type="line"/>
      <point x="381" y="45.6667"/>
      <point x="305.333" y="-12"/>
      <point x="234.667" y="-12" type="curve" smooth="yes"/>
      <point x="126" y="-12"/>
      <point x="90" y="49.3333"/>
      <point x="90" y="150.667" type="curve" smooth="yes"/>
      <point x="90" y="400.333" type="line"/>
    </contour>
    <contour>
      <point x="199" y="558.333" type="line"/>
      <point x="334.333" y="710.667" type="line" smooth="yes"/>
      <point x="353.667" y="732.333"/>
      <point x="366.667" y="741"/>
      <point x="394" y="741" type="curve" smooth="yes"/>
      <point x="432.553" y="741"/>
      <point x="448.333" y="716.196"/>
      <point x="448.333" y="690.667" type="curve" smooth="yes"/>
      <point x="448.333" y="675.667"/>
      <point x="436.337" y="656.994"/>
      <point x="423.333" y="649.333" type="curve" smooth="yes"/>
      <point x="264.333" y="558.333" type="line"/>
    </contour>
  </outline>
</glyph>
<glyph name="thorn" format="2">
  <advance width="589"/>
  <unicode hex="00FE"/>
  <outline>
    <contour>
      <point x="23.6667" y="-173.667" type="line"/>
      <point x="69" y="-169.667" type="line"/>
      <point x="80.6513" y="-169.21"/>
      <point x="90.6667" y="-160.333"/>
      <point x="90.6667" y="-147.667" type="curve" smooth="yes"/>
      <point x="90.6667" y="655" type="line"/>
      <point x="23.6667" y="655" type="line"/>
      <point x="23.6667" y="693.333" type="line"/>
      <point x="163.333" y="739.333" type="line"/>
      <point x="211" y="739.333" type="line"/>
      <point x="211" y="435.667" type="line"/>
      <point x="222.917" y="445.377"/>
      <point x="292.918" y="498"/>
      <point x="368.333" y="498" type="curve" smooth="yes"/>
      <point x="491.358" y="498"/>
      <point x="556.333" y="376.587"/>
      <point x="556.333" y="254.667" type="curve" smooth="yes"/>
      <point x="556.333" y="93.5827"/>
      <point x="455.688" y="-11.6667"/>
      <point x="292.667" y="-11.6667" type="curve" smooth="yes"/>
      <point x="254.333" y="-11.6667"/>
      <point x="219.215" y="-3.75347"/>
      <point x="211" y="-2" type="curve"/>
      <point x="211" y="-147.667" type="line" smooth="yes"/>
      <point x="211" y="-160.333"/>
      <point x="220.671" y="-169.294"/>
      <point x="233" y="-169.667" type="curve"/>
      <point x="288" y="-173.667" type="line"/>
      <point x="288" y="-218" type="line"/>
      <point x="23.6667" y="-218" type="line"/>
    </contour>
    <contour>
      <point x="210.333" y="52.6667" type="line"/>
      <point x="218.095" y="50.1667"/>
      <point x="249.535" y="39.6667"/>
      <point x="274.333" y="39.6667" type="curve" smooth="yes"/>
      <point x="374.757" y="39.6667"/>
      <point x="424.667" y="129.232"/>
      <point x="424.667" y="240.333" type="curve" smooth="yes"/>
      <point x="424.667" y="332.16"/>
      <point x="384.565" y="414"/>
      <point x="293.667" y="414" type="curve" smooth="yes"/>
      <point x="257.022" y="414"/>
      <point x="218.887" y="399.132"/>
      <point x="210.333" y="394" type="curve"/>
    </contour>
  </outline>
</glyph>
<glyph name="Ccaron" format="2">
  <advance width="633"/>
  <unicode hex="010C"/>
  <outline>
    <contour>
      <point x="37.6667" y="336" type="curve" smooth="yes"/>
      <point x="37.6667" y="542.101"/>
      <point x="183.101" y="687"/>
      <point x="389" y="687" type="curve" smooth="yes"/>
      <point x="454.108" y="687"/>
      <point x="497.878" y="678.438"/>
      <point x="597.333" y="645.667" type="curve"/>
      <point x="597.333" y="480" type="line"/>
      <point x="525.333" y="480" type="line"/>
      <point x="505.667" y="585" type="line" smooth="yes"/>
      <point x="502.2" y="605.57"/>
      <point x="457.967" y="623"/>
      <point x="409.667" y="623" type="curve" smooth="yes"/>
      <point x="268.988" y="623"/>
      <point x="181.333" y="512.011"/>
      <point x="181.333" y="335" type="curve" smooth="yes"/>
      <point x="181.333" y="156.351"/>
      <point x="272.532" y="45.3333"/>
      <point x="418.667" y="45.3333" type="curve" smooth="yes"/>
      <point x="466.432" y="45.3333"/>
      <point x="498.122" y="58.2005"/>
      <point x="501.667" y="79" type="curve" smooth="yes"/>
      <point x="524" y="194" type="line"/>
      <point x="596" y="194" type="line"/>
      <point x="596" y="23.3333" type="line"/>
      <point x="542.748" y="0.241536"/>
      <point x="457.201" y="-16.3333"/>
      <point x="388" y="-16.3333" type="curve" smooth="yes"/>
      <point x="179.09" y="-16.3333"/>
      <point x="37.6667" y="125.595"/>
    </contour>
    <contour>
      <point x="207.667" y="917.333" type="line"/>
      <point x="283.333" y="917.333" type="line"/>
      <point x="376" y="821.667" type="line"/>
      <point x="468.333" y="917.333" type="line"/>
      <point x="543.667" y="917.333" type="line"/>
      <point x="427.667" y="747" type="line"/>
      <point x="323.667" y="747" type="line"/>
    </contour>
  </outline>
</glyph>
<glyph name="ebreve" format="2">
  <advance width="515"/>
  <unicode hex="0115"/>
  <outline>
    <contour>
      <point x="32.6667" y="237" type="curve" smooth="yes"/>
      <point x="32.6667" y="388"/>
      <point x="128" y="498.333"/>
      <point x="279" y="498.333" type="curve" smooth="yes"/>
      <point x="425" y="498.333"/>
      <point x="484" y="396.333"/>
      <point x="484" y="277.667" type="curve" smooth="yes"/>
      <point x="484" y="252.333" type="line"/>
      <point x="157" y="252.333" type="line"/>
      <point x="157" y="139"/>
      <point x="210" y="63.3333"/>
      <point x="315" y="63.3333" type="curve" smooth="yes"/>
      <point x="403" y="63.3333"/>
      <point x="467.333" y="110.667"/>
      <point x="483.667" y="121.333" type="curve"/>
      <point x="483.667" y="47.6667" type="line"/>
      <point x="466.667" y="37.3333"/>
      <point x="390.667" y="-12.3333"/>
      <point x="279.667" y="-12.3333" type="curve" smooth="yes"/>
      <point x="117.667" y="-12.3333"/>
      <point x="32.6667" y="95.3333"/>
    </contour>
    <contour>
      <point x="125.167" y="716.667" type="curve"/>
      <point x="172.833" y="716.667" type="line"/>
      <point x="183.562" y="665.842"/>
      <point x="223.506" y="635"/>
      <point x="279.167" y="635" type="curve" smooth="yes"/>
      <point x="334.681" y="635"/>
      <point x="374.13" y="664.994"/>
      <point x="384.833" y="716.667" type="curve"/>
      <point x="432.833" y="716.667" type="line"/>
      <point x="432.833" y="620.599"/>
      <point x="372.432" y="558.333"/>
      <point x="278.833" y="558.333" type="curve" smooth="yes"/>
      <point x="185.167" y="558.333"/>
      <point x="125.167" y="620.333"/>
    </contour>
    <contour>
      <point x="161.667" y="304.333" type="curve"/>
      <point x="355" y="304.333" type="line"/>
      <point x="355" y="326.333" type="line" smooth="yes"/>
      <point x="355" y="391.667"/>
      <point x="329.667" y="442.333"/>
      <point x="268" y="442.333" type="curve" smooth="yes"/>
      <point x="192.333" y="442.333"/>
      <point x="163.333" y="371.667"/>
    </contour>
  </outline>
</glyph>
<glyph name="Eogonek" format="2">
  <advance width="593"/>
  <unicode hex="0118"/>
  <outline>
    <contour>
      <point x="28" y="0" type="line"/>
      <point x="28" y="48.3333" type="line"/>
      <point x="82" y="53" type="line" smooth="yes"/>
      <point x="94" y="54"/>
      <point x="104.667" y="62.3333"/>
      <point x="104.667" y="75" type="curve" smooth="yes"/>
      <point x="104.667" y="596" type="line" smooth="yes"/>
      <point x="104.667" y="608.667"/>
      <point x="94" y="617"/>
      <point x="82" y="618" type="curve" smooth="yes"/>
      <point x="28" y="622.667" type="line"/>
      <point x="28" y="671" type="line"/>
      <point x="530" y="671" type="line"/>
      <point x="530" y="514.667" type="line"/>
      <point x="462" y="514.667" type="line"/>
      <point x="446.333" y="597.333" type="line" smooth="yes"/>
      <point x="444.333" y="607"/>
      <point x="437.667" y="616.333"/>
      <point x="428.333" y="616.333" type="curve" smooth="yes"/>
      <point x="232" y="616.333" type="line"/>
      <point x="232" y="376.667" type="line"/>
      <point x="361.333" y="376.667" type="line" smooth="yes"/>
      <point x="370.667" y="376.667"/>
      <point x="377.333" y="386"/>
      <point x="378.667" y="394.333" type="curve" smooth="yes"/>
      <point x="388" y="462.667" type="line"/>
      <point x="446.333" y="462.667" type="line"/>
      <point x="446.333" y="231.667" type="line"/>
      <point x="388" y="231.667" type="line"/>
      <point x="379" y="300" type="line" smooth="yes"/>
      <point x="378" y="308"/>
      <point x="371.333" y="318"/>
      <point x="361.667" y="318" type="curve" smooth="yes"/>
      <point x="232.333" y="318" type="line"/>
      <point x="232.333" y="56.3333" type="line"/>
      <point x="462" y="56.3333" type="line" smooth="yes"/>
      <point x="470" y="56.3333"/>
      <point x="478.667" y="68.3333"/>
      <point x="479.667" y="75.3333" type="curve" smooth="yes"/>
      <point x="495.667" y="177.667" type="line"/>
      <point x="562.333" y="177.667" type="line"/>
      <point x="562.333" y="0" type="line"/>
    </contour>
    <contour>
      <point x="249.333" y="-113.522" type="curve" smooth="yes"/>
      <point x="249.333" y="-68.1888"/>
      <point x="282" y="-23.1888"/>
      <point x="326.667" y="6.8112" type="curve"/>
      <point x="384.333" y="6.8112" type="line"/>
      <point x="347.667" y="-20.1888"/>
      <point x="324.333" y="-51.8555"/>
      <point x="324.333" y="-89.1888" type="curve" smooth="yes"/>
      <point x="324.333" y="-122.855"/>
      <point x="343.667" y="-141.522"/>
      <point x="374.333" y="-141.522" type="curve" smooth="yes"/>
      <point x="392" y="-141.522"/>
      <point x="411.333" y="-132.522"/>
      <point x="422.333" y="-123.189" type="curve"/>
      <point x="448.667" y="-166.855" type="line"/>
      <point x="421.333" y="-187.189"/>
      <point x="391.333" y="-196.855"/>
      <point x="355" y="-196.855" type="curve" smooth="yes"/>
      <point x="292.667" y="-196.855"/>
      <point x="249.333" y="-165.855"/>
    </contour>
  </outline>
</glyph>
<glyph name="gcommaaccent" format="2">
  <advance width="545"/>
  <unicode hex="0123"/>
  <outline>
    <contour>
      <point x="179.667" y="658.667" type="curve" smooth="yes"/>
      <point x="179.667" y="748.705"/>
      <point x="238.497" y="816.714"/>
      <point x="325.333" y="859.333" type="curve"/>
      <point x="347" y="831.667" type="line"/>
      <point x="324.265" y="815.45"/>
      <point x="256.667" y="769.489"/>
      <point x="256.667" y="685" type="curve" smooth="yes"/>
      <point x="256.667" y="676.667" type="line"/>
      <point x="316.333" y="676.667" type="line"/>
      <point x="325.667" y="665"/>
      <point x="334.667" y="642.333"/>
      <point x="334.667" y="626.667" type="curve" smooth="yes"/>
      <point x="334.667" y="585"/>
      <point x="306" y="558.333"/>
      <point x="265" y="558.333" type="curve" smooth="yes"/>
      <point x="213" y="558.333"/>
      <point x="179.667" y="601.667"/>
    </contour>
    <contour>
      <point x="31.6667" y="-81" type="curve" smooth="yes"/>
      <point x="31.6667" y="-4.33333"/>
      <point x="89.6667" y="27.6667"/>
      <point x="134.333" y="31" type="curve"/>
      <point x="123.667" y="48"/>
      <point x="118.333" y="67"/>
      <point x="118.333" y="83.3333" type="curve" smooth="yes"/>
      <point x="118.333" y="117.333"/>
      <point x="140.667" y="146"/>
      <point x="175.667" y="173" type="curve"/>
      <point x="130" y="183.667"/>
      <point x="52.6667" y="226.333"/>
      <point x="52.6667" y="323.667" type="curve" smooth="yes"/>
      <point x="52.6667" y="441.333"/>
      <point x="146" y="497"/>
      <point x="263.333" y="497" type="curve" smooth="yes"/>
      <point x="309.667" y="497"/>
      <point x="369" y="482.333"/>
      <point x="400.667" y="466.333" type="curve"/>
      <point x="532.333" y="466.333" type="line"/>
      <point x="532.333" y="410.667" type="line"/>
      <point x="440.333" y="410.667" type="line"/>
      <point x="448" y="398.667"/>
      <point x="462.667" y="370.333"/>
      <point x="462.667" y="330" type="curve" smooth="yes"/>
      <point x="462.667" y="211"/>
      <point x="350.333" y="164"/>
      <point x="256.667" y="164" type="curve" smooth="yes"/>
      <point x="249.333" y="164"/>
      <point x="240.667" y="164.333"/>
      <point x="234" y="165.333" type="curve"/>
      <point x="217.667" y="155"/>
      <point x="205.667" y="141"/>
      <point x="205.667" y="124.667" type="curve" smooth="yes"/>
      <point x="205.667" y="117.667"/>
      <point x="207" y="111.333"/>
      <point x="210.667" y="103.667" type="curve"/>
      <point x="392.333" y="89.3333"/>
      <point x="503.667" y="54"/>
      <point x="503.667" y="-41.6667" type="curve" smooth="yes"/>
      <point x="503.667" y="-159"/>
      <point x="365.667" y="-231.667"/>
      <point x="237" y="-231.667" type="curve" smooth="yes"/>
      <point x="133.667" y="-231.667"/>
      <point x="31.6667" y="-185"/>
    </contour>
    <contour>
      <point x="150.333" y="-65.6667" type="curve" smooth="yes"/>
      <point x="150.333" y="-131"/>
      <point x="208" y="-179.333"/>
      <point x="267.333" y="-179.333" type="curve" smooth="yes"/>
      <point x="334.333" y="-179.333"/>
      <point x="390" y="-136.333"/>
      <point x="390" y="-69" type="curve" smooth="yes"/>
      <point x="390" y="4"/>
      <point x="252.333" y="18"/>
      <point x="196.333" y="18.3333" type="curve"/>
      <point x="172.333" y="0"/>
      <point x="150.333" y="-21.6667"/>
    </contour>
    <contour>
      <point x="176.667" y="332.333" type="curve" smooth="yes"/>
      <point x="176.667" y="271.333"/>
      <point x="203" y="212"/>
      <point x="261" y="212" type="curve" smooth="yes"/>
      <point x="318.333" y="212"/>
      <point x="343.333" y="272.667"/>
      <point x="343.333" y="333.667" type="curve" smooth="yes"/>
      <point x="343.333" y="391.333"/>
      <point x="316.667" y="451"/>
      <point x="262.667" y="451" type="curve" smooth="yes"/>
      <point x="200.333" y="451"/>
      <point x="176.667" y="393.333"/>
    </contour>
  </outline>
</glyph>
<glyph name="Itilde" format="2">
  <advance width="349"/>
  <unicode hex="0128"/>
  <outline>
    <contour>
      <point x="0" y="746.667" type="line"/>
      <point x="16.3333" y="811"/>
      <point x="50.3333" y="866"/>
      <point x="118.333" y="866" type="curve" smooth="yes"/>
      <point x="144.667" y="866"/>
      <point x="162" y="855"/>
      <point x="180.667" y="843.333" type="curve" smooth="yes"/>
      <point x="200.333" y="830.333"/>
      <point x="221.333" y="818.667"/>
      <point x="252.333" y="818.667" type="curve" smooth="yes"/>
      <point x="275.667" y="818.667"/>
      <point x="296.333" y="840"/>
      <point x="299.333" y="866" type="curve"/>
      <point x="348.667" y="866" type="line"/>
      <point x="332.333" y="801.667"/>
      <point x="299" y="746.667"/>
      <point x="230.333" y="746.667" type="curve" smooth="yes"/>
      <point x="204.667" y="746.667"/>
      <point x="185.667" y="757.667"/>
      <point x="167.333" y="769.667" type="curve" smooth="yes"/>
      <point x="147.333" y="782.333"/>
      <point x="126.333" y="794.667"/>
      <point x="96" y="794.667" type="curve" smooth="yes"/>
      <point x="72" y="794.667"/>
      <point x="52.3333" y="773"/>
      <point x="49.3333" y="746.667" type="curve"/>
    </contour>
    <contour>
      <point x="26.3333" y="0" type="line"/>
      <point x="26.3333" y="48.3333" type="line"/>
      <point x="87.6667" y="53" type="line" smooth="yes"/>
      <point x="99.6667" y="54"/>
      <point x="109.333" y="62.3333"/>
      <point x="109.333" y="75" type="curve" smooth="yes"/>
      <point x="109.333" y="596" type="line" smooth="yes"/>
      <point x="109.333" y="608.667"/>
      <point x="99.6667" y="616.667"/>
      <point x="87.6667" y="617.667" type="curve" smooth="yes"/>
      <point x="26.3333" y="622.333" type="line"/>
      <point x="26.3333" y="671" type="line"/>
      <point x="322.333" y="671" type="line"/>
      <point x="322.333" y="622.333" type="line"/>
      <point x="260.667" y="617.667" type="line" smooth="yes"/>
      <point x="249.667" y="616.667"/>
      <point x="238.333" y="608.333"/>
      <point x="238.333" y="596" type="curve" smooth="yes"/>
      <point x="238.333" y="75" type="line" smooth="yes"/>
      <point x="238.333" y="62.6667"/>
      <point x="249.667" y="54"/>
      <point x="260.667" y="53" type="curve" smooth="yes"/>
      <point x="322.333" y="48.3333" type="line"/>
      <point x="322.333" y="0" type="line"/>
    </contour>
  </outline>
</glyph>
<glyph name="itilde" format="2">
  <advance width="323"/>
  <unicode hex="0129"/>
  <outline>
    <contour>
      <point x="-14.3333" y="558.333" type="line"/>
      <point x="2" y="622.667"/>
      <point x="36" y="677.667"/>
      <point x="104" y="677.667" type="curve" smooth="yes"/>
      <point x="130.333" y="677.667"/>
      <point x="148.333" y="666.667"/>
      <point x="167" y="655" type="curve" smooth="yes"/>
      <point x="186.667" y="642"/>
      <point x="208.333" y="630.333"/>
      <point x="239.333" y="630.333" type="curve" smooth="yes"/>
      <point x="262.667" y="630.333"/>
      <point x="283.333" y="651.667"/>
      <point x="286.333" y="677.667" type="curve"/>
      <point x="335.667" y="677.667" type="line"/>
      <point x="319.333" y="613.333"/>
      <point x="284.667" y="558.333"/>
      <point x="216" y="558.333" type="curve" smooth="yes"/>
      <point x="190.333" y="558.333"/>
      <point x="172" y="569.333"/>
      <point x="153.667" y="581.333" type="curve" smooth="yes"/>
      <point x="133.667" y="594"/>
      <point x="112" y="606.333"/>
      <point x="81.6667" y="606.333" type="curve" smooth="yes"/>
      <point x="57.6667" y="606.333"/>
      <point x="38" y="584.667"/>
      <point x="35" y="558.333" type="curve"/>
    </contour>
    <contour>
      <point x="32.6667" y="0" type="line"/>
      <point x="32.6667" y="44.3333" type="line"/>
      <point x="79.6667" y="47.3333" type="line" smooth="yes"/>
      <point x="91.3333" y="48.3333"/>
      <point x="101.333" y="57.6667"/>
      <point x="101.333" y="69.6667" type="curve" smooth="yes"/>
      <point x="101.333" y="409.667" type="line"/>
      <point x="35.6667" y="409.667" type="line"/>
      <point x="35.6667" y="448" type="line"/>
      <point x="173.667" y="494" type="line"/>
      <point x="221" y="494" type="line"/>
      <point x="221" y="69.6667" type="line" smooth="yes"/>
      <point x="221" y="57.6667"/>
      <point x="231.667" y="48.3333"/>
      <point x="243.333" y="47.3333" type="curve" smooth="yes"/>
      <point x="292.333" y="44.3333" type="line"/>
      <point x="292.333" y="0" type="line"/>
    </contour>
  </outline>
</glyph>
<glyph name="imacron" format="2">
  <advance width="323"/>
  <unicode hex="012B"/>
  <outline>
    <contour>
      <point x="-8.5" y="558.333" type="line"/>
      <point x="-8.5" y="633.333" type="line"/>
      <point x="329.833" y="633.333" type="line"/>
      <point x="329.833" y="558.333" type="line"/>
    </contour>
    <contour>
      <point x="32.6667" y="0" type="line"/>
      <point x="32.6667" y="44.3333" type="line"/>
      <point x="79.6667" y="47.3333" type="line" smooth="yes"/>
      <point x="91.3333" y="48.3333"/>
      <point x="101.333" y="57.6667"/>
      <point x="101.333" y="69.6667" type="curve" smooth="yes"/>
      <point x="101.333" y="409.667" type="line"/>
      <point x="35.6667" y="409.667" type="line"/>
      <point x="35.6667" y="448" type="line"/>
      <point x="173.667" y="494" type="line"/>
      <point x="221" y="494" type="line"/>
      <point x="221" y="69.6667" type="line" smooth="yes"/>
      <point x="221" y="57.6667"/>
      <point x="231.667" y="48.3333"/>
      <point x="243.333" y="47.3333" type="curve" smooth="yes"/>
      <point x="292.333" y="44.3333" type="line"/>
      <point x="292.333" y="0" type="line"/>
    </contour>
  </outline>
</glyph>
<glyph name="Ibreve" format="2">
  <advance width="349"/>
  <unicode hex="012C"/>
  <outline>
    <contour>
      <point x="19.8333" y="905" type="curve"/>
      <point x="67.5" y="905" type="line"/>
      <point x="78.2288" y="854.175"/>
      <point x="118.173" y="823.333"/>
      <point x="173.833" y="823.333" type="curve" smooth="yes"/>
      <point x="229.348" y="823.333"/>
      <point x="268.796" y="853.327"/>
      <point x="279.5" y="905" type="curve"/>
      <point x="328.833" y="905" type="line"/>
      <point x="328.833" y="808.932"/>
      <point x="267.098" y="746.667"/>
      <point x="173.5" y="746.667" type="curve" smooth="yes"/>
      <point x="79.8333" y="746.667"/>
      <point x="19.8333" y="808.667"/>
    </contour>
    <contour>
      <point x="26.3333" y="0" type="line"/>
      <point x="26.3333" y="48.3333" type="line"/>
      <point x="87.6667" y="53" type="line" smooth="yes"/>
      <point x="99.6667" y="54"/>
      <point x="109.333" y="62.3333"/>
      <point x="109.333" y="75" type="curve" smooth="yes"/>
      <point x="109.333" y="596" type="line" smooth="yes"/>
      <point x="109.333" y="608.667"/>
      <point x="99.6667" y="616.667"/>
      <point x="87.6667" y="617.667" type="curve" smooth="yes"/>
      <point x="26.3333" y="622.333" type="line"/>
      <point x="26.3333" y="671" type="line"/>
      <point x="322.333" y="671" type="line"/>
      <point x="322.333" y="622.333" type="line"/>
      <point x="260.667" y="617.667" type="line" smooth="yes"/>
      <point x="249.667" y="616.667"/>
      <point x="238.333" y="608.333"/>
      <point x="238.333" y="596" type="curve" smooth="yes"/>
      <point x="238.333" y="75" type="line" smooth="yes"/>
      <point x="238.333" y="62.6667"/>
      <point x="249.667" y="54"/>
      <point x="260.667" y="53" type="curve" smooth="yes"/>
      <point x="322.333" y="48.3333" type="line"/>
      <point x="322.333" y="0" type="line"/>
    </contour>
  </outline>
</glyph>
<glyph name="ij" format="2">
  <advance width="636"/>
  <unicode hex="0133"/>
  <outline>
    <contour>
      <point x="32.6667" y="0" type="line"/>
      <point x="32.6667" y="44.3333" type="line"/>
      <point x="79.6667" y="47.3333" type="line" smooth="yes"/>
      <point x="91.3333" y="48.3333"/>
      <point x="101.333" y="57.6667"/>
      <point x="101.333" y="69.6667" type="curve" smooth="yes"/>
      <point x="101.333" y="412.667" type="line"/>
      <point x="35.6667" y="412.667" type="line"/>
      <point x="35.6667" y="451.667" type="line"/>
      <point x="173.667" y="497.667" type="line"/>
      <point x="221" y="497.667" type="line"/>
      <point x="221" y="69.6667" type="line" smooth="yes"/>
      <point x="221" y="57.6667"/>
      <point x="231.667" y="48.3333"/>
      <point x="243.333" y="47.3333" type="curve" smooth="yes"/>
      <point x="292.333" y="44.3333" type="line"/>
      <point x="292.333" y="0" type="line"/>
    </contour>
    <contour>
      <point x="93" y="657.667" type="curve" smooth="yes"/>
      <point x="93" y="698"/>
      <point x="124.667" y="729.333"/>
      <point x="165" y="729.333" type="curve" smooth="yes"/>
      <point x="205.333" y="729.333"/>
      <point x="237.333" y="698"/>
      <point x="237.333" y="657.667" type="curve" smooth="yes"/>
      <point x="237.333" y="617.333"/>
      <point x="205.333" y="585"/>
      <point x="165" y="585" type="curve" smooth="yes"/>
      <point x="124.667" y="585"/>
      <point x="93" y="617.333"/>
    </contour>
    <contour>
      <point x="236.667" y="-161.333" type="curve" smooth="yes"/>
      <point x="236.667" y="-126.333"/>
      <point x="263.333" y="-102.667"/>
      <point x="293.667" y="-97.3333" type="curve"/>
      <point x="391.333" y="-185.667" type="line"/>
      <point x="424" y="-143"/>
      <point x="426" y="-44.3333"/>
      <point x="426" y="-10.3333" type="curve" smooth="yes"/>
      <point x="426" y="413.667" type="line"/>
      <point x="355" y="413.667" type="line"/>
      <point x="355" y="452" type="line"/>
      <point x="498" y="498" type="line"/>
      <point x="545.667" y="498" type="line"/>
      <point x="545.667" y="52.6667" type="line" smooth="yes"/>
      <point x="545.667" y="-100.455"/>
      <point x="483.086" y="-230.333"/>
      <point x="328.667" y="-230.333" type="curve" smooth="yes"/>
      <point x="279" y="-230.333"/>
      <point x="236.667" y="-207.333"/>
    </contour>
    <contour>
      <point x="411.667" y="657.667" type="curve" smooth="yes"/>
      <point x="411.667" y="697.741"/>
      <point x="444.259" y="729.667"/>
      <point x="484.333" y="729.667" type="curve" smooth="yes"/>
      <point x="524.408" y="729.667"/>
      <point x="556.333" y="697.741"/>
      <point x="556.333" y="657.667" type="curve" smooth="yes"/>
      <point x="556.333" y="617.592"/>
      <point x="524.408" y="585"/>
      <point x="484.333" y="585" type="curve" smooth="yes"/>
      <point x="444.259" y="585"/>
      <point x="411.667" y="617.592"/>
    </contour>
  </outline>
</glyph>
<glyph name="jcircumflex" format="2">
  <advance width="313"/>
  <unicode hex="0135"/>
  <outline>
    <contour>
      <point x="-86.3333" y="-161.333" type="curve" smooth="yes"/>
      <point x="-86.3333" y="-126.333"/>
      <point x="-59.6667" y="-102.667"/>
      <point x="-29.3333" y="-97.3333" type="curve"/>
      <point x="68.3333" y="-185.667" type="line"/>
      <point x="101" y="-143"/>
      <point x="103" y="-48.3333"/>
      <point x="103" y="-11" type="curve" smooth="yes"/>
      <point x="103" y="413.667" type="line"/>
      <point x="32" y="413.667" type="line"/>
      <point x="32" y="452" type="line"/>
      <point x="175" y="498" type="line"/>
      <point x="222.667" y="498" type="line"/>
      <point x="222.667" y="52.6667" type="line" smooth="yes"/>
      <point x="222.667" y="-99.8125"/>
      <point x="159.436" y="-230.333"/>
      <point x="5.66667" y="-230.333" type="curve" smooth="yes"/>
      <point x="-44" y="-230.333"/>
      <point x="-86.3333" y="-207.333"/>
    </contour>
    <contour>
      <point x="-5.66667" y="558.333" type="line"/>
      <point x="110.333" y="728.667" type="line"/>
      <point x="214.333" y="728.667" type="line"/>
      <point x="330.333" y="558.333" type="line"/>
      <point x="255" y="558.333" type="line"/>
      <point x="162.667" y="654.667" type="line"/>
      <point x="70" y="558.333" type="line"/>
    </contour>
  </outline>
</glyph>
<glyph name="kgreenlandic" format="2">
  <advance width="597"/>
  <unicode hex="0138"/>
  <outline>
    <contour>
      <point x="18" y="401.333" type="line"/>
      <point x="18" y="439.667" type="line"/>
      <point x="162" y="486" type="line"/>
      <point x="209.667" y="486" type="line"/>
      <point x="209.667" y="70" type="line" smooth="yes"/>
      <point x="209.667" y="58"/>
      <point x="218.995" y="48.2562"/>
      <point x="231.333" y="47.3333" type="curve" smooth="yes"/>
      <point x="272.333" y="44.3333" type="line"/>
      <point x="272.333" y="0" type="line"/>
      <point x="24" y="0" type="line"/>
      <point x="24" y="44.3333" type="line"/>
      <point x="68.3333" y="47.3333" type="line" smooth="yes"/>
      <point x="80.0066" y="48.2249"/>
      <point x="90" y="58"/>
      <point x="90" y="70" type="curve" smooth="yes"/>
      <point x="90" y="401.333" type="line"/>
    </contour>
    <contour>
      <point x="191.667" y="226.333" type="line"/>
      <point x="191.667" y="258.667" type="line"/>
      <point x="231" y="258.667" type="line"/>
      <point x="369.333" y="420.667" type="line"/>
      <point x="371.364" y="422.788"/>
      <point x="372.421" y="425.56"/>
      <point x="372.421" y="428.333" type="curve" smooth="yes"/>
      <point x="372.421" y="433.315"/>
      <point x="368.269" y="436.779"/>
      <point x="362" y="437.667" type="curve"/>
      <point x="323" y="441.667" type="line"/>
      <point x="323" y="486" type="line"/>
      <point x="526.333" y="486" type="line"/>
      <point x="526.333" y="441.667" type="line"/>
      <point x="461" y="434" type="line"/>
      <point x="345.667" y="305.667" type="line"/>
      <point x="505.667" y="49.6667" type="line"/>
      <point x="562.667" y="44.3333" type="line"/>
      <point x="562.667" y="0" type="line"/>
      <point x="374.667" y="0" type="line"/>
      <point x="374.667" y="40.3333" type="line"/>
      <point x="259.667" y="226.333" type="line"/>
    </contour>
  </outline>
</glyph>
<glyph name="Lcommaaccent" format="2">
  <advance width="546"/>
  <unicode hex="013B"/>
  <outline>
    <contour>
      <point x="27" y="0" type="line"/>
      <point x="27" y="48.3333" type="line"/>
      <point x="83" y="53" type="line" smooth="yes"/>
      <point x="95" y="54"/>
      <point x="104.667" y="62.3333"/>
      <point x="104.667" y="75" type="curve" smooth="yes"/>
      <point x="104.667" y="596" type="line" smooth="yes"/>
      <point x="104.667" y="608.667"/>
      <point x="95" y="617"/>
      <point x="83" y="618" type="curve" smooth="yes"/>
      <point x="27" y="622.667" type="line"/>
      <point x="27" y="671" type="line"/>
      <point x="310.667" y="671" type="line"/>
      <point x="310.667" y="622.667" type="line"/>
      <point x="255.667" y="618" type="line" smooth="yes"/>
      <point x="243.667" y="617"/>
      <point x="233.667" y="608.667"/>
      <point x="233.667" y="596" type="curve" smooth="yes"/>
      <point x="233.667" y="57" type="line"/>
      <point x="419.667" y="57" type="line" smooth="yes"/>
      <point x="432.333" y="57"/>
      <point x="442" y="69.6667"/>
      <point x="443" y="78" type="curve" smooth="yes"/>
      <point x="457" y="194.667" type="line"/>
      <point x="529.667" y="194.667" type="line"/>
      <point x="529.667" y="0" type="line"/>
    </contour>
    <contour>
      <point x="206.333" y="-114.333" type="curve" smooth="yes"/>
      <point x="206.333" y="-78.6667"/>
      <point x="236.667" y="-60"/>
      <point x="270" y="-60" type="curve" smooth="yes"/>
      <point x="319.333" y="-60"/>
      <point x="351" y="-96.3333"/>
      <point x="351" y="-144" type="curve" smooth="yes"/>
      <point x="351" y="-214.555"/>
      <point x="288.027" y="-259.384"/>
      <point x="215" y="-273" type="curve"/>
      <point x="215" y="-236.333" type="line"/>
      <point x="256.333" y="-224.333"/>
      <point x="285.667" y="-197.333"/>
      <point x="285.667" y="-156" type="curve"/>
      <point x="224.667" y="-156" type="line"/>
      <point x="213.333" y="-145.333"/>
      <point x="206.333" y="-130.333"/>
    </contour>
  </outline>
</glyph>
<glyph name="lcommaaccent" format="2">
  <advance width="321"/>
  <unicode hex="013C"/>
  <outline>
    <contour>
      <point x="28" y="654.333" type="line"/>
      <point x="28" y="692.667" type="line"/>
      <point x="172.667" y="739" type="line"/>
      <point x="220.333" y="739" type="line"/>
      <point x="220.333" y="69.6667" type="line" smooth="yes"/>
      <point x="220.333" y="58"/>
      <point x="230.333" y="48"/>
      <point x="242" y="47.3333" type="curve" smooth="yes"/>
      <point x="293.333" y="44.3333" type="line"/>
      <point x="293.333" y="0" type="line"/>
      <point x="28.3333" y="0" type="line"/>
      <point x="28.3333" y="44.3333" type="line"/>
      <point x="78.6667" y="47.3333" type="line" smooth="yes"/>
      <point x="90.3333" y="48"/>
      <point x="100.667" y="58"/>
      <point x="100.667" y="69.6667" type="curve" smooth="yes"/>
      <point x="100.667" y="654.333" type="line"/>
    </contour>
    <contour>
      <point x="88.5" y="-114.333" type="curve" smooth="yes"/>
      <point x="88.5" y="-78.6667"/>
      <point x="118.833" y="-60"/>
      <point x="152.167" y="-60" type="curve" smooth="yes"/>
      <point x="201.5" y="-60"/>
      <point x="233.167" y="-96.3333"/>
      <point x="233.167" y="-144" type="curve" smooth="yes"/>
      <point x="233.167" y="-214.555"/>
      <point x="170.86" y="-259.384"/>
      <point x="97.8333" y="-273" type="curve"/>
      <point x="97.8333" y="-236.333" type="line"/>
      <point x="139.167" y="-224.333"/>
      <point x="168.5" y="-197.333"/>
      <point x="168.5" y="-156" type="curve"/>
      <point x="106.833" y="-156" type="line"/>
      <point x="95.5" y="-145.333"/>
      <point x="88.5" y="-130.333"/>
    </contour>
  </outline>
</glyph>
<glyph name="ldot" format="2">
  <advance width="414"/>
  <unicode hex="0140"/>
  <outline>
    <contour>
      <point x="28" y="654.333" type="line"/>
      <point x="28" y="692.667" type="line"/>
      <point x="172.667" y="739" type="line"/>
      <point x="220.333" y="739" type="line"/>
      <point x="220.333" y="69.6667" type="line" smooth="yes"/>
      <point x="220.333" y="58"/>
      <point x="230.333" y="48"/>
      <point x="242" y="47.3333" type="curve" smooth="yes"/>
      <point x="293.333" y="44.3333" type="line"/>
      <point x="293.333" y="0" type="line"/>
      <point x="28.3333" y="0" type="line"/>
      <point x="28.3333" y="44.3333" type="line"/>
      <point x="78.6667" y="47.3333" type="line" smooth="yes"/>
      <point x="90.3333" y="48"/>
      <point x="100.667" y="58"/>
      <point x="100.667" y="69.6667" type="curve" smooth="yes"/>
      <point x="100.667" y="654.333" type="line"/>
    </contour>
    <contour>
      <point x="275.667" y="340" type="curve" smooth="yes"/>
      <point x="275.667" y="373.333"/>
      <point x="301.333" y="399"/>
      <point x="334.667" y="399" type="curve" smooth="yes"/>
      <point x="368" y="399"/>
      <point x="393.667" y="373.333"/>
      <point x="393.667" y="340" type="curve" smooth="yes"/>
      <point x="393.667" y="306.667"/>
      <point x="368" y="281"/>
      <point x="334.667" y="281" type="curve" smooth="yes"/>
      <point x="301.333" y="281"/>
      <point x="275.667" y="306.667"/>
    </contour>
  </outline>
</glyph>
<glyph name="Lslash" format="2">
  <advance width="546"/>
  <unicode hex="0141"/>
  <outline>
    <contour>
      <point x="26.6667" y="0" type="line"/>
      <point x="26.6667" y="48.3333" type="line"/>
      <point x="83" y="53" type="line" smooth="yes"/>
      <point x="95.3333" y="54"/>
      <point x="104.667" y="62"/>
      <point x="104.667" y="75" type="curve" smooth="yes"/>
      <point x="104.667" y="276" type="line"/>
      <point x="29.6667" y="226" type="line"/>
      <point x="3.33333" y="272.333" type="line"/>
      <point x="104.667" y="340.333" type="line"/>
      <point x="104.667" y="596" type="line" smooth="yes"/>
      <point x="104.667" y="608.667"/>
      <point x="95" y="616.667"/>
      <point x="83" y="617.667" type="curve" smooth="yes"/>
      <point x="26.6667" y="622.667" type="line"/>
      <point x="26.6667" y="671" type="line"/>
      <point x="312.667" y="671" type="line"/>
      <point x="312.667" y="622.667" type="line"/>
      <point x="255.667" y="617.667" type="line" smooth="yes"/>
      <point x="243.667" y="616.667"/>
      <point x="233.667" y="608.667"/>
      <point x="233.667" y="596" type="curve" smooth="yes"/>
      <point x="233.667" y="426" type="line"/>
      <point x="332" y="491" type="line"/>
      <point x="361.667" y="447.333" type="line"/>
      <point x="233.667" y="362" type="line"/>
      <point x="233.667" y="57" type="line"/>
      <point x="418.333" y="57" type="line" smooth="yes"/>
      <point x="432.333" y="57"/>
      <point x="442" y="70"/>
      <point x="443" y="79.3333" type="curve" smooth="yes"/>
      <point x="457.333" y="194.667" type="line"/>
      <point x="529.667" y="194.667" type="line"/>
      <point x="529.667" y="0" type="line"/>
    </contour>
  </outline>
</glyph>
<glyph name="Nacute" format="2">
  <advance width="736"/>
  <unicode hex="0143"/>
  <outline>
    <contour>
      <point x="27" y="622.667" type="line"/>
      <point x="27" y="671" type="line"/>
      <point x="257.667" y="671" type="line"/>
      <point x="257.667" y="644.667" type="line"/>
      <point x="560.667" y="176.333" type="line"/>
      <point x="560.667" y="596" type="line" smooth="yes"/>
      <point x="560.667" y="608.333"/>
      <point x="550" y="617"/>
      <point x="538.333" y="618" type="curve" smooth="yes"/>
      <point x="481.333" y="622.667" type="line"/>
      <point x="481.333" y="671" type="line"/>
      <point x="707.333" y="671" type="line"/>
      <point x="707.333" y="622.667" type="line"/>
      <point x="652.667" y="618" type="line" smooth="yes"/>
      <point x="641.333" y="617"/>
      <point x="631" y="608.667"/>
      <point x="631" y="596" type="curve" smooth="yes"/>
      <point x="631" y="0" type="line"/>
      <point x="523.667" y="0" type="line"/>
      <point x="175" y="539.333" type="line"/>
      <point x="175" y="75" type="line" smooth="yes"/>
      <point x="175" y="62.3333"/>
      <point x="185.333" y="54"/>
      <point x="196.667" y="53" type="curve" smooth="yes"/>
      <point x="253" y="48.3333" type="line"/>
      <point x="253" y="0" type="line"/>
      <point x="27" y="0" type="line"/>
      <point x="27" y="48.3333" type="line"/>
      <point x="82.6667" y="53" type="line" smooth="yes"/>
      <point x="94.6667" y="54"/>
      <point x="104.667" y="62.3333"/>
      <point x="104.667" y="75" type="curve" smooth="yes"/>
      <point x="104.667" y="596" type="line" smooth="yes"/>
      <point x="104.667" y="608.667"/>
      <point x="94.6667" y="617"/>
      <point x="82.6667" y="618" type="curve" smooth="yes"/>
    </contour>
    <contour>
      <point x="320.833" y="746.667" type="line"/>
      <point x="456.833" y="899" type="line" smooth="yes"/>
      <point x="476.167" y="920.667"/>
      <point x="488.5" y="929.333"/>
      <point x="515.833" y="929.333" type="curve" smooth="yes"/>
      <point x="554.386" y="929.333"/>
      <point x="570.167" y="904.529"/>
      <point x="570.167" y="879" type="curve" smooth="yes"/>
      <point x="570.167" y="864"/>
      <point x="558.171" y="845.327"/>
      <point x="545.167" y="837.667" type="curve" smooth="yes"/>
      <point x="386.167" y="746.667" type="line"/>
    </contour>
  </outline>
</glyph>
<glyph name="ncommaaccent" format="2">
  <advance width="605"/>
  <unicode hex="0146"/>
  <outline>
    <contour>
      <point x="21" y="401" type="line"/>
      <point x="21" y="439.333" type="line"/>
      <point x="161.667" y="486" type="line"/>
      <point x="210" y="486" type="line"/>
      <point x="210" y="436.667" type="line"/>
      <point x="266.447" y="476.177"/>
      <point x="327.276" y="498"/>
      <point x="381.667" y="498" type="curve" smooth="yes"/>
      <point x="471.487" y="498"/>
      <point x="517" y="441.405"/>
      <point x="517" y="330.667" type="curve" smooth="yes"/>
      <point x="517" y="69.6667" type="line" smooth="yes"/>
      <point x="517" y="57.6667"/>
      <point x="527.667" y="48.3333"/>
      <point x="539.333" y="47.3333" type="curve" smooth="yes"/>
      <point x="574.667" y="44.3333" type="line"/>
      <point x="574.667" y="0" type="line"/>
      <point x="337" y="0" type="line"/>
      <point x="337" y="44.3333" type="line"/>
      <point x="375.667" y="47.3333" type="line" smooth="yes"/>
      <point x="387.333" y="48.3333"/>
      <point x="397.333" y="57.6667"/>
      <point x="397.333" y="69.6667" type="curve" smooth="yes"/>
      <point x="397.333" y="313.333" type="line" smooth="yes"/>
      <point x="397.333" y="376.783"/>
      <point x="366.555" y="412.333"/>
      <point x="310.667" y="412.333" type="curve" smooth="yes"/>
      <point x="261.718" y="412.333"/>
      <point x="222.006" y="400.403"/>
      <point x="210" y="394" type="curve"/>
      <point x="210" y="69.6667" type="line" smooth="yes"/>
      <point x="210" y="57.6667"/>
      <point x="220.667" y="48.3333"/>
      <point x="232.333" y="47.3333" type="curve" smooth="yes"/>
      <point x="266.333" y="44.3333" type="line"/>
      <point x="266.333" y="0" type="line"/>
      <point x="28.3333" y="0" type="line"/>
      <point x="28.3333" y="44.3333" type="line"/>
      <point x="68.6667" y="47.3333" type="line" smooth="yes"/>
      <point x="80.3333" y="48.3333"/>
      <point x="90.3333" y="57.6667"/>
      <point x="90.3333" y="69.6667" type="curve" smooth="yes"/>
      <point x="90.3333" y="401" type="line"/>
    </contour>
    <contour>
      <point x="229.167" y="-114" type="curve" smooth="yes"/>
      <point x="229.167" y="-78.3333"/>
      <point x="259.5" y="-59.6667"/>
      <point x="292.833" y="-59.6667" type="curve" smooth="yes"/>
      <point x="342.167" y="-59.6667"/>
      <point x="373.833" y="-96"/>
      <point x="373.833" y="-143.667" type="curve" smooth="yes"/>
      <point x="373.833" y="-214.222"/>
      <point x="311.527" y="-259.051"/>
      <point x="238.5" y="-272.667" type="curve"/>
      <point x="238.5" y="-236" type="line"/>
      <point x="279.833" y="-224"/>
      <point x="309.167" y="-197"/>
      <point x="309.167" y="-155.667" type="curve"/>
      <point x="247.5" y="-155.667" type="line"/>
      <point x="236.167" y="-145"/>
      <point x="229.167" y="-130"/>
    </contour>
  </outline>
</glyph>
<glyph name="napostrophe" format="2">
  <advance width="779"/>
  <unicode hex="0149"/>
  <outline>
    <contour>
      <point x="49" y="426.667" type="line"/>
      <point x="114.775" y="468.743"/>
      <point x="138.897" y="512.267"/>
      <point x="139.667" y="571.333" type="curve"/>
      <point x="139.667" y="580.667" type="line"/>
      <point x="79.3333" y="580.667" type="line"/>
      <point x="73.3333" y="588"/>
      <point x="61" y="604.333"/>
      <point x="61" y="630.667" type="curve" smooth="yes"/>
      <point x="61" y="670.667"/>
      <point x="83.8724" y="699.667"/>
      <point x="129.333" y="699.667" type="curve" smooth="yes"/>
      <point x="182.366" y="699.667"/>
      <point x="217" y="656.88"/>
      <point x="217" y="599.333" type="curve" smooth="yes"/>
      <point x="217" y="470.838"/>
      <point x="117.907" y="417.35"/>
      <point x="71.3333" y="398.667" type="curve"/>
    </contour>
    <contour>
      <point x="195" y="401" type="line"/>
      <point x="195" y="439.333" type="line"/>
      <point x="335.667" y="486" type="line"/>
      <point x="384" y="486" type="line"/>
      <point x="384" y="436.667" type="line"/>
      <point x="440.447" y="476.177"/>
      <point x="501.276" y="498"/>
      <point x="555.667" y="498" type="curve" smooth="yes"/>
      <point x="645.487" y="498"/>
      <point x="691" y="441.405"/>
      <point x="691" y="330.667" type="curve" smooth="yes"/>
      <point x="691" y="69.6667" type="line" smooth="yes"/>
      <point x="691" y="57.6667"/>
      <point x="701.667" y="48.3333"/>
      <point x="713.333" y="47.3333" type="curve" smooth="yes"/>
      <point x="748.667" y="44.3333" type="line"/>
      <point x="748.667" y="0" type="line"/>
      <point x="511" y="0" type="line"/>
      <point x="511" y="44.3333" type="line"/>
      <point x="549.667" y="47.3333" type="line" smooth="yes"/>
      <point x="561.333" y="48.3333"/>
      <point x="571.333" y="57.6667"/>
      <point x="571.333" y="69.6667" type="curve" smooth="yes"/>
      <point x="571.333" y="313.333" type="line" smooth="yes"/>
      <point x="571.333" y="376.783"/>
      <point x="540.555" y="412.333"/>
      <point x="484.667" y="412.333" type="curve" smooth="yes"/>
      <point x="435.718" y="412.333"/>
      <point x="396.006" y="400.403"/>
      <point x="384" y="394" type="curve"/>
      <point x="384" y="69.6667" type="line" smooth="yes"/>
      <point x="384" y="57.6667"/>
      <point x="394.667" y="48.3333"/>
      <point x="406.333" y="47.3333" type="curve" smooth="yes"/>
      <point x="440.333" y="44.3333" type="line"/>
      <point x="440.333" y="0" type="line"/>
      <point x="202.333" y="0" type="line"/>
      <point x="202.333" y="44.3333" type="line"/>
      <point x="242.667" y="47.3333" type="line" smooth="yes"/>
      <point x="254.333" y="48.3333"/>
      <point x="264.333" y="57.6667"/>
      <point x="264.333" y="69.6667" type="curve" smooth="yes"/>
      <point x="264.333" y="401" type="line"/>
    </contour>
  </outline>
</glyph>
<glyph name="eng" format="2">
  <advance width="605"/>
  <unicode hex="014B"/>
  <outline>
    <contour>
      <point x="20.6667" y="409.333" type="line"/>
      <point x="20.6667" y="447.667" type="line"/>
      <point x="162.333" y="494.333" type="line"/>
      <point x="210.667" y="494.333" type="line"/>
      <point x="210.667" y="437" type="line"/>
      <point x="225.428" y="445.703"/>
      <point x="304.767" y="498"/>
      <point x="384.333" y="498" type="curve" smooth="yes"/>
      <point x="491.775" y="498"/>
      <point x="527.333" y="419.87"/>
      <point x="527.333" y="330.333" type="curve" smooth="yes"/>
      <point x="527.333" y="-13" type="line" smooth="yes"/>
      <point x="527.333" y="-138.322"/>
      <point x="444.079" y="-230.333"/>
      <point x="296" y="-230.333" type="curve" smooth="yes"/>
      <point x="251" y="-230.333"/>
      <point x="197.667" y="-205.333"/>
      <point x="197.667" y="-156.667" type="curve" smooth="yes"/>
      <point x="197.667" y="-124.776"/>
      <point x="220.834" y="-89.2777"/>
      <point x="254.667" y="-86.6667" type="curve"/>
      <point x="351" y="-181.333" type="line"/>
      <point x="382.696" y="-181.333"/>
      <point x="408.667" y="-140.47"/>
      <point x="408.667" y="-43.3333" type="curve" smooth="yes"/>
      <point x="408.667" y="313.333" type="line" smooth="yes"/>
      <point x="408.667" y="369.333"/>
      <point x="376.667" y="412.667"/>
      <point x="314" y="412.667" type="curve" smooth="yes"/>
      <point x="263.333" y="412.667"/>
      <point x="220.333" y="399.333"/>
      <point x="210.667" y="394.333" type="curve"/>
      <point x="210.667" y="70" type="line" smooth="yes"/>
      <point x="210.667" y="58.6667"/>
      <point x="222.329" y="48.6264"/>
      <point x="233.333" y="47.6667" type="curve" smooth="yes"/>
      <point x="267" y="44.3333" type="line"/>
      <point x="267" y="0.333333" type="line"/>
      <point x="28.3333" y="0.333333" type="line"/>
      <point x="28.3333" y="44.3333" type="line"/>
      <point x="68.3333" y="47.6667" type="line" smooth="yes"/>
      <point x="79.3402" y="48.5839"/>
      <point x="90.3333" y="58.6667"/>
      <point x="90.3333" y="70" type="curve" smooth="yes"/>
      <point x="90.3333" y="409.333" type="line"/>
    </contour>
  </outline>
</glyph>
<glyph name="obreve" format="2">
  <advance width="569"/>
  <unicode hex="014F"/>
  <outline>
    <contour>
      <point x="31.3333" y="241.333" type="curve" smooth="yes"/>
      <point x="31.3333" y="397.667"/>
      <point x="137" y="498.333"/>
      <point x="287" y="498.333" type="curve" smooth="yes"/>
      <point x="443.667" y="498.333"/>
      <point x="537.667" y="389"/>
      <point x="537.667" y="240.667" type="curve" smooth="yes"/>
      <point x="537.667" y="94.6667"/>
      <point x="438.667" y="-12.3333"/>
      <point x="281.333" y="-12.3333" type="curve" smooth="yes"/>
      <point x="133.333" y="-12.3333"/>
      <point x="31.3333" y="89.3333"/>
    </contour>
    <contour>
      <point x="133.167" y="716.667" type="curve"/>
      <point x="180.833" y="716.667" type="line"/>
      <point x="191.562" y="665.842"/>
      <point x="231.506" y="635"/>
      <point x="287.167" y="635" type="curve" smooth="yes"/>
      <point x="342.681" y="635"/>
      <point x="382.13" y="664.994"/>
      <point x="392.833" y="716.667" type="curve"/>
      <point x="440.833" y="716.667" type="line"/>
      <point x="440.833" y="620.599"/>
      <point x="380.432" y="558.333"/>
      <point x="286.833" y="558.333" type="curve" smooth="yes"/>
      <point x="193.167" y="558.333"/>
      <point x="133.167" y="620.333"/>
    </contour>
    <contour>
      <point x="166" y="244" type="curve" smooth="yes"/>
      <point x="166" y="156.667"/>
      <point x="189.333" y="41.3333"/>
      <point x="284.667" y="41.3333" type="curve" smooth="yes"/>
      <point x="378.667" y="41.3333"/>
      <point x="403.333" y="152"/>
      <point x="403.333" y="241.333" type="curve" smooth="yes"/>
      <point x="403.333" y="328"/>
      <point x="379" y="445.333"/>
      <point x="284.333" y="445.333" type="curve" smooth="yes"/>
      <point x="191" y="445.333"/>
      <point x="166" y="331.333"/>
    </contour>
  </outline>
</glyph>
<glyph name="Scaron" format="2">
  <advance width="531"/>
  <unicode hex="0160"/>
  <outline>
    <contour>
      <point x="38" y="21.6667" type="curve"/>
      <point x="38" y="202.667" type="line"/>
      <point x="111.667" y="202.667" type="line"/>
      <point x="127.333" y="84.3333" type="line" smooth="yes"/>
      <point x="129.772" y="62.2718"/>
      <point x="170.718" y="47.3333"/>
      <point x="226.333" y="47.3333" type="curve" smooth="yes"/>
      <point x="306.742" y="47.3333"/>
      <point x="361.333" y="88.5101"/>
      <point x="361.333" y="150" type="curve" smooth="yes"/>
      <point x="361.333" y="206.123"/>
      <point x="322.072" y="250.348"/>
      <point x="237" y="288.667" type="curve"/>
      <point x="187.667" y="308.667" type="line"/>
      <point x="95.6338" y="349.403"/>
      <point x="50.6667" y="407.311"/>
      <point x="50.6667" y="486.333" type="curve" smooth="yes"/>
      <point x="50.6667" y="605.939"/>
      <point x="146.213" y="686.667"/>
      <point x="289" y="686.667" type="curve" smooth="yes"/>
      <point x="374.5" y="686.667"/>
      <point x="447.167" y="657.333"/>
      <point x="473.667" y="649.333" type="curve"/>
      <point x="473.667" y="488" type="line"/>
      <point x="403.333" y="488" type="line"/>
      <point x="387" y="591.333" type="line"/>
      <point x="383.22" y="611.239"/>
      <point x="349.857" y="624.333"/>
      <point x="303" y="624.333" type="curve" smooth="yes"/>
      <point x="228.168" y="624.333"/>
      <point x="178" y="584.934"/>
      <point x="178" y="525" type="curve" smooth="yes"/>
      <point x="178" y="472.133"/>
      <point x="211.667" y="436.25"/>
      <point x="301.333" y="394" type="curve"/>
      <point x="347" y="373.667" type="line" smooth="yes"/>
      <point x="451.397" y="324.925"/>
      <point x="493.667" y="272.316"/>
      <point x="493.667" y="193.333" type="curve" smooth="yes"/>
      <point x="493.667" y="67.4873"/>
      <point x="387.96" y="-15.6667"/>
      <point x="227.333" y="-15.6667" type="curve" smooth="yes"/>
      <point x="138.044" y="-15.6667"/>
      <point x="61.363" y="12.9056"/>
    </contour>
    <contour>
      <point x="121" y="917" type="line"/>
      <point x="196.667" y="917" type="line"/>
      <point x="289.333" y="821.333" type="line"/>
      <point x="381.667" y="917" type="line"/>
      <point x="457" y="917" type="line"/>
      <point x="341" y="746.667" type="line"/>
      <point x="237" y="746.667" type="line"/>
    </contour>
  </outline>
</glyph>
<glyph name="uni0162" format="2">
  <advance width="605"/>
  <unicode hex="0162"/>
  <outline>
    <contour>
      <point x="16" y="495.667" type="line"/>
      <point x="16" y="671" type="line"/>
      <point x="589.667" y="671" type="line"/>
      <point x="589.667" y="495.667" type="line"/>
      <point x="521.333" y="495.667" type="line"/>
      <point x="504.667" y="601" type="line"/>
      <point x="503.667" y="609.667"/>
      <point x="498.333" y="614.667"/>
      <point x="489.667" y="614.667" type="curve" smooth="yes"/>
      <point x="367.333" y="614.667" type="line"/>
      <point x="367.333" y="75" type="line" smooth="yes"/>
      <point x="367.333" y="62.3333"/>
      <point x="377" y="54"/>
      <point x="389" y="53" type="curve" smooth="yes"/>
      <point x="449.667" y="48.3333" type="line"/>
      <point x="449.667" y="0" type="line"/>
      <point x="156" y="0" type="line"/>
      <point x="156" y="48.3333" type="line"/>
      <point x="216" y="53" type="line" smooth="yes"/>
      <point x="228" y="54"/>
      <point x="238.333" y="62.3333"/>
      <point x="238.333" y="75" type="curve" smooth="yes"/>
      <point x="238.333" y="614.667" type="line"/>
      <point x="115.667" y="614.667" type="line" smooth="yes"/>
      <point x="107" y="614.667"/>
      <point x="101" y="609.667"/>
      <point x="100" y="601" type="curve"/>
      <point x="83.3333" y="495.667" type="line"/>
    </contour>
    <contour>
      <point x="224.167" y="-224.889" type="curve"/>
      <point x="224.167" y="-178.556" type="line"/>
      <point x="230.167" y="-179.889"/>
      <point x="262.833" y="-186.556"/>
      <point x="285.833" y="-186.556" type="curve" smooth="yes"/>
      <point x="313.833" y="-186.556"/>
      <point x="347.167" y="-179.556"/>
      <point x="347.167" y="-150.222" type="curve" smooth="yes"/>
      <point x="347.167" y="-125.556"/>
      <point x="327.833" y="-115.222"/>
      <point x="305.5" y="-115.222" type="curve" smooth="yes"/>
      <point x="297.5" y="-115.222"/>
      <point x="283.167" y="-117.222"/>
      <point x="279.833" y="-118.556" type="curve"/>
      <point x="279.833" y="8.44433" type="line"/>
      <point x="326.5" y="8.44433" type="line"/>
      <point x="326.5" y="-65.5557" type="line"/>
      <point x="331.167" y="-63.889"/>
      <point x="335.167" y="-62.889"/>
      <point x="343.5" y="-62.889" type="curve" smooth="yes"/>
      <point x="389.5" y="-62.889"/>
      <point x="423.5" y="-86.5557"/>
      <point x="423.5" y="-137.222" type="curve" smooth="yes"/>
      <point x="423.5" y="-202.222"/>
      <point x="371.5" y="-235.556"/>
      <point x="302.167" y="-235.556" type="curve" smooth="yes"/>
      <point x="265.833" y="-235.556"/>
      <point x="231.167" y="-226.889"/>
    </contour>
  </outline>
</glyph>
<glyph name="Tcaron" format="2">
  <advance width="605"/>
  <unicode hex="0164"/>
  <outline>
    <contour>
      <point x="16" y="495.667" type="line"/>
      <point x="16" y="671" type="line"/>
      <point x="589.667" y="671" type="line"/>
      <point x="589.667" y="495.667" type="line"/>
      <point x="521.333" y="495.667" type="line"/>
      <point x="504.667" y="601" type="line"/>
      <point x="503.667" y="609.667"/>
      <point x="498.333" y="614.667"/>
      <point x="489.667" y="614.667" type="curve" smooth="yes"/>
      <point x="367.333" y="614.667" type="line"/>
      <point x="367.333" y="75" type="line" smooth="yes"/>
      <point x="367.333" y="62.3333"/>
      <point x="377" y="54"/>
      <point x="389" y="53" type="curve" smooth="yes"/>
      <point x="449.667" y="48.3333" type="line"/>
      <point x="449.667" y="0" type="line"/>
      <point x="156" y="0" type="line"/>
      <point x="156" y="48.3333" type="line"/>
      <point x="216" y="53" type="line" smooth="yes"/>
      <point x="228" y="54"/>
      <point x="238.333" y="62.3333"/>
      <point x="238.333" y="75" type="curve" smooth="yes"/>
      <point x="238.333" y="614.667" type="line"/>
      <point x="115.667" y="614.667" type="line" smooth="yes"/>
      <point x="107" y="614.667"/>
      <point x="101" y="609.667"/>
      <point x="100" y="601" type="curve"/>
      <point x="83.3333" y="495.667" type="line"/>
    </contour>
    <contour>
      <point x="134.5" y="917" type="line"/>
      <point x="210.833" y="917" type="line"/>
      <point x="302.833" y="821.333" type="line"/>
      <point x="395.833" y="917" type="line"/>
      <point x="470.5" y="917" type="line"/>
      <point x="355.167" y="746.667" type="line"/>
      <point x="251.167" y="746.667" type="line"/>
    </contour>
  </outline>
</glyph>
<glyph name="tcaron" format="2">
  <advance width="363"/>
  <unicode hex="0165"/>
  <outline>
    <contour>
      <point x="25" y="426.667" type="line"/>
      <point x="25" y="464.333" type="line"/>
      <point x="99" y="505.667" type="line"/>
      <point x="150" y="611.667" type="line"/>
      <point x="210.667" y="611.667" type="line"/>
      <point x="210.667" y="486" type="line"/>
      <point x="350.333" y="486" type="line"/>
      <point x="350.333" y="426.667" type="line"/>
      <point x="210.667" y="426.667" type="line"/>
      <point x="210.667" y="145.667" type="line" smooth="yes"/>
      <point x="210.667" y="78.6422"/>
      <point x="234.108" y="58"/>
      <point x="284.667" y="58" type="curve" smooth="yes"/>
      <point x="318.239" y="58"/>
      <point x="350.153" y="64.9427"/>
      <point x="358" y="68.3333" type="curve"/>
      <point x="358" y="21.6667" type="line"/>
      <point x="346" y="16"/>
      <point x="278.667" y="-12"/>
      <point x="206.667" y="-12" type="curve" smooth="yes"/>
      <point x="121.667" y="-12"/>
      <point x="90.3333" y="25.3333"/>
      <point x="90.3333" y="107.333" type="curve" smooth="yes"/>
      <point x="90.3333" y="426.667" type="line"/>
    </contour>
    <contour>
      <point x="251.333" y="704.333" type="curve" smooth="yes"/>
      <point x="251.333" y="741.333"/>
      <point x="281.333" y="758.667"/>
      <point x="315" y="758.667" type="curve" smooth="yes"/>
      <point x="364.333" y="758.667"/>
      <point x="396" y="723.333"/>
      <point x="396" y="675.667" type="curve" smooth="yes"/>
      <point x="396" y="604"/>
      <point x="332.667" y="560"/>
      <point x="259.667" y="546" type="curve"/>
      <point x="259.667" y="582.333" type="line"/>
      <point x="301.333" y="594.333"/>
      <point x="331.333" y="621.667"/>
      <point x="331.333" y="663" type="curve"/>
      <point x="269.667" y="663" type="line"/>
      <point x="257.667" y="674.333"/>
      <point x="251.333" y="690"/>
    </contour>
  </outline>
</glyph>
<glyph name="tbar" format="2">
  <advance width="363"/>
  <unicode hex="0167"/>
  <outline>
    <contour>
      <point x="25" y="222" type="line"/>
      <point x="25" y="278" type="line"/>
      <point x="90.3333" y="278" type="line"/>
      <point x="90.3333" y="426.667" type="line"/>
      <point x="25" y="426.667" type="line"/>
      <point x="25" y="464.333" type="line"/>
      <point x="99" y="505.667" type="line"/>
      <point x="150" y="611.667" type="line"/>
      <point x="210.667" y="611.667" type="line"/>
      <point x="210.667" y="486" type="line"/>
      <point x="350.333" y="486" type="line"/>
      <point x="350.333" y="426.667" type="line"/>
      <point x="210.667" y="426.667" type="line"/>
      <point x="210.667" y="278" type="line"/>
      <point x="350.333" y="278" type="line"/>
      <point x="350.333" y="222" type="line"/>
      <point x="210.667" y="222" type="line"/>
      <point x="210.667" y="142.333" type="line" smooth="yes"/>
      <point x="210.667" y="83.9633"/>
      <point x="230.775" y="58"/>
      <point x="284.667" y="58" type="curve" smooth="yes"/>
      <point x="318.239" y="58"/>
      <point x="350.153" y="64.9427"/>
      <point x="358" y="68.3333" type="curve"/>
      <point x="358" y="21.6667" type="line"/>
      <point x="346" y="16"/>
      <point x="278.667" y="-12"/>
      <point x="206.667" y="-12" type="curve" smooth="yes"/>
      <point x="121.667" y="-12"/>
      <point x="90.3333" y="25.3333"/>
      <point x="90.3333" y="107.333" type="curve" smooth="yes"/>
      <point x="90.3333" y="222" type="line"/>
    </contour>
  </outline>
</glyph>
<glyph name="ubreve" format="2">
  <advance width="603"/>
  <unicode hex="016D"/>
  <outline>
    <contour>
      <point x="23.3333" y="400.333" type="line"/>
      <point x="23.3333" y="439" type="line"/>
      <point x="162.333" y="486" type="line"/>
      <point x="210.333" y="486" type="line"/>
      <point x="210.333" y="183" type="line" smooth="yes"/>
      <point x="210.333" y="126.667"/>
      <point x="223.667" y="71.3333"/>
      <point x="304" y="71.3333" type="curve" smooth="yes"/>
      <point x="346.667" y="71.3333"/>
      <point x="383.333" y="87"/>
      <point x="393.667" y="92" type="curve"/>
      <point x="393.667" y="400.333" type="line"/>
      <point x="328.333" y="400.333" type="line"/>
      <point x="328.333" y="439" type="line"/>
      <point x="466.333" y="486" type="line"/>
      <point x="514" y="486" type="line"/>
      <point x="514" y="70" type="line" smooth="yes"/>
      <point x="514" y="58"/>
      <point x="525" y="48.6667"/>
      <point x="536.667" y="47.6667" type="curve" smooth="yes"/>
      <point x="580.667" y="44.3333" type="line"/>
      <point x="580.667" y="0" type="line"/>
      <point x="393.667" y="0" type="line"/>
      <point x="393.667" y="55.3333" type="line"/>
      <point x="381" y="45.6667"/>
      <point x="305.333" y="-12"/>
      <point x="234.667" y="-12" type="curve" smooth="yes"/>
      <point x="126" y="-12"/>
      <point x="90" y="49.3333"/>
      <point x="90" y="150.667" type="curve" smooth="yes"/>
      <point x="90" y="400.333" type="line"/>
    </contour>
    <contour>
      <point x="147.5" y="716.667" type="curve"/>
      <point x="195.167" y="716.667" type="line"/>
      <point x="205.896" y="665.842"/>
      <point x="245.839" y="635"/>
      <point x="301.5" y="635" type="curve" smooth="yes"/>
      <point x="357.014" y="635"/>
      <point x="396.463" y="664.994"/>
      <point x="407.167" y="716.667" type="curve"/>
      <point x="456.5" y="716.667" type="line"/>
      <point x="456.5" y="620.599"/>
      <point x="394.765" y="558.333"/>
      <point x="301.167" y="558.333" type="curve" smooth="yes"/>
      <point x="207.5" y="558.333"/>
      <point x="147.5" y="620.333"/>
    </contour>
  </outline>
</glyph>
<glyph name="uring" format="2">
  <advance width="603"/>
  <unicode hex="016F"/>
  <outline>
    <contour>
      <point x="23.3333" y="400.333" type="line"/>
      <point x="23.3333" y="439" type="line"/>
      <point x="162.333" y="486" type="line"/>
      <point x="210.333" y="486" type="line"/>
      <point x="210.333" y="183" type="line" smooth="yes"/>
      <point x="210.333" y="126.667"/>
      <point x="223.667" y="71.3333"/>
      <point x="304" y="71.3333" type="curve" smooth="yes"/>
      <point x="346.667" y="71.3333"/>
      <point x="383.333" y="87"/>
      <point x="393.667" y="92" type="curve"/>
      <point x="393.667" y="400.333" type="line"/>
      <point x="328.333" y="400.333" type="line"/>
      <point x="328.333" y="439" type="line"/>
      <point x="466.333" y="486" type="line"/>
      <point x="514" y="486" type="line"/>
      <point x="514" y="70" type="line" smooth="yes"/>
      <point x="514" y="58"/>
      <point x="525" y="48.6667"/>
      <point x="536.667" y="47.6667" type="curve" smooth="yes"/>
      <point x="580.667" y="44.3333" type="line"/>
      <point x="580.667" y="0" type="line"/>
      <point x="393.667" y="0" type="line"/>
      <point x="393.667" y="55.3333" type="line"/>
      <point x="381" y="45.6667"/>
      <point x="305.333" y="-12"/>
      <point x="234.667" y="-12" type="curve" smooth="yes"/>
      <point x="126" y="-12"/>
      <point x="90" y="49.3333"/>
      <point x="90" y="150.667" type="curve" smooth="yes"/>
      <point x="90" y="400.333" type="line"/>
    </contour>
    <contour>
      <point x="173.167" y="681.667" type="curve" smooth="yes"/>
      <point x="173.167" y="751.667"/>
      <point x="228.5" y="805.333"/>
      <point x="297.833" y="805.333" type="curve" smooth="yes"/>
      <point x="367.833" y="805.333"/>
      <point x="423.167" y="751.667"/>
      <point x="423.167" y="681.667" type="curve" smooth="yes"/>
      <point x="423.167" y="611.667"/>
      <point x="367.5" y="558.333"/>
      <point x="297.5" y="558.333" type="curve" smooth="yes"/>
      <point x="228.167" y="558.333"/>
      <point x="173.167" y="611.667"/>
    </contour>
    <contour>
      <point x="233.5" y="681.667" type="curve" smooth="yes"/>
      <point x="233.5" y="645"/>
      <point x="261.5" y="616.667"/>
      <point x="297.5" y="616.667" type="curve" smooth="yes"/>
      <point x="334.167" y="616.667"/>
      <point x="362.833" y="645"/>
      <point x="362.833" y="681.667" type="curve" smooth="yes"/>
      <point x="362.833" y="718.333"/>
      <point x="334.167" y="747.333"/>
      <point x="297.5" y="747.333" type="curve" smooth="yes"/>
      <point x="261.5" y="747.333"/>
      <point x="233.5" y="718.333"/>
    </contour>
  </outline>
</glyph>
<glyph name="uhungarumlaut" format="2">
  <advance width="603"/>
  <unicode hex="0171"/>
  <outline>
    <contour>
      <point x="23.3333" y="400.333" type="line"/>
      <point x="23.3333" y="439" type="line"/>
      <point x="162.333" y="486" type="line"/>
      <point x="210.333" y="486" type="line"/>
      <point x="210.333" y="183" type="line" smooth="yes"/>
      <point x="210.333" y="126.667"/>
      <point x="223.667" y="71.3333"/>
      <point x="304" y="71.3333" type="curve" smooth="yes"/>
      <point x="346.667" y="71.3333"/>
      <point x="383.333" y="87"/>
      <point x="393.667" y="92" type="curve"/>
      <point x="393.667" y="400.333" type="line"/>
      <point x="328.333" y="400.333" type="line"/>
      <point x="328.333" y="439" type="line"/>
      <point x="466.333" y="486" type="line"/>
      <point x="514" y="486" type="line"/>
      <point x="514" y="70" type="line" smooth="yes"/>
      <point x="514" y="58"/>
      <point x="525" y="48.6667"/>
      <point x="536.667" y="47.6667" type="curve" smooth="yes"/>
      <point x="580.667" y="44.3333" type="line"/>
      <point x="580.667" y="0" type="line"/>
      <point x="393.667" y="0" type="line"/>
      <point x="393.667" y="55.3333" type="line"/>
      <point x="381" y="45.6667"/>
      <point x="305.333" y="-12"/>
      <point x="234.667" y="-12" type="curve" smooth="yes"/>
      <point x="126" y="-12"/>
      <point x="90" y="49.3333"/>
      <point x="90" y="150.667" type="curve" smooth="yes"/>
      <point x="90" y="400.333" type="line"/>
    </contour>
    <contour>
      <point x="96.3333" y="558.667" type="line"/>
      <point x="232.667" y="711" type="line" smooth="yes"/>
      <point x="251.333" y="732.333"/>
      <point x="264" y="741.333"/>
      <point x="291.667" y="741.333" type="curve" smooth="yes"/>
      <point x="330" y="741.333"/>
      <point x="345.667" y="716.333"/>
      <point x="345.667" y="690.667" type="curve" smooth="yes"/>
      <point x="345.667" y="675.333"/>
      <point x="334.667" y="657.667"/>
      <point x="320.333" y="649.667" type="curve" smooth="yes"/>
      <point x="162" y="558.667" type="line"/>
    </contour>
    <contour>
      <point x="305.333" y="558.333" type="line"/>
      <point x="440.667" y="710.667" type="line" smooth="yes"/>
      <point x="460" y="732.667"/>
      <point x="473.667" y="741.333"/>
      <point x="500.667" y="741.333" type="curve" smooth="yes"/>
      <point x="539" y="741.333"/>
      <point x="553.333" y="716.333"/>
      <point x="553.333" y="691" type="curve" smooth="yes"/>
      <point x="553.333" y="675.667"/>
      <point x="542.667" y="657.333"/>
      <point x="528.333" y="649.333" type="curve" smooth="yes"/>
      <point x="371" y="558.333" type="line"/>
    </contour>
  </outline>
</glyph>
<glyph name="Uogonek" format="2">
  <advance width="723"/>
  <unicode hex="0172"/>
  <outline>
    <contour>
      <point x="25" y="622.667" type="line"/>
      <point x="78.6667" y="618" type="line" smooth="yes"/>
      <point x="90.6667" y="617"/>
      <point x="101" y="608.667"/>
      <point x="101" y="596" type="curve" smooth="yes"/>
      <point x="101" y="243.667" type="line" smooth="yes"/>
      <point x="101" y="73"/>
      <point x="183.667" y="-15.6667"/>
      <point x="352.333" y="-15.6667" type="curve" smooth="yes"/>
      <point x="532.333" y="-15.6667"/>
      <point x="620.667" y="57"/>
      <point x="620.667" y="243.667" type="curve" smooth="yes"/>
      <point x="620.667" y="596" type="line" smooth="yes"/>
      <point x="620.667" y="608.667"/>
      <point x="631" y="617"/>
      <point x="642.333" y="618" type="curve" smooth="yes"/>
      <point x="697" y="622.667" type="line"/>
      <point x="697" y="671" type="line"/>
      <point x="471.333" y="671" type="line"/>
      <point x="471.333" y="622.667" type="line"/>
      <point x="528.333" y="618" type="line" smooth="yes"/>
      <point x="540.333" y="617"/>
      <point x="550.333" y="608.667"/>
      <point x="550.333" y="596" type="curve" smooth="yes"/>
      <point x="550.333" y="247" type="line" smooth="yes"/>
      <point x="550.333" y="133.333"/>
      <point x="506.667" y="62"/>
      <point x="394.667" y="62" type="curve" smooth="yes"/>
      <point x="278.667" y="62"/>
      <point x="230.333" y="121.333"/>
      <point x="230.333" y="247" type="curve" smooth="yes"/>
      <point x="230.333" y="596" type="line" smooth="yes"/>
      <point x="230.333" y="608.667"/>
      <point x="240.667" y="617"/>
      <point x="252" y="618" type="curve" smooth="yes"/>
      <point x="307" y="622.667" type="line"/>
      <point x="307" y="671" type="line"/>
      <point x="25" y="671" type="line"/>
    </contour>
    <contour>
      <point x="246.5" y="-129.189" type="curve" smooth="yes"/>
      <point x="246.5" y="-83.8555"/>
      <point x="278.5" y="-38.8555"/>
      <point x="323.167" y="-8.85547" type="curve"/>
      <point x="381.5" y="-8.85547" type="line"/>
      <point x="344.833" y="-35.8555"/>
      <point x="320.833" y="-67.5221"/>
      <point x="320.833" y="-104.855" type="curve" smooth="yes"/>
      <point x="320.833" y="-138.522"/>
      <point x="340.167" y="-157.189"/>
      <point x="370.833" y="-157.189" type="curve" smooth="yes"/>
      <point x="388.5" y="-157.189"/>
      <point x="408.5" y="-148.189"/>
      <point x="419.5" y="-138.855" type="curve"/>
      <point x="445.833" y="-182.522" type="line"/>
      <point x="418.5" y="-202.855"/>
      <point x="387.833" y="-212.522"/>
      <point x="351.5" y="-212.522" type="curve" smooth="yes"/>
      <point x="289.167" y="-212.522"/>
      <point x="246.5" y="-181.522"/>
    </contour>
  </outline>
</glyph>
<glyph name="uogonek" format="2">
  <advance width="603"/>
  <unicode hex="0173"/>
  <outline>
    <contour>
      <point x="23.3333" y="400.333" type="line"/>
      <point x="23.3333" y="439" type="line"/>
      <point x="162.333" y="486" type="line"/>
      <point x="210.333" y="486" type="line"/>
      <point x="210.333" y="183" type="line" smooth="yes"/>
      <point x="210.333" y="126.667"/>
      <point x="223.667" y="71.3333"/>
      <point x="304" y="71.3333" type="curve" smooth="yes"/>
      <point x="346.667" y="71.3333"/>
      <point x="383.333" y="87"/>
      <point x="393.667" y="92" type="curve"/>
      <point x="393.667" y="400.333" type="line"/>
      <point x="328.333" y="400.333" type="line"/>
      <point x="328.333" y="439" type="line"/>
      <point x="466.333" y="486" type="line"/>
      <point x="514" y="486" type="line"/>
      <point x="514" y="70" type="line" smooth="yes"/>
      <point x="514" y="58"/>
      <point x="525" y="48.6667"/>
      <point x="536.667" y="47.6667" type="curve" smooth="yes"/>
      <point x="580.667" y="44.3333" type="line"/>
      <point x="580.667" y="0" type="line"/>
      <point x="393.667" y="0" type="line"/>
      <point x="393.667" y="55.3333" type="line"/>
      <point x="381" y="45.6667"/>
      <point x="305.333" y="-12"/>
      <point x="234.667" y="-12" type="curve" smooth="yes"/>
      <point x="126" y="-12"/>
      <point x="90" y="49.3333"/>
      <point x="90" y="150.667" type="curve" smooth="yes"/>
      <point x="90" y="400.333" type="line"/>
    </contour>
    <contour>
      <point x="347.333" y="-125.522" type="curve" smooth="yes"/>
      <point x="347.333" y="-80.1888"/>
      <point x="380" y="-35.1888"/>
      <point x="424.667" y="-5.1888" type="curve"/>
      <point x="482.333" y="-5.1888" type="line"/>
      <point x="445.667" y="-32.1888"/>
      <point x="422.333" y="-63.8555"/>
      <point x="422.333" y="-101.189" type="curve" smooth="yes"/>
      <point x="422.333" y="-134.855"/>
      <point x="441.667" y="-153.522"/>
      <point x="472.333" y="-153.522" type="curve" smooth="yes"/>
      <point x="490" y="-153.522"/>
      <point x="509.333" y="-144.522"/>
      <point x="520.333" y="-135.189" type="curve"/>
      <point x="546.667" y="-178.855" type="line"/>
      <point x="519.333" y="-199.189"/>
      <point x="489.333" y="-208.855"/>
      <point x="453" y="-208.855" type="curve" smooth="yes"/>
      <point x="390.667" y="-208.855"/>
      <point x="347.333" y="-177.855"/>
    </contour>
  </outline>
</glyph>
<glyph name="Zdotaccent" format="2">
  <advance width="579"/>
  <unicode hex="017B"/>
  <outline>
    <contour>
      <point x="37.6667" y="0" type="line"/>
      <point x="37.6667" y="54" type="line"/>
      <point x="390.333" y="613.667" type="line"/>
      <point x="156.333" y="613.667" type="line" smooth="yes"/>
      <point x="147.667" y="613.667"/>
      <point x="142.667" y="608"/>
      <point x="141.333" y="600" type="curve" smooth="yes"/>
      <point x="124.333" y="496.333" type="line"/>
      <point x="56" y="496.333" type="line"/>
      <point x="56" y="671" type="line"/>
      <point x="536.333" y="671" type="line"/>
      <point x="536.333" y="616.333" type="line"/>
      <point x="184" y="58.3333" type="line"/>
      <point x="438.333" y="58.3333" type="line" smooth="yes"/>
      <point x="447" y="58.3333"/>
      <point x="452" y="64.3333"/>
      <point x="454" y="71.6667" type="curve"/>
      <point x="473" y="193" type="line"/>
      <point x="541.333" y="193" type="line"/>
      <point x="541.333" y="0" type="line"/>
    </contour>
    <contour>
      <point x="231.833" y="814" type="curve" smooth="yes"/>
      <point x="231.833" y="849.667"/>
      <point x="258.5" y="878.333"/>
      <point x="295.833" y="878.333" type="curve" smooth="yes"/>
      <point x="331.833" y="878.333"/>
      <point x="359.833" y="850.333"/>
      <point x="359.833" y="814" type="curve" smooth="yes"/>
      <point x="359.833" y="778.667"/>
      <point x="332.5" y="750"/>
      <point x="295.833" y="750" type="curve" smooth="yes"/>
      <point x="259.167" y="750"/>
      <point x="231.833" y="777.333"/>
    </contour>
  </outline>
</glyph>
<glyph name="zdotaccent" format="2">
  <advance width="481"/>
  <unicode hex="017C"/>
  <outline>
    <contour>
      <point x="32.6667" y="0" type="line"/>
      <point x="32.6667" y="61" type="line"/>
      <point x="292" y="432.333" type="line"/>
      <point x="133.333" y="432.333" type="line" smooth="yes"/>
      <point x="123.333" y="432.333"/>
      <point x="114.333" y="420.333"/>
      <point x="114" y="411.333" type="curve"/>
      <point x="106" y="335.333" type="line"/>
      <point x="41.6667" y="335.333" type="line"/>
      <point x="41.6667" y="486" type="line"/>
      <point x="435" y="486" type="line"/>
      <point x="435" y="435" type="line"/>
      <point x="169" y="55.3333" type="line"/>
      <point x="351" y="55.3333" type="line" smooth="yes"/>
      <point x="360.667" y="55.3333"/>
      <point x="370.667" y="69.6667"/>
      <point x="372.667" y="79.3333" type="curve"/>
      <point x="384.667" y="162.333" type="line"/>
      <point x="448.667" y="162.333" type="line"/>
      <point x="448.667" y="0" type="line"/>
    </contour>
    <contour>
      <point x="174" y="625.667" type="curve" smooth="yes"/>
      <point x="174" y="661.333"/>
      <point x="200.667" y="690"/>
      <point x="238" y="690" type="curve" smooth="yes"/>
      <point x="274" y="690"/>
      <point x="302" y="662"/>
      <point x="302" y="625.667" type="curve" smooth="yes"/>
      <point x="302" y="590.333"/>
      <point x="274.667" y="561.667"/>
      <point x="238" y="561.667" type="curve" smooth="yes"/>
      <point x="201.333" y="561.667"/>
      <point x="174" y="589"/>
    </contour>
  </outline>
</glyph>
<glyph name="Zcaron" format="2">
  <advance width="579"/>
  <unicode hex="017D"/>
  <outline>
    <contour>
      <point x="37.6667" y="0" type="line"/>
      <point x="37.6667" y="54" type="line"/>
      <point x="390.333" y="613.667" type="line"/>
      <point x="156.333" y="613.667" type="line" smooth="yes"/>
      <point x="147.667" y="613.667"/>
      <point x="142.667" y="608"/>
      <point x="141.333" y="600" type="curve" smooth="yes"/>
      <point x="124.333" y="496.333" type="line"/>
      <point x="56" y="496.333" type="line"/>
      <point x="56" y="671" type="line"/>
      <point x="536.333" y="671" type="line"/>
      <point x="536.333" y="616.333" type="line"/>
      <point x="184" y="58.3333" type="line"/>
      <point x="438.333" y="58.3333" type="line" smooth="yes"/>
      <point x="447" y="58.3333"/>
      <point x="452" y="64.3333"/>
      <point x="454" y="71.6667" type="curve"/>
      <point x="473" y="193" type="line"/>
      <point x="541.333" y="193" type="line"/>
      <point x="541.333" y="0" type="line"/>
    </contour>
    <contour>
      <point x="127.833" y="917" type="line"/>
      <point x="204.167" y="917" type="line"/>
      <point x="296.167" y="821.333" type="line"/>
      <point x="389.167" y="917" type="line"/>
      <point x="463.833" y="917" type="line"/>
      <point x="348.5" y="746.667" type="line"/>
      <point x="244.5" y="746.667" type="line"/>
    </contour>
  </outline>
</glyph>
<glyph name="uni0181" format="2">
  <advance width="698"/>
  <unicode hex="0181"/>
  <outline>
    <contour>
      <point x="304" y="372.667" type="line"/>
      <point x="308.588" y="372"/>
      <point x="323.873" y="372"/>
      <point x="333" y="372" type="curve" smooth="yes"/>
      <point x="444.667" y="372"/>
      <point x="487.333" y="419.333"/>
      <point x="487.333" y="501.333" type="curve" smooth="yes"/>
      <point x="487.333" y="570"/>
      <point x="452" y="618.333"/>
      <point x="350.667" y="618.333" type="curve" smooth="yes"/>
      <point x="334.054" y="618.333"/>
      <point x="320.844" y="618"/>
      <point x="304" y="616" type="curve"/>
    </contour>
    <contour>
      <point x="304.333" y="56.6667" type="line"/>
      <point x="316.397" y="55.3768"/>
      <point x="342.528" y="54.3333"/>
      <point x="356.667" y="54.3333" type="curve" smooth="yes"/>
      <point x="464.018" y="54.3333"/>
      <point x="524.667" y="95.6537"/>
      <point x="524.667" y="188.667" type="curve" smooth="yes"/>
      <point x="524.667" y="278"/>
      <point x="472.667" y="317.333"/>
      <point x="367.333" y="317.333" type="curve" smooth="yes"/>
      <point x="350.667" y="317.333"/>
      <point x="332" y="316.333"/>
      <point x="304.333" y="314.667" type="curve"/>
    </contour>
    <contour>
      <point x="-18.6667" y="563" type="curve" smooth="yes"/>
      <point x="-18.6667" y="640.333"/>
      <point x="44" y="671"/>
      <point x="145" y="671" type="curve" smooth="yes"/>
      <point x="404.667" y="671" type="line" smooth="yes"/>
      <point x="495" y="671"/>
      <point x="622" y="648.333"/>
      <point x="622" y="514" type="curve" smooth="yes"/>
      <point x="622" y="402.333"/>
      <point x="525.667" y="368"/>
      <point x="479" y="356.667" type="curve"/>
      <point x="563.617" y="355.333"/>
      <point x="661.333" y="319.448"/>
      <point x="661.333" y="196" type="curve" smooth="yes"/>
      <point x="661.333" y="23.6667"/>
      <point x="535.667" y="0"/>
      <point x="422.667" y="0" type="curve" smooth="yes"/>
      <point x="100.667" y="0" type="line"/>
      <point x="100.667" y="48.3333" type="line"/>
      <point x="153.333" y="53" type="line" smooth="yes"/>
      <point x="165.334" y="53.9868"/>
      <point x="176.333" y="62.3333"/>
      <point x="176.333" y="75" type="curve" smooth="yes"/>
      <point x="176.333" y="595" type="line" smooth="yes"/>
      <point x="176.333" y="608"/>
      <point x="168.333" y="616"/>
      <point x="155.333" y="616" type="curve" smooth="yes"/>
      <point x="121.333" y="616" type="line" smooth="yes"/>
      <point x="96.6667" y="616"/>
      <point x="83.6667" y="611.333"/>
      <point x="72.3333" y="592.667" type="curve"/>
      <point x="113.667" y="521.667" type="line"/>
      <point x="91" y="499"/>
      <point x="80" y="491"/>
      <point x="43.6667" y="491" type="curve" smooth="yes"/>
      <point x="3" y="491"/>
      <point x="-18.6667" y="523"/>
    </contour>
  </outline>
</glyph>
<glyph name="uni0183" format="2">
  <advance width="584"/>
  <unicode hex="0183"/>
  <outline>
    <contour>
      <point x="90" y="0" type="line"/>
      <point x="90" y="739" type="line"/>
      <point x="502.667" y="739" type="line"/>
      <point x="502.667" y="577.667" type="line"/>
      <point x="436.333" y="577.667" type="line"/>
      <point x="423.333" y="664.333" type="line"/>
      <point x="420.902" y="677.986"/>
      <point x="415" y="685.333"/>
      <point x="403" y="685.333" type="curve" smooth="yes"/>
      <point x="227" y="685.333" type="line" smooth="yes"/>
      <point x="216.333" y="685.333"/>
      <point x="210.017" y="676"/>
      <point x="210" y="668.333" type="curve"/>
      <point x="210" y="455" type="line"/>
      <point x="232.667" y="467.333"/>
      <point x="283.667" y="498"/>
      <point x="352.667" y="498" type="curve" smooth="yes"/>
      <point x="468.001" y="498"/>
      <point x="550.667" y="409.914"/>
      <point x="550.667" y="270.667" type="curve" smooth="yes"/>
      <point x="550.667" y="109.533"/>
      <point x="443.83" y="0"/>
      <point x="260" y="0" type="curve" smooth="yes"/>
    </contour>
    <contour>
      <point x="210" y="53.3333" type="line"/>
      <point x="220.233" y="52.3333"/>
      <point x="230.918" y="52.3333"/>
      <point x="240.333" y="52.3333" type="curve" smooth="yes"/>
      <point x="358" y="52.3333"/>
      <point x="420" y="105.333"/>
      <point x="420" y="244" type="curve" smooth="yes"/>
      <point x="420" y="353.667"/>
      <point x="371" y="423"/>
      <point x="273" y="423" type="curve" smooth="yes"/>
      <point x="247" y="423"/>
      <point x="226.667" y="418.333"/>
      <point x="210" y="413.667" type="curve"/>
    </contour>
  </outline>
</glyph>
<glyph name="uni0185" format="2">
  <advance width="584"/>
  <unicode hex="0185"/>
  <outline>
    <contour>
      <point x="8" y="544.667" type="line"/>
      <point x="210" y="758.667" type="line"/>
      <point x="210" y="455" type="line"/>
      <point x="228" y="465.333"/>
      <point x="281.667" y="498"/>
      <point x="352.667" y="498" type="curve" smooth="yes"/>
      <point x="468.001" y="498"/>
      <point x="550.667" y="409.914"/>
      <point x="550.667" y="270.667" type="curve" smooth="yes"/>
      <point x="550.667" y="109.308"/>
      <point x="443.901" y="0"/>
      <point x="260" y="0" type="curve" smooth="yes"/>
      <point x="90" y="0" type="line"/>
      <point x="90" y="488.333" type="line"/>
    </contour>
    <contour>
      <point x="210" y="53.3333" type="line"/>
      <point x="220.899" y="52.3333"/>
      <point x="230.918" y="52.3333"/>
      <point x="240.333" y="52.3333" type="curve" smooth="yes"/>
      <point x="358" y="52.3333"/>
      <point x="420" y="105.333"/>
      <point x="420" y="244" type="curve" smooth="yes"/>
      <point x="420" y="353.667"/>
      <point x="371" y="423"/>
      <point x="273" y="423" type="curve" smooth="yes"/>
      <point x="247" y="423"/>
      <point x="223.333" y="417.667"/>
      <point x="210" y="413.667" type="curve"/>
    </contour>
  </outline>
</glyph>
<glyph name="uni0186" format="2">
  <advance width="633"/>
  <unicode hex="0186"/>
  <outline>
    <contour>
      <point x="37.3333" y="25" type="curve"/>
      <point x="37.3333" y="190.667" type="line"/>
      <point x="108.667" y="190.667" type="line"/>
      <point x="128.667" y="85.6667" type="line" smooth="yes"/>
      <point x="130.287" y="76.9118"/>
      <point x="139.278" y="68.7066"/>
      <point x="148.333" y="64.6667" type="curve" smooth="yes"/>
      <point x="165.822" y="57.2351"/>
      <point x="198.908" y="48"/>
      <point x="225" y="48" type="curve" smooth="yes"/>
      <point x="370.045" y="48"/>
      <point x="452.667" y="164.046"/>
      <point x="452.667" y="334.667" type="curve" smooth="yes"/>
      <point x="452.667" y="485.838"/>
      <point x="384.539" y="625"/>
      <point x="215.333" y="625" type="curve" smooth="yes"/>
      <point x="190" y="625"/>
      <point x="165.747" y="617.8"/>
      <point x="152" y="612" type="curve"/>
      <point x="144.333" y="609"/>
      <point x="134.932" y="602.085"/>
      <point x="132.667" y="591.667" type="curve" smooth="yes"/>
      <point x="109.667" y="476.667" type="line"/>
      <point x="38" y="476.667" type="line"/>
      <point x="38" y="647.333" type="line"/>
      <point x="94" y="669"/>
      <point x="176.751" y="686.667"/>
      <point x="245.667" y="686.667" type="curve" smooth="yes"/>
      <point x="453.006" y="686.667"/>
      <point x="596" y="541.477"/>
      <point x="596" y="334.333" type="curve" smooth="yes"/>
      <point x="596" y="123.982"/>
      <point x="447.42" y="-16"/>
      <point x="244.333" y="-16" type="curve" smooth="yes"/>
      <point x="166.667" y="-16"/>
      <point x="120" y="-2.33333"/>
    </contour>
  </outline>
</glyph>
<glyph name="uni0188" format="2">
  <advance width="500"/>
  <unicode hex="0188"/>
  <outline>
    <contour>
      <point x="32.6667" y="235" type="curve" smooth="yes"/>
      <point x="32.6667" y="391.206"/>
      <point x="139.906" y="498"/>
      <point x="285" y="498" type="curve" smooth="yes"/>
      <point x="306.876" y="498"/>
      <point x="327.09" y="495.333"/>
      <point x="345.333" y="491.333" type="curve"/>
      <point x="361.333" y="548.333"/>
      <point x="405.667" y="591.333"/>
      <point x="472.667" y="591.333" type="curve" smooth="yes"/>
      <point x="526.228" y="591.333"/>
      <point x="575" y="568.607"/>
      <point x="575" y="527.667" type="curve" smooth="yes"/>
      <point x="575" y="482.333"/>
      <point x="531" y="476"/>
      <point x="524.667" y="474" type="curve"/>
      <point x="474" y="551.333" type="line"/>
      <point x="432.333" y="547.333"/>
      <point x="420.667" y="512"/>
      <point x="420.667" y="457.667" type="curve"/>
      <point x="441.667" y="440.333"/>
      <point x="452" y="418"/>
      <point x="452" y="390.667" type="curve" smooth="yes"/>
      <point x="452" y="348.667"/>
      <point x="420.667" y="321.333"/>
      <point x="385" y="321.333" type="curve" smooth="yes"/>
      <point x="354.333" y="321.333"/>
      <point x="337.333" y="330"/>
      <point x="323.667" y="340.667" type="curve"/>
      <point x="323.667" y="444.667" type="line"/>
      <point x="320" y="447"/>
      <point x="307" y="449.667"/>
      <point x="297" y="449.667" type="curve" smooth="yes"/>
      <point x="222.374" y="449.667"/>
      <point x="164.667" y="375.402"/>
      <point x="164.667" y="258.333" type="curve" smooth="yes"/>
      <point x="164.667" y="142.769"/>
      <point x="221.196" y="64.6667"/>
      <point x="321.333" y="64.6667" type="curve" smooth="yes"/>
      <point x="380.333" y="64.6667"/>
      <point x="437" y="98.3333"/>
      <point x="458" y="113" type="curve"/>
      <point x="458" y="42.6667" type="line"/>
      <point x="419.667" y="19"/>
      <point x="361.333" y="-12.3333"/>
      <point x="270.333" y="-12.3333" type="curve" smooth="yes"/>
      <point x="117.683" y="-12.3333"/>
      <point x="32.6667" y="99.0444"/>
    </contour>
  </outline>
</glyph>
<glyph name="uni018C" format="2">
  <advance width="593"/>
  <unicode hex="018C"/>
  <outline>
    <contour>
      <point x="32.3333" y="231.667" type="curve" smooth="yes"/>
      <point x="32.3333" y="398.56"/>
      <point x="137.998" y="498.333"/>
      <point x="291.333" y="498.333" type="curve" smooth="yes"/>
      <point x="321.667" y="498.333"/>
      <point x="354.667" y="493.667"/>
      <point x="384.333" y="486.333" type="curve"/>
      <point x="384.333" y="668.667" type="line" smooth="yes"/>
      <point x="384.333" y="674.667"/>
      <point x="377" y="685.667"/>
      <point x="366.667" y="685.667" type="curve" smooth="yes"/>
      <point x="190.667" y="685.667" type="line" smooth="yes"/>
      <point x="180.333" y="685.667"/>
      <point x="172.673" y="678.949"/>
      <point x="171" y="666" type="curve" smooth="yes"/>
      <point x="157.667" y="578" type="line"/>
      <point x="91.3333" y="578" type="line"/>
      <point x="91.3333" y="739.333" type="line"/>
      <point x="504" y="739.333" type="line"/>
      <point x="504" y="70.3333" type="line" smooth="yes"/>
      <point x="504" y="58.3333"/>
      <point x="513.995" y="48.9229"/>
      <point x="525.667" y="48" type="curve" smooth="yes"/>
      <point x="568" y="45" type="line"/>
      <point x="568" y="0.666667" type="line"/>
      <point x="384.333" y="0.666667" type="line"/>
      <point x="384.333" y="57" type="line"/>
      <point x="344.319" y="21.5547"/>
      <point x="279.484" y="-11.6667"/>
      <point x="227" y="-11.6667" type="curve" smooth="yes"/>
      <point x="102.869" y="-11.6667"/>
      <point x="32.3333" y="94.991"/>
    </contour>
    <contour>
      <point x="163" y="252.333" type="curve" smooth="yes"/>
      <point x="163" y="147.238"/>
      <point x="205.482" y="72.3333"/>
      <point x="298" y="72.3333" type="curve" smooth="yes"/>
      <point x="335" y="72.3333"/>
      <point x="365" y="83"/>
      <point x="384.333" y="96.6667" type="curve"/>
      <point x="384.333" y="425.333" type="line"/>
      <point x="363" y="435.333"/>
      <point x="333.667" y="442.333"/>
      <point x="308.667" y="442.333" type="curve" smooth="yes"/>
      <point x="209.487" y="442.333"/>
      <point x="163" y="358.158"/>
    </contour>
  </outline>
</glyph>
<glyph name="uni018D" format="2">
  <advance width="571"/>
  <unicode hex="018D"/>
  <outline>
    <contour>
      <point x="33" y="261" type="curve" smooth="yes"/>
      <point x="33" y="418.086"/>
      <point x="157.713" y="497.667"/>
      <point x="282.333" y="497.667" type="curve" smooth="yes"/>
      <point x="415.679" y="497.667"/>
      <point x="540" y="439.141"/>
      <point x="540" y="281.333" type="curve" smooth="yes"/>
      <point x="540" y="153.573"/>
      <point x="423.125" y="91.8116"/>
      <point x="313.667" y="55.6667" type="curve"/>
      <point x="334.333" y="41.3333"/>
      <point x="355.971" y="25.967"/>
      <point x="375.333" y="10.6667" type="curve"/>
      <point x="429" y="-26.6667"/>
      <point x="479" y="-64.3333"/>
      <point x="479" y="-111.667" type="curve" smooth="yes"/>
      <point x="479" y="-202.621"/>
      <point x="397.489" y="-252.667"/>
      <point x="294.667" y="-252.667" type="curve" smooth="yes"/>
      <point x="164.237" y="-252.667"/>
      <point x="82.6667" y="-198.715"/>
      <point x="82.6667" y="-138.333" type="curve" smooth="yes"/>
      <point x="82.6667" y="-108.944"/>
      <point x="108.8" y="-79.6667"/>
      <point x="151" y="-79.6667" type="curve" smooth="yes"/>
      <point x="161.333" y="-79.6667"/>
      <point x="186.333" y="-81.6667"/>
      <point x="195" y="-87.3333" type="curve"/>
      <point x="218" y="-166.333" type="line"/>
      <point x="245" y="-186.333"/>
      <point x="268.333" y="-198"/>
      <point x="298" y="-198" type="curve" smooth="yes"/>
      <point x="338.649" y="-198"/>
      <point x="379.333" y="-174.194"/>
      <point x="379.333" y="-130" type="curve" smooth="yes"/>
      <point x="379.333" y="-93.6459"/>
      <point x="305.041" y="-48.5461"/>
      <point x="267.667" y="-26.6667" type="curve" smooth="yes"/>
      <point x="224" y="-1.33333"/>
      <point x="176.978" y="29.3083"/>
      <point x="136" y="64" type="curve" smooth="yes"/>
      <point x="79.2679" y="112.443"/>
      <point x="33" y="174.316"/>
    </contour>
    <contour>
      <point x="166.667" y="268.333" type="curve" smooth="yes"/>
      <point x="166.667" y="188.989"/>
      <point x="214.833" y="135.181"/>
      <point x="270.333" y="89.6667" type="curve"/>
      <point x="337.314" y="124.738"/>
      <point x="406.333" y="186.772"/>
      <point x="406.333" y="282.333" type="curve" smooth="yes"/>
      <point x="406.333" y="377.611"/>
      <point x="368.787" y="445.667"/>
      <point x="289.667" y="445.667" type="curve" smooth="yes"/>
      <point x="205.333" y="445.667"/>
      <point x="166.667" y="370.333"/>
    </contour>
  </outline>
</glyph>
<glyph name="uni0191" format="2">
  <advance width="553"/>
  <unicode hex="0191"/>
  <outline>
    <contour>
      <point x="-101.333" y="-158.667" type="curve" smooth="yes"/>
      <point x="-101.333" y="-127.205"/>
      <point x="-73.1431" y="-100.916"/>
      <point x="-41" y="-90.6667" type="curve"/>
      <point x="56" y="-186.333" type="line"/>
      <point x="91.6667" y="-165"/>
      <point x="105" y="-124.333"/>
      <point x="105" y="-37.3333" type="curve" smooth="yes"/>
      <point x="105" y="595.333" type="line" smooth="yes"/>
      <point x="105" y="608"/>
      <point x="94.6713" y="616.404"/>
      <point x="82.6667" y="617.333" type="curve" smooth="yes"/>
      <point x="24.3333" y="622" type="line"/>
      <point x="24.3333" y="670.333" type="line"/>
      <point x="525" y="670.333" type="line"/>
      <point x="525" y="503.333" type="line"/>
      <point x="457.333" y="503.333" type="line"/>
      <point x="443.333" y="594.667" type="line"/>
      <point x="441.546" y="604.315"/>
      <point x="435" y="613.333"/>
      <point x="425.667" y="613.333" type="curve" smooth="yes"/>
      <point x="233.667" y="613.333" type="line"/>
      <point x="233.667" y="362.667" type="line"/>
      <point x="367.667" y="362.667" type="line" smooth="yes"/>
      <point x="376.667" y="362.667"/>
      <point x="384.033" y="373.662"/>
      <point x="385" y="380.667" type="curve" smooth="yes"/>
      <point x="394.667" y="449.333" type="line"/>
      <point x="452.667" y="449.333" type="line"/>
      <point x="452.667" y="217" type="line"/>
      <point x="394.667" y="217" type="line"/>
      <point x="385" y="285.667" type="line" smooth="yes"/>
      <point x="384.075" y="292.343"/>
      <point x="375.667" y="303.667"/>
      <point x="367.667" y="303.667" type="curve" smooth="yes"/>
      <point x="233.667" y="303.667" type="line"/>
      <point x="233.667" y="15.6667" type="line" smooth="yes"/>
      <point x="233.667" y="-118.407"/>
      <point x="141.064" y="-238.333"/>
      <point x="-0.333333" y="-238.333" type="curve" smooth="yes"/>
      <point x="-48.8073" y="-238.333"/>
      <point x="-101.333" y="-214.648"/>
    </contour>
  </outline>
</glyph>
<glyph name="uni019C" format="2">
  <advance width="1090"/>
  <unicode hex="019C"/>
  <outline>
    <contour>
      <point x="24.3333" y="623" type="line"/>
      <point x="24.3333" y="671.333" type="line"/>
      <point x="304.333" y="671.333" type="line"/>
      <point x="304.333" y="623" type="line"/>
      <point x="252.667" y="618.333" type="line" smooth="yes"/>
      <point x="240.665" y="617.353"/>
      <point x="231" y="609"/>
      <point x="231" y="596.333" type="curve" smooth="yes"/>
      <point x="231" y="219.667" type="line" smooth="yes"/>
      <point x="231" y="135.807"/>
      <point x="290.534" y="73.3333"/>
      <point x="370.333" y="73.3333" type="curve" smooth="yes"/>
      <point x="404.584" y="73.3333"/>
      <point x="446.486" y="88.6337"/>
      <point x="490" y="116.333" type="curve"/>
      <point x="482.653" y="141.377"/>
      <point x="478.667" y="169.389"/>
      <point x="478.667" y="199.333" type="curve" smooth="yes"/>
      <point x="478.667" y="596" type="line" smooth="yes"/>
      <point x="478.667" y="608.333"/>
      <point x="468.673" y="617.096"/>
      <point x="457" y="618" type="curve" smooth="yes"/>
      <point x="401" y="622.667" type="line"/>
      <point x="401" y="671" type="line"/>
      <point x="681" y="671" type="line"/>
      <point x="681" y="622.667" type="line"/>
      <point x="629.333" y="618" type="line" smooth="yes"/>
      <point x="617.332" y="617.019"/>
      <point x="607.667" y="608.667"/>
      <point x="607.667" y="596" type="curve" smooth="yes"/>
      <point x="607.667" y="219.333" type="line" smooth="yes"/>
      <point x="607.667" y="127.024"/>
      <point x="648.817" y="73"/>
      <point x="719.667" y="73" type="curve" smooth="yes"/>
      <point x="765.808" y="73"/>
      <point x="801.121" y="90.7087"/>
      <point x="854.667" y="140.667" type="curve"/>
      <point x="854.667" y="596" type="line" smooth="yes"/>
      <point x="854.667" y="608.333"/>
      <point x="844.673" y="617.096"/>
      <point x="833" y="618" type="curve" smooth="yes"/>
      <point x="777" y="622.667" type="line"/>
      <point x="777" y="671" type="line"/>
      <point x="1057" y="671" type="line"/>
      <point x="1057" y="622.667" type="line"/>
      <point x="1005.33" y="618" type="line" smooth="yes"/>
      <point x="993.332" y="617.019"/>
      <point x="983.667" y="608.667"/>
      <point x="983.667" y="596" type="curve" smooth="yes"/>
      <point x="983.667" y="69" type="line" smooth="yes"/>
      <point x="983.667" y="59"/>
      <point x="988.665" y="54.3162"/>
      <point x="998.333" y="53.3333" type="curve" smooth="yes"/>
      <point x="1061.67" y="48.3333" type="line"/>
      <point x="1061.67" y="0" type="line"/>
      <point x="854.667" y="0" type="line"/>
      <point x="854.667" y="64.3333" type="line"/>
      <point x="787.775" y="0.774597"/>
      <point x="751.802" y="-15.6667"/>
      <point x="680.333" y="-15.6667" type="curve" smooth="yes"/>
      <point x="612.191" y="-15.6667"/>
      <point x="557.73" y="9.63273"/>
      <point x="521.333" y="57.3333" type="curve"/>
      <point x="446.786" y="4.09207"/>
      <point x="395.134" y="-15.6667"/>
      <point x="331.333" y="-15.6667" type="curve" smooth="yes"/>
      <point x="194.595" y="-15.6667"/>
      <point x="102" y="71.3239"/>
      <point x="102" y="199.667" type="curve" smooth="yes"/>
      <point x="102" y="596.333" type="line" smooth="yes"/>
      <point x="102" y="609"/>
      <point x="92.3383" y="617.408"/>
      <point x="80.3333" y="618.333" type="curve" smooth="yes"/>
    </contour>
  </outline>
</glyph>
<glyph name="uni019E" format="2">
  <advance width="605"/>
  <unicode hex="019E"/>
  <outline>
    <contour>
      <point x="28.3333" y="0.333333" type="line"/>
      <point x="28.3333" y="44.6667" type="line"/>
      <point x="68.6667" y="47.6667" type="line" smooth="yes"/>
      <point x="80.3333" y="48.6667"/>
      <point x="90.3333" y="58"/>
      <point x="90.3333" y="70" type="curve" smooth="yes"/>
      <point x="90.3333" y="409" type="line"/>
      <point x="21" y="409" type="line"/>
      <point x="21" y="447.333" type="line"/>
      <point x="162.333" y="494" type="line"/>
      <point x="210.667" y="494" type="line"/>
      <point x="210.667" y="436.667" type="line"/>
      <point x="267.755" y="475.169"/>
      <point x="332.16" y="498"/>
      <point x="382.333" y="498" type="curve" smooth="yes"/>
      <point x="472.154" y="498"/>
      <point x="517.667" y="441.405"/>
      <point x="517.667" y="330.667" type="curve" smooth="yes"/>
      <point x="517.667" y="-148.667" type="line" smooth="yes"/>
      <point x="517.667" y="-160.667"/>
      <point x="528.333" y="-170"/>
      <point x="540" y="-171" type="curve" smooth="yes"/>
      <point x="575.333" y="-174" type="line"/>
      <point x="575.333" y="-218.333" type="line"/>
      <point x="337.667" y="-218.333" type="line"/>
      <point x="337.667" y="-174" type="line"/>
      <point x="376.333" y="-171" type="line" smooth="yes"/>
      <point x="388" y="-170"/>
      <point x="398" y="-160.667"/>
      <point x="398" y="-148.667" type="curve" smooth="yes"/>
      <point x="398" y="313.333" type="line" smooth="yes"/>
      <point x="398" y="376.783"/>
      <point x="367.222" y="412.333"/>
      <point x="311.333" y="412.333" type="curve" smooth="yes"/>
      <point x="275.718" y="412.333"/>
      <point x="234.672" y="405.07"/>
      <point x="210.667" y="394" type="curve"/>
      <point x="210.667" y="70" type="line" smooth="yes"/>
      <point x="210.667" y="58"/>
      <point x="221.333" y="48.6667"/>
      <point x="233" y="47.6667" type="curve" smooth="yes"/>
      <point x="267" y="44.6667" type="line"/>
      <point x="267" y="0.333333" type="line"/>
    </contour>
  </outline>
</glyph>
<glyph name="uni01A4" format="2">
  <advance width="676"/>
  <unicode hex="01A4"/>
  <outline>
    <contour>
      <point x="-19.3333" y="545.667" type="curve" smooth="yes"/>
      <point x="-19.3333" y="621"/>
      <point x="48.6667" y="671"/>
      <point x="129" y="671" type="curve" smooth="yes"/>
      <point x="366.667" y="671" type="line" smooth="yes"/>
      <point x="554.619" y="671"/>
      <point x="640" y="607.627"/>
      <point x="640" y="468.333" type="curve" smooth="yes"/>
      <point x="640" y="330.052"/>
      <point x="542.148" y="247.667"/>
      <point x="378.333" y="247.667" type="curve" smooth="yes"/>
      <point x="351.717" y="247.667"/>
      <point x="323.316" y="249.22"/>
      <point x="310.667" y="250.333" type="curve"/>
      <point x="310.667" y="75" type="line" smooth="yes"/>
      <point x="310.667" y="62.6667"/>
      <point x="320.66" y="53.8893"/>
      <point x="332.333" y="53" type="curve" smooth="yes"/>
      <point x="396.333" y="48.3333" type="line"/>
      <point x="396.333" y="0" type="line"/>
      <point x="104" y="0" type="line"/>
      <point x="104" y="48.3333" type="line"/>
      <point x="158.667" y="53" type="line" smooth="yes"/>
      <point x="169.671" y="53.949"/>
      <point x="181.667" y="63"/>
      <point x="181.667" y="75" type="curve" smooth="yes"/>
      <point x="181.667" y="600.333" type="line" smooth="yes"/>
      <point x="181.667" y="610.667"/>
      <point x="175.667" y="616.667"/>
      <point x="164.667" y="616.667" type="curve" smooth="yes"/>
      <point x="123.333" y="616.667" type="line" smooth="yes"/>
      <point x="90" y="616.667"/>
      <point x="61" y="612"/>
      <point x="51" y="594" type="curve"/>
      <point x="109.667" y="506.333" type="line"/>
      <point x="98.3333" y="481.667"/>
      <point x="75.3333" y="465"/>
      <point x="45.6667" y="465" type="curve" smooth="yes"/>
      <point x="15.6667" y="465"/>
      <point x="-19.3333" y="488.333"/>
    </contour>
    <contour>
      <point x="310.667" y="307.333" type="line"/>
      <point x="325.41" y="305.594"/>
      <point x="334.733" y="305"/>
      <point x="347.333" y="305" type="curve"/>
      <point x="452.887" y="305.667"/>
      <point x="506" y="359.538"/>
      <point x="506" y="464.667" type="curve" smooth="yes"/>
      <point x="506" y="559.241"/>
      <point x="454.738" y="614"/>
      <point x="365" y="614" type="curve" smooth="yes"/>
      <point x="310.667" y="614" type="line"/>
    </contour>
  </outline>
</glyph>
<glyph name="uni01A5" format="2">
  <advance width="589"/>
  <unicode hex="01A5"/>
  <outline>
    <contour>
      <point x="23" y="-174" type="line"/>
      <point x="68.3333" y="-170" type="line"/>
      <point x="79.9846" y="-169.544"/>
      <point x="90" y="-160.667"/>
      <point x="90" y="-148" type="curve" smooth="yes"/>
      <point x="90" y="507" type="line" smooth="yes"/>
      <point x="90" y="644.728"/>
      <point x="180.905" y="739"/>
      <point x="313" y="739" type="curve" smooth="yes"/>
      <point x="418.859" y="739"/>
      <point x="495.333" y="695.796"/>
      <point x="495.333" y="636.667" type="curve" smooth="yes"/>
      <point x="495.333" y="601.905"/>
      <point x="471.296" y="571"/>
      <point x="443.667" y="571" type="curve" smooth="yes"/>
      <point x="430.797" y="571"/>
      <point x="420.023" y="574.129"/>
      <point x="411.667" y="580" type="curve"/>
      <point x="373.667" y="671.333" type="line"/>
      <point x="363.658" y="677.064"/>
      <point x="347.131" y="680.667"/>
      <point x="328.667" y="680.667" type="curve" smooth="yes"/>
      <point x="258.155" y="680.667"/>
      <point x="210.333" y="609.758"/>
      <point x="210.333" y="507" type="curve" smooth="yes"/>
      <point x="210.333" y="435.333" type="line"/>
      <point x="250.896" y="470.162"/>
      <point x="320.377" y="497.667"/>
      <point x="367.667" y="497.667" type="curve" smooth="yes"/>
      <point x="476.301" y="497.667"/>
      <point x="555.667" y="394.629"/>
      <point x="555.667" y="254.333" type="curve" smooth="yes"/>
      <point x="555.667" y="91.0719"/>
      <point x="453.471" y="-12"/>
      <point x="291.667" y="-12" type="curve" smooth="yes"/>
      <point x="263.056" y="-12"/>
      <point x="230.112" y="-8.2823"/>
      <point x="210.333" y="-2.33333" type="curve"/>
      <point x="210.333" y="-148" type="line" smooth="yes"/>
      <point x="210.333" y="-160.667"/>
      <point x="220.671" y="-169.628"/>
      <point x="232.333" y="-170" type="curve"/>
      <point x="287.333" y="-174" type="line"/>
      <point x="287.333" y="-218.333" type="line"/>
      <point x="23" y="-218.333" type="line"/>
    </contour>
    <contour>
      <point x="210.333" y="52.6667" type="line"/>
      <point x="229.977" y="44.8952"/>
      <point x="255.315" y="39.3333"/>
      <point x="274.333" y="39.3333" type="curve" smooth="yes"/>
      <point x="365.993" y="39.3333"/>
      <point x="424" y="116.5"/>
      <point x="424" y="240" type="curve" smooth="yes"/>
      <point x="424" y="346.475"/>
      <point x="373.635" y="414"/>
      <point x="293.667" y="414" type="curve" smooth="yes"/>
      <point x="268.495" y="414"/>
      <point x="235.742" y="406.445"/>
      <point x="210.333" y="394" type="curve"/>
    </contour>
  </outline>
</glyph>
<glyph name="uni01A8" format="2">
  <advance width="438"/>
  <unicode hex="01A8"/>
  <outline>
    <contour>
      <point x="32.6667" y="128.333" type="curve" smooth="yes"/>
      <point x="32.6667" y="191.06"/>
      <point x="75.2528" y="235.133"/>
      <point x="146" y="269.333" type="curve"/>
      <point x="201.667" y="300.333" type="line"/>
      <point x="248.276" y="323.862"/>
      <point x="285.333" y="346.29"/>
      <point x="285.333" y="378.333" type="curve" smooth="yes"/>
      <point x="285.333" y="414.833"/>
      <point x="257.692" y="442"/>
      <point x="210" y="442" type="curve" smooth="yes"/>
      <point x="178.094" y="442"/>
      <point x="149.528" y="432.384"/>
      <point x="133.333" y="417.667" type="curve"/>
      <point x="120.333" y="341" type="line"/>
      <point x="61.6667" y="341" type="line"/>
      <point x="66.3333" y="472.333" type="line"/>
      <point x="90.8132" y="482.365"/>
      <point x="140.152" y="498"/>
      <point x="214.333" y="498" type="curve" smooth="yes"/>
      <point x="328.361" y="498"/>
      <point x="404" y="451.382"/>
      <point x="404" y="367.667" type="curve" smooth="yes"/>
      <point x="404" y="304.204"/>
      <point x="367.955" y="265.307"/>
      <point x="302.333" y="231" type="curve" smooth="yes"/>
      <point x="207.667" y="180.333" type="line" smooth="yes"/>
      <point x="165.025" y="157.549"/>
      <point x="147" y="135.285"/>
      <point x="147" y="110.333" type="curve" smooth="yes"/>
      <point x="147" y="74.5326"/>
      <point x="171.342" y="42.3333"/>
      <point x="231.333" y="42.3333" type="curve" smooth="yes"/>
      <point x="267.5" y="42.3333"/>
      <point x="308.438" y="54.4028"/>
      <point x="324" y="70.3333" type="curve"/>
      <point x="339" y="160" type="line"/>
      <point x="398" y="160" type="line"/>
      <point x="393" y="14.3333" type="line"/>
      <point x="361.775" y="1.71501"/>
      <point x="303.493" y="-12"/>
      <point x="227.333" y="-12" type="curve" smooth="yes"/>
      <point x="121.634" y="-12"/>
      <point x="32.6667" y="24.1102"/>
    </contour>
  </outline>
</glyph>
<glyph name="uni01AB" format="2">
  <advance width="363"/>
  <unicode hex="01AB"/>
  <outline>
    <contour>
      <point x="25" y="426.667" type="line"/>
      <point x="25" y="464.333" type="line"/>
      <point x="99" y="505.667" type="line"/>
      <point x="150" y="611.667" type="line"/>
      <point x="210.667" y="611.667" type="line"/>
      <point x="210.667" y="486" type="line"/>
      <point x="350.333" y="486" type="line"/>
      <point x="350.333" y="426.667" type="line"/>
      <point x="210.667" y="426.667" type="line"/>
      <point x="210.667" y="152.333" type="line" smooth="yes"/>
      <point x="210.667" y="88"/>
      <point x="235.667" y="58"/>
      <point x="292" y="58" type="curve" smooth="yes"/>
      <point x="322.802" y="58"/>
      <point x="352.58" y="65.1373"/>
      <point x="358.667" y="68.6667" type="curve"/>
      <point x="358.667" y="-109" type="line" smooth="yes"/>
      <point x="358.667" y="-195.333"/>
      <point x="284" y="-230"/>
      <point x="215" y="-230" type="curve" smooth="yes"/>
      <point x="155.079" y="-230"/>
      <point x="98" y="-199.586"/>
      <point x="98" y="-156.333" type="curve" smooth="yes"/>
      <point x="98" y="-121.992"/>
      <point x="113.29" y="-100.316"/>
      <point x="150.333" y="-82.6667" type="curve"/>
      <point x="241.333" y="-166.667" type="line"/>
      <point x="280" y="-166.667"/>
      <point x="299.667" y="-154.333"/>
      <point x="299.667" y="-112.333" type="curve" smooth="yes"/>
      <point x="299.667" y="2.66667" type="line"/>
      <point x="278.333" y="-7.33333"/>
      <point x="233" y="-12"/>
      <point x="206.667" y="-12" type="curve" smooth="yes"/>
      <point x="121.667" y="-12"/>
      <point x="90.3333" y="25.3333"/>
      <point x="90.3333" y="107.333" type="curve" smooth="yes"/>
      <point x="90.3333" y="426.667" type="line"/>
    </contour>
  </outline>
</glyph>
<glyph name="uni01AE" format="2">
  <advance width="605"/>
  <unicode hex="01AE"/>
  <outline>
    <contour>
      <point x="16" y="495.667" type="line"/>
      <point x="16" y="671" type="line"/>
      <point x="589.667" y="671" type="line"/>
      <point x="589.667" y="495.667" type="line"/>
      <point x="521.333" y="495.667" type="line"/>
      <point x="504.667" y="601" type="line"/>
      <point x="503.667" y="609.667"/>
      <point x="498.333" y="614.667"/>
      <point x="489.667" y="614.667" type="curve" smooth="yes"/>
      <point x="367.333" y="614.667" type="line"/>
      <point x="367.333" y="-58.3333" type="line" smooth="yes"/>
      <point x="367.333" y="-114"/>
      <point x="379.333" y="-164"/>
      <point x="424.333" y="-171.667" type="curve"/>
      <point x="498" y="-78" type="line"/>
      <point x="531.333" y="-80.3333"/>
      <point x="554" y="-110"/>
      <point x="554" y="-151" type="curve" smooth="yes"/>
      <point x="554" y="-205.667"/>
      <point x="497.667" y="-230.333"/>
      <point x="433.667" y="-230.333" type="curve" smooth="yes"/>
      <point x="312.333" y="-230.333"/>
      <point x="238.333" y="-154"/>
      <point x="238.333" y="-2" type="curve" smooth="yes"/>
      <point x="238.333" y="614.667" type="line"/>
      <point x="115.667" y="614.667" type="line" smooth="yes"/>
      <point x="107" y="614.667"/>
      <point x="101" y="609.667"/>
      <point x="100" y="601" type="curve"/>
      <point x="83.3333" y="495.667" type="line"/>
    </contour>
  </outline>
</glyph>
<glyph name="uni01B4" format="2">
  <advance width="665"/>
  <unicode hex="01B4"/>
  <outline>
    <contour>
      <point x="10.3333" y="442" type="line"/>
      <point x="10.3333" y="486" type="line"/>
      <point x="259.333" y="486" type="line"/>
      <point x="259.333" y="442" type="line"/>
      <point x="212.667" y="439" type="line" smooth="yes"/>
      <point x="202.844" y="438.366"/>
      <point x="196.629" y="431.965"/>
      <point x="196.629" y="423.667" type="curve"/>
      <point x="196.629" y="421.697"/>
      <point x="196.843" y="419.072"/>
      <point x="197.667" y="417" type="curve" smooth="yes"/>
      <point x="304.333" y="148.667" type="line"/>
      <point x="408.333" y="414.667" type="line" smooth="yes"/>
      <point x="441.391" y="497.976"/>
      <point x="499.194" y="632"/>
      <point x="607.667" y="632" type="curve" smooth="yes"/>
      <point x="646.782" y="632"/>
      <point x="692.333" y="602.147"/>
      <point x="692.333" y="557.667" type="curve" smooth="yes"/>
      <point x="692.333" y="522.964"/>
      <point x="668.188" y="500.846"/>
      <point x="642.667" y="486.667" type="curve"/>
      <point x="556.333" y="546" type="line"/>
      <point x="512.182" y="504.555"/>
      <point x="484.886" y="436.978"/>
      <point x="460.333" y="374.667" type="curve" smooth="yes"/>
      <point x="312.667" y="-3.33333" type="line" smooth="yes"/>
      <point x="278.462" y="-90.0393"/>
      <point x="221.664" y="-230.333"/>
      <point x="113" y="-230.333" type="curve" smooth="yes"/>
      <point x="74.0194" y="-230.333"/>
      <point x="30" y="-203.267"/>
      <point x="30" y="-158" type="curve" smooth="yes"/>
      <point x="30" y="-123.667"/>
      <point x="54" y="-103"/>
      <point x="79.3333" y="-88.6667" type="curve"/>
      <point x="167.333" y="-146.333" type="line"/>
      <point x="203.667" y="-111.333"/>
      <point x="231" y="-46"/>
      <point x="243.333" y="-5.66667" type="curve"/>
      <point x="68" y="436" type="line"/>
    </contour>
  </outline>
</glyph>
<glyph name="uni01B5" format="2">
  <advance width="579"/>
  <unicode hex="01B5"/>
  <outline>
    <contour>
      <point x="37.6667" y="0" type="line"/>
      <point x="37.6667" y="54" type="line"/>
      <point x="390.333" y="613.667" type="line"/>
      <point x="156.333" y="613.667" type="line" smooth="yes"/>
      <point x="147.667" y="613.667"/>
      <point x="142.667" y="608"/>
      <point x="141.333" y="600" type="curve" smooth="yes"/>
      <point x="124.333" y="496.333" type="line"/>
      <point x="56" y="496.333" type="line"/>
      <point x="56" y="671" type="line"/>
      <point x="536.333" y="671" type="line"/>
      <point x="536.333" y="616.333" type="line"/>
      <point x="184" y="58.3333" type="line"/>
      <point x="438.333" y="58.3333" type="line" smooth="yes"/>
      <point x="447" y="58.3333"/>
      <point x="452" y="64.3333"/>
      <point x="454" y="71.6667" type="curve"/>
      <point x="473" y="193" type="line"/>
      <point x="541.333" y="193" type="line"/>
      <point x="541.333" y="0" type="line"/>
    </contour>
    <contour>
      <point x="125.667" y="326" type="line"/>
      <point x="125.667" y="385.333" type="line"/>
      <point x="470.333" y="385.333" type="line"/>
      <point x="470.333" y="326" type="line"/>
    </contour>
  </outline>
</glyph>
